<svg viewBox="0 0 47 38" fill="none" xmlns="http://www.w3.org/2000/svg">
<path d="M25.6722 9.35457C33.0665 9.35457 37.2595 14.2476 37.8709 20.1579H38.0575C39.1875 20.1564 40.3067 20.3775 41.3512 20.8085C42.3957 21.2396 43.345 21.8722 44.145 22.6702C44.945 23.4683 45.5799 24.4161 46.0136 25.4595C46.4472 26.503 46.671 27.6216 46.6722 28.7516C46.6707 29.8813 46.4466 30.9997 46.0129 32.0429C45.5791 33.0861 44.9441 34.0336 44.1442 34.8314C43.3443 35.6292 42.395 36.2616 41.3507 36.6925C40.3063 37.1234 39.1873 37.3444 38.0575 37.3429H13.2869C12.1571 37.3444 11.0381 37.1234 9.99376 36.6925C8.94941 36.2616 8.00016 35.6292 7.20022 34.8314C6.40027 34.0336 5.76529 33.0861 5.33153 32.0429C4.89778 30.9997 4.67374 29.8813 4.67221 28.7516C4.67343 27.6216 4.89725 26.503 5.33086 25.4595C5.76448 24.4161 6.39942 23.4683 7.19939 22.6702C7.99937 21.8722 8.94872 21.2396 9.99322 20.8085C11.0377 20.3775 12.1569 20.1564 13.2869 20.1579H13.4735C14.0872 14.2079 18.2779 9.35457 25.6699 9.35457H25.6722ZM25.6722 12.8499C20.8399 12.8499 16.6259 16.6602 16.6259 21.9242C16.6259 22.7572 15.8815 23.4129 15.0299 23.4129H13.4199C10.4775 23.4129 8.09054 25.7486 8.09054 28.6302C8.09054 31.5119 10.4775 33.8476 13.4199 33.8476H37.9269C40.8669 33.8476 43.2539 31.5142 43.2539 28.6302C43.2539 25.7486 40.8692 23.4129 37.9269 23.4129H36.3145C35.4629 23.4129 34.7185 22.7596 34.7185 21.9242C34.7185 16.5926 30.5045 12.8476 25.6722 12.8476V12.8499ZM5.52621 19.0496C5.68827 19.4406 5.7031 19.8771 5.56795 20.2783C5.43281 20.6794 5.15685 21.018 4.79121 21.2312L4.57887 21.3362L2.41821 22.2322C2.00868 22.4014 1.55022 22.409 1.13535 22.2533C0.720486 22.0977 0.380099 21.7905 0.182888 21.3937C-0.0143238 20.9969 -0.0536749 20.5401 0.072776 20.1154C0.199227 19.6907 0.482064 19.3299 0.864208 19.1056L1.07887 18.9982L3.23954 18.1046C3.6681 17.9268 4.14972 17.9265 4.57852 18.1037C5.00732 18.2809 5.3482 18.6211 5.52621 19.0496ZM20.6625 7.77257L20.2612 7.90791C19.0477 8.33325 17.9007 8.92875 16.8545 9.67657C15.7311 9.31165 14.522 9.3049 13.3946 9.65724C12.2671 10.0096 11.277 10.7036 10.5613 11.6433C9.84559 12.583 9.4396 13.7219 9.39951 14.9025C9.35942 16.083 9.68721 17.2468 10.3375 18.2329C9.20031 18.5523 8.12345 19.0568 7.15021 19.7262C6.08077 17.8881 5.6813 15.7362 6.01978 13.6367C6.35826 11.5372 7.41378 9.61985 9.00671 8.21095C10.5996 6.80204 12.6316 5.98863 14.7567 5.90912C16.8818 5.82962 18.9688 6.48895 20.6625 7.77491V7.77257ZM2.19421 7.84491L2.44154 7.92657L4.60221 8.82257C5.0085 8.99288 5.33561 9.31017 5.51823 9.71108C5.70084 10.112 5.72554 10.567 5.58738 10.9853C5.44921 11.4037 5.15836 11.7545 4.77289 11.9678C4.38741 12.181 3.93568 12.2411 3.50787 12.1359L3.26754 12.0589L1.10687 11.1629C0.70166 10.9921 0.375608 10.675 0.193593 10.2747C0.0115776 9.87436 -0.0130572 9.4202 0.12459 9.00255C0.262238 8.5849 0.552077 8.23439 0.936437 8.02074C1.3208 7.8071 1.7715 7.74599 2.19887 7.84957L2.19421 7.84491ZM11.0959 0.877573L11.2032 1.08991L12.0969 3.25291C12.2636 3.66207 12.2695 4.11917 12.1132 4.53245C11.9569 4.94573 11.65 5.28459 11.2543 5.48101C10.8585 5.67743 10.403 5.71686 9.97938 5.59139C9.55572 5.46592 9.19521 5.18484 8.97021 4.80457L8.86287 4.59224L7.96921 2.42924C7.80244 2.02008 7.79661 1.56297 7.95291 1.14969C8.1092 0.736416 8.41604 0.397555 8.81183 0.201138C9.20761 0.00472163 9.66305 -0.0347109 10.0867 0.0907575C10.5104 0.216226 10.8709 0.497307 11.0959 0.877573ZM21.2552 0.13324C21.6426 0.294032 21.9594 0.58862 22.1478 0.963354C22.3362 1.33809 22.3838 1.76804 22.2819 2.17491L22.2002 2.41991L21.3065 4.58291C21.1362 4.9892 20.8189 5.3163 20.418 5.49892C20.0171 5.68154 19.5621 5.70624 19.1438 5.56807C18.7255 5.42991 18.3746 5.13906 18.1614 4.75358C17.9481 4.36811 17.888 3.91638 17.9932 3.48857L18.0725 3.24124L18.9685 1.08057C19.0565 0.86821 19.1854 0.675247 19.3479 0.512704C19.5104 0.350161 19.7033 0.221222 19.9156 0.133252C20.128 0.0452812 20.3556 2.10073e-06 20.5854 0C20.8153 -2.10059e-06 21.0429 0.0452728 21.2552 0.13324Z" fill="black"/>
</svg>
