<svg viewBox="0 0 47 38" fill="none" xmlns="http://www.w3.org/2000/svg">
<path d="M25.6722 9.35721C33.0642 9.35721 37.2595 14.2502 37.8685 20.1605H38.0552C39.1851 20.159 40.3043 20.3801 41.3488 20.8112C42.3933 21.2422 43.3427 21.8748 44.1427 22.6729C44.9426 23.4709 45.5776 24.4187 46.0112 25.4622C46.4448 26.5056 46.6686 27.6243 46.6699 28.7542C46.6683 29.884 46.4443 31.0024 46.0105 32.0455C45.5768 33.0887 44.9418 34.0363 44.1418 34.834C43.3419 35.6318 42.3927 36.2642 41.3483 36.6951C40.304 37.1261 39.1849 37.3471 38.0552 37.3455H13.2869C12.1571 37.3471 11.0381 37.1261 9.99374 36.6951C8.94939 36.2642 8.00014 35.6318 7.20019 34.834C6.40025 34.0363 5.76527 33.0887 5.33151 32.0455C4.89776 31.0024 4.67372 29.884 4.67219 28.7542C4.67341 27.6243 4.89722 26.5056 5.33084 25.4622C5.76446 24.4187 6.39939 23.4709 7.19937 22.6729C7.99935 21.8748 8.9487 21.2422 9.9932 20.8112C11.0377 20.3801 12.1569 20.159 13.2869 20.1605H13.4735C14.0872 14.2105 18.2802 9.35721 25.6722 9.35721ZM25.6722 12.8502C20.8375 12.8502 16.6259 16.6629 16.6259 21.9269C16.6259 22.7599 15.8815 23.4155 15.0299 23.4155H13.4199C10.4752 23.4155 8.09052 25.7489 8.09052 28.6329C8.09052 31.5145 10.4752 33.8502 13.4175 33.8502H37.9245C40.8669 33.8502 43.2515 31.5169 43.2515 28.6329C43.2515 25.7512 40.8669 23.4155 37.9245 23.4155H36.3145C35.4605 23.4155 34.7162 22.7622 34.7162 21.9269C34.7162 16.5952 30.5045 12.8502 25.6722 12.8502ZM10.7085 0.005209C12.5681 0.105497 14.3775 0.644404 15.9889 1.57788C18.3549 2.93948 20.1756 5.07935 21.1409 7.63288C19.9742 7.95954 18.8939 8.42154 17.9069 8.99554C17.4874 7.82557 16.8105 6.7648 15.926 5.89162C15.0415 5.01845 13.9721 4.3552 12.7969 3.95088C13.1702 7.10554 12.6872 9.81454 11.3455 12.3765L11.0702 12.8735C9.73785 15.1509 7.72885 16.8589 4.72585 18.2495C5.46952 18.8671 6.31412 19.3517 7.22252 19.6822C6.17252 20.3869 5.25085 21.2712 4.50185 22.2932C2.8246 21.4047 1.3863 20.1248 0.308853 18.5622C0.156635 18.3412 0.0572667 18.0882 0.018429 17.8227C-0.0204087 17.5572 0.00232478 17.2864 0.0848713 17.0311C0.167418 16.7758 0.307567 16.5429 0.494485 16.3503C0.681404 16.1578 0.910085 16.0109 1.16285 15.9209C4.99652 14.5489 7.05919 13.0042 8.24219 10.7502C9.53019 8.28854 9.76819 5.67754 8.91185 2.17054C8.84599 1.9045 8.84354 1.6267 8.90469 1.35953C8.96584 1.09236 9.08889 0.843294 9.26393 0.632388C9.43896 0.421483 9.66109 0.254639 9.91241 0.145297C10.1637 0.0359541 10.4372 -0.0128298 10.7109 0.00287583L10.7085 0.005209Z" fill="black"/>
</svg>
