<svg width="60" height="33" viewBox="0 0 60 33" fill="none" xmlns="http://www.w3.org/2000/svg">
<path d="M30.9834 0.183102C19.0989 -1.36017 8.21918 7.02231 6.67632 18.9024C6.44552 20.6801 6.43663 22.4404 6.63307 24.1474L17.2589 25.5274C16.6756 23.8717 16.463 22.0617 16.7039 20.2048C17.5277 13.8619 23.3382 9.38693 29.681 10.2107C36.0243 11.0345 40.4948 16.8442 39.671 23.1874C39.627 23.5282 39.566 23.8665 39.4936 24.1951L49.5418 25.4999C49.602 25.1656 49.6542 24.8301 49.6982 24.4898C51.2415 12.6093 42.8639 1.72556 30.9834 0.183102Z" fill="#EA7F98"/>
<path d="M30.6333 2.8788C20.2403 1.52914 10.722 8.85946 9.37239 19.2525C9.13997 21.0427 9.16421 22.8075 9.42048 24.5092L17.2589 25.527C16.6756 23.8714 16.463 22.0613 16.7039 20.2044C17.5277 13.8615 23.3382 9.38655 29.681 10.2103C36.0243 11.0341 40.4948 16.8438 39.671 23.187C39.627 23.5278 39.5659 23.8661 39.4936 24.1947L46.8421 25.1491C46.9068 24.8152 46.9585 24.4797 47.003 24.1393C48.3526 13.7463 41.0223 4.22804 30.6333 2.8788Z" fill="#FFD79C"/>
<path d="M30.3334 5.18845C21.2157 4.00452 12.866 10.4347 11.682 19.5524C11.448 21.3552 11.5131 23.1292 11.8381 24.8233L17.2589 25.5274C16.6756 23.8718 16.463 22.0617 16.7039 20.2048C17.5277 13.862 23.3382 9.38696 29.681 10.2107C36.0243 11.0345 40.4948 16.8442 39.671 23.1874C39.627 23.5282 39.5659 23.8665 39.4936 24.1951L44.528 24.8487C44.5967 24.5157 44.6485 24.1802 44.6929 23.8394C45.8773 14.7213 39.4471 6.37197 30.3334 5.18845Z" fill="#AEE7F4"/>
<path d="M29.9886 7.84287C22.337 6.84932 15.33 12.2455 14.3365 19.8972C14.0996 21.721 14.2261 23.5112 14.6586 25.1895L17.2589 25.527C16.6756 23.8713 16.463 22.0613 16.7039 20.2044C17.5277 13.8615 23.3382 9.38654 29.681 10.2103C36.0243 11.0341 40.4948 16.8438 39.671 23.187C39.627 23.5278 39.5659 23.8661 39.4936 24.1947L41.8695 24.5031C41.9382 24.1701 41.9944 23.835 42.0385 23.4942C43.0324 15.843 37.6363 8.83601 29.9886 7.84287Z" fill="#8A7FD6"/>
<path d="M19.5394 24.1386C19.2904 23.0779 18.3438 22.2861 17.2072 22.2861C17.0633 22.2861 16.9238 22.3043 16.7868 22.3285C16.7868 22.3188 16.7896 22.3099 16.7896 22.3002C16.7896 21.3127 15.9893 20.5124 15.0018 20.5124C14.7779 20.5124 14.5661 20.5585 14.3684 20.6333C13.5697 19.2711 12.0943 18.3539 10.4011 18.3539C8.21392 18.3539 6.38689 19.8818 5.91963 21.9275C5.71186 21.8649 5.49562 21.8208 5.26724 21.8208C4.01541 21.8208 3.00044 22.8358 3.00044 24.0876C1.34359 24.0876 0 25.4308 0 27.0881C0 28.7449 1.34319 30.0885 3.00044 30.0885H19.0018C20.6587 30.0885 22.0019 28.7453 22.0019 27.0881C22.0023 25.6147 20.9396 24.392 19.5394 24.1386Z" fill="#94B8ED"/>
<path d="M26.723 27.3221C26.5229 26.4688 25.761 25.8314 24.8467 25.8314C24.7311 25.8314 24.6187 25.8459 24.5084 25.8653C24.5084 25.8576 24.5108 25.8504 24.5108 25.8423C24.5108 25.0476 23.8669 24.4037 23.0722 24.4037C22.8919 24.4037 22.7214 24.4405 22.5625 24.5011C21.9198 23.4053 20.7327 22.6672 19.3705 22.6672C17.6106 22.6672 16.1405 23.8968 15.7645 25.5428C15.5972 25.4922 15.4234 25.4571 15.2395 25.4571C14.2322 25.4571 13.4153 26.2736 13.4153 27.2813C12.0818 27.2813 11.0009 28.3621 11.0009 29.6956C11.0009 31.0291 12.0818 32.1099 13.4153 32.1099H26.2905C27.624 32.1099 28.7049 31.0291 28.7049 29.6956C28.7053 28.5096 27.85 27.5258 26.723 27.3221Z" fill="#B2CFF9"/>
<path d="M56.5993 23.2566C56.3503 22.1959 55.4036 21.4041 54.267 21.4041C54.1231 21.4041 53.9837 21.4223 53.8466 21.4465C53.8466 21.4368 53.8495 21.4279 53.8495 21.4182C53.8495 20.4307 53.0491 19.6304 52.0616 19.6304C51.8377 19.6304 51.6259 19.6765 51.4282 19.7513C50.6295 18.3891 49.1542 17.4719 47.4609 17.4719C45.2738 17.4719 43.4468 18.9998 42.9795 21.0455C42.7717 20.9829 42.5555 20.9388 42.3271 20.9388C41.0753 20.9388 40.0603 21.9538 40.0603 23.2056C38.4034 23.2056 37.0599 24.5488 37.0599 26.2061C37.0599 27.8629 38.403 29.2065 40.0603 29.2065H56.0617C57.7185 29.2065 59.0617 27.8633 59.0617 26.2061C59.0621 24.7327 57.9995 23.51 56.5993 23.2566Z" fill="#91D9E5"/>
<path d="M45.2612 24.2242C45.0802 23.4538 44.3926 22.8782 43.5668 22.8782C43.4621 22.8782 43.3611 22.8915 43.2616 22.9089C43.2616 22.902 43.2636 22.8952 43.2636 22.8883C43.2636 22.1708 42.682 21.5892 41.9645 21.5892C41.802 21.5892 41.648 21.6223 41.5045 21.6769C40.9241 20.6874 39.8521 20.0208 38.6221 20.0208C37.0328 20.0208 35.7053 21.1312 35.3662 22.6175C35.215 22.5718 35.0582 22.5399 34.8921 22.5399C33.9822 22.5399 33.2449 23.2771 33.2449 24.187C32.0412 24.187 31.065 25.1632 31.065 26.3669C31.065 27.5711 32.0412 28.5468 33.2449 28.5468H44.8712C46.0753 28.5468 47.0511 27.5707 47.0511 26.3669C47.0507 25.297 46.2786 24.4085 45.2612 24.2242Z" fill="#B6E9EF"/>
<path d="M51.2569 28.4874C51.0758 27.717 50.3882 27.1414 49.5624 27.1414C49.4577 27.1414 49.3567 27.1547 49.2572 27.1721C49.2572 27.1649 49.2593 27.1584 49.2593 27.1515C49.2593 26.434 48.6776 25.8524 47.9601 25.8524C47.7977 25.8524 47.6437 25.8855 47.5002 25.9401C46.9197 24.9506 45.8478 24.284 44.6177 24.284C43.0284 24.284 41.701 25.3944 41.3618 26.8807C41.2107 26.835 41.0538 26.8031 40.8877 26.8031C39.9782 26.8031 39.2406 27.5404 39.2406 28.4502C38.0368 28.4502 37.0607 29.4264 37.0607 30.6301C37.0607 31.8339 38.0368 32.81 39.2406 32.81H50.8668C52.071 32.81 53.0467 31.8339 53.0467 30.6301C53.0467 29.5602 52.2743 28.6717 51.2569 28.4874Z" fill="#CBEDEF"/>
</svg>
