<svg width="20" height="28" viewBox="0 0 20 28" fill="none" xmlns="http://www.w3.org/2000/svg">
<path d="M19 17.5047C19 23.0278 15.5231 26.5047 10 26.5047C4.47687 26.5047 1 23.0278 1 17.5047C1 11.5778 7.45187 3.57657 9.43062 1.26219C9.50103 1.17996 9.58841 1.11395 9.68675 1.06869C9.78509 1.02343 9.89206 1 10.0003 1C10.1086 1 10.2155 1.02343 10.3139 1.06869C10.4122 1.11395 10.4996 1.17996 10.57 1.26219C12.5481 3.57657 19 11.5778 19 17.5047Z" stroke="#8B6BC8" stroke-width="2" stroke-miterlimit="10"/>
<path d="M15.5 18.0047C15.5 19.1982 15.0259 20.3428 14.182 21.1867C13.3381 22.0306 12.1935 22.5047 11 22.5047" stroke="#8B6BC8" stroke-width="2" stroke-linecap="round" stroke-linejoin="round"/>
</svg>
