<svg width="39" height="49" viewBox="0 0 39 49" fill="none" xmlns="http://www.w3.org/2000/svg">
<path d="M19.25 10.5C17.5194 10.5 15.8277 11.0132 14.3888 11.9746C12.9498 12.9361 11.8283 14.3027 11.1661 15.9015C10.5038 17.5004 10.3305 19.2597 10.6681 20.957C11.0057 22.6544 11.8391 24.2135 13.0628 25.4372C14.2865 26.6609 15.8456 27.4943 17.543 27.8319C19.2403 28.1695 20.9996 27.9962 22.5985 27.3339C24.1973 26.6717 25.5639 25.5502 26.5254 24.1112C27.4868 22.6723 28 20.9806 28 19.25C27.9973 16.9302 27.0746 14.7061 25.4342 13.0658C23.7939 11.4254 21.5698 10.5027 19.25 10.5ZM19.25 24.5C18.2116 24.5 17.1966 24.1921 16.3333 23.6152C15.4699 23.0383 14.797 22.2184 14.3996 21.2591C14.0023 20.2998 13.8983 19.2442 14.1009 18.2258C14.3034 17.2074 14.8035 16.2719 15.5377 15.5377C16.2719 14.8035 17.2074 14.3034 18.2258 14.1009C19.2442 13.8983 20.2998 14.0023 21.2591 14.3996C22.2184 14.797 23.0383 15.4699 23.6152 16.3333C24.1921 17.1966 24.5 18.2116 24.5 19.25C24.4984 20.6419 23.9448 21.9764 22.9606 22.9606C21.9764 23.9448 20.6419 24.4984 19.25 24.5ZM19.25 0C14.1464 0.00578973 9.25341 2.03577 5.64459 5.64459C2.03577 9.25341 0.00578973 14.1464 0 19.25C0 26.1179 3.17406 33.3985 9.17941 40.3047C11.8818 43.4251 14.9228 46.2354 18.2464 48.6837C18.5405 48.8896 18.8909 49.0001 19.25 49.0001C19.6091 49.0001 19.9595 48.8896 20.2536 48.6837C23.5772 46.2354 26.6182 43.4251 29.3206 40.3047C35.3257 33.3985 38.5 26.1181 38.5 19.25C38.4942 14.1464 36.4642 9.25341 32.8554 5.64459C29.2466 2.03577 24.3536 0.00578973 19.25 0ZM19.25 45.0581C15.6334 42.2214 3.5 31.7693 3.5 19.25C3.5 15.0728 5.15937 11.0668 8.11307 8.11307C11.0668 5.15937 15.0728 3.5 19.25 3.5C23.4272 3.5 27.4332 5.15937 30.3869 8.11307C33.3406 11.0668 35 15.0728 35 19.25C35 31.7695 22.8659 42.222 19.25 45.0581Z" fill="black"/>
</svg>
