<svg width="188" height="45" viewBox="0 0 188 45" fill="none" xmlns="http://www.w3.org/2000/svg">
<path d="M70.5625 33.25C70.6042 33.0208 70.6719 32.8229 70.7656 32.6562C70.849 32.5 70.9167 32.3229 70.9688 32.125C71.1667 31.6562 71.375 31.2708 71.5938 30.9688C71.6354 30.8021 71.6927 30.6562 71.7656 30.5312C71.8385 30.4062 71.9167 30.2917 72 30.1875C72.1146 29.9062 72.2135 29.6302 72.2969 29.3594C72.3802 29.0885 72.4896 28.8229 72.625 28.5625C72.875 28.0833 73.1302 27.5885 73.3906 27.0781C73.651 26.5677 73.9062 26.0625 74.1562 25.5625C74.2188 25.4479 74.2812 25.3333 74.3438 25.2188C74.4062 25.0938 74.4635 24.974 74.5156 24.8594C74.5677 24.7448 74.625 24.6302 74.6875 24.5156C74.7604 24.3906 74.8333 24.2708 74.9062 24.1562L75.0312 23.6562C75.0833 23.4688 75.1354 23.3021 75.1875 23.1562C75.1667 23.0208 75.1771 22.9219 75.2188 22.8594L75.3438 22.625L75.4375 22.25C75.5 22 75.5833 21.7969 75.6875 21.6406C75.7812 21.4948 75.8646 21.3021 75.9375 21.0625C76 21.0208 76.0521 20.9583 76.0938 20.875C76.1354 20.7917 76.1771 20.7083 76.2188 20.625C76.3021 20.3958 76.3854 20.1719 76.4688 19.9531C76.5521 19.724 76.6354 19.5 76.7188 19.2812C76.8021 19.0625 76.8854 18.8385 76.9688 18.6094C77.0521 18.3802 77.1354 18.1458 77.2188 17.9062C77.3333 17.6354 77.4271 17.4323 77.5 17.2969C77.5833 17.151 77.6458 16.9792 77.6875 16.7812C77.8958 16.3021 78.1042 15.8281 78.3125 15.3594C78.5208 14.8906 78.7396 14.4167 78.9688 13.9375C79.0417 13.7604 79.1146 13.5938 79.1875 13.4375C79.2604 13.2812 79.3333 13.1354 79.4062 13C79.4792 12.8438 79.5729 12.6823 79.6875 12.5156C79.7708 12.3906 79.8438 12.2396 79.9062 12.0625C79.9583 11.9375 79.9583 11.8021 79.9062 11.6562C79.6771 11.6667 79.474 11.7396 79.2969 11.875C79.1302 12 78.9271 12.125 78.6875 12.25C78.6354 12.2812 78.5781 12.3177 78.5156 12.3594C78.4635 12.3906 78.4062 12.4271 78.3438 12.4688C78.2812 12.5625 78.224 12.6198 78.1719 12.6406C78.1302 12.6615 78.0938 12.6875 78.0625 12.7188C77.8646 12.8333 77.6719 12.9635 77.4844 13.1094C77.3073 13.2448 77.1042 13.375 76.875 13.5C76.7812 13.5833 76.6823 13.6719 76.5781 13.7656C76.4844 13.849 76.3854 13.9323 76.2812 14.0156C76.1771 14.099 76.0729 14.1875 75.9688 14.2812C75.875 14.3646 75.7812 14.4479 75.6875 14.5312C75.6146 14.6667 75.4792 14.7917 75.2812 14.9062C75.1771 15.0104 75.0781 15.125 74.9844 15.25C74.8906 15.375 74.7917 15.4896 74.6875 15.5938C74.6667 15.8646 74.6042 16.1198 74.5 16.3594C74.3958 16.599 74.2917 16.8333 74.1875 17.0625C74.125 17.2292 74.0729 17.3854 74.0312 17.5312C74.1146 17.5729 74.1927 17.5573 74.2656 17.4844C74.3385 17.4115 74.4167 17.3854 74.5 17.4062C74.8021 17.2812 75.0521 17.125 75.25 16.9375C75.4271 16.7708 75.6458 16.5938 75.9062 16.4062C76.1146 16.2396 76.3073 16.0469 76.4844 15.8281C76.6615 15.6094 76.8333 15.3854 77 15.1562C77.0938 15.0625 77.1667 14.9844 77.2188 14.9219C77.2812 14.8594 77.3229 14.8177 77.3438 14.7969C77.3958 14.7448 77.4688 14.7188 77.5625 14.7188C77.6667 14.8125 77.724 14.8854 77.7344 14.9375C77.7448 14.9583 77.7396 15 77.7188 15.0625C77.5208 15.5417 77.3229 15.9323 77.125 16.2344C77.0312 16.3698 76.9375 16.5156 76.8438 16.6719C76.7604 16.8177 76.6771 16.9688 76.5938 17.125C76.375 17.3438 76.2083 17.5573 76.0938 17.7656C76 17.9427 75.875 18.125 75.7188 18.3125C75.6146 18.5 75.5104 18.6823 75.4062 18.8594C75.3021 19.0365 75.1667 19.1771 75 19.2812C74.625 19.3646 74.3385 19.3594 74.1406 19.2656L73.625 19.0312C73.5833 19 73.5 18.974 73.375 18.9531C73.2708 18.9323 73.1875 18.8958 73.125 18.8438C73.0208 18.7188 72.9479 18.6302 72.9062 18.5781C72.8646 18.526 72.8542 18.4583 72.875 18.375C72.75 18.25 72.6875 18.0417 72.6875 17.75C72.7708 17.5312 72.8073 17.4115 72.7969 17.3906C72.7865 17.3698 72.7917 17.3333 72.8125 17.2812C72.8229 17.2396 72.849 17.1771 72.8906 17.0938C72.9323 17.0104 72.9583 16.9479 72.9688 16.9062C73 16.8542 73.026 16.7656 73.0469 16.6406C73.0677 16.5156 73.0938 16.4167 73.125 16.3438C73.1875 16.1562 73.3021 15.9479 73.4688 15.7188L73.6094 15.375C73.6406 15.2917 73.6875 15.1771 73.75 15.0312L73.9062 14.6562C73.9583 14.4792 73.9844 14.3906 73.9844 14.3906C74.0052 14.3698 74.0208 14.3438 74.0312 14.3125C74.1042 14.0833 74.1719 13.9167 74.2344 13.8125C74.2865 13.7292 74.3125 13.6354 74.3125 13.5312C74.8229 12.7812 75.4688 12.125 76.25 11.5625C76.5417 11.3333 76.849 11.1042 77.1719 10.875C77.4948 10.6458 77.8229 10.4271 78.1562 10.2188C78.3229 10.0521 78.5208 9.89062 78.75 9.73438C78.9792 9.57812 79.2083 9.42708 79.4375 9.28125C79.5208 9.23958 79.6042 9.19271 79.6875 9.14062C79.7708 9.08854 79.849 9.03646 79.9219 8.98438C80.0781 8.86979 80.25 8.79167 80.4375 8.75C80.5729 8.70833 80.7083 8.71875 80.8438 8.78125C81.0521 8.90625 81.1875 8.96354 81.25 8.95312C81.2917 8.94271 81.3438 8.94792 81.4062 8.96875C81.5312 9.01042 81.6354 9.10417 81.7188 9.25C81.8021 9.39583 81.8646 9.52083 81.9062 9.625C81.9688 9.75 82.0365 9.89583 82.1094 10.0625C82.1823 10.2292 82.2396 10.4271 82.2812 10.6562L82.3281 10.9688C82.3385 11.0208 82.3438 11.0729 82.3438 11.125C82.3542 11.1771 82.3646 11.2292 82.375 11.2812C82.375 11.3542 82.3854 11.4635 82.4062 11.6094C82.4271 11.7552 82.4375 11.8542 82.4375 11.9062C82.4167 12.0938 82.3542 12.2812 82.25 12.4688C82.1458 12.6562 82.0521 12.8229 81.9688 12.9688C81.8958 13.1146 81.8229 13.2656 81.75 13.4219C81.6875 13.5677 81.6302 13.7135 81.5781 13.8594C81.474 14.151 81.3333 14.4479 81.1562 14.75C81.0312 14.9167 80.9688 15.0156 80.9688 15.0469C80.9688 15.0781 80.9583 15.1042 80.9375 15.125C80.8542 15.3542 80.7917 15.5052 80.75 15.5781C80.7292 15.6198 80.7083 15.6667 80.6875 15.7188C80.6667 15.7708 80.6458 15.8229 80.625 15.875L80.2969 16.6406C80.2448 16.776 80.1875 16.9115 80.125 17.0469C80.0729 17.1823 80.0208 17.3229 79.9688 17.4688C80.0833 17.4479 80.1771 17.3542 80.25 17.1875C80.3646 17.1146 80.4688 16.9792 80.5625 16.7812C80.6667 16.6771 80.75 16.5833 80.8125 16.5C80.8542 16.4479 80.8906 16.3958 80.9219 16.3438C80.9635 16.2917 80.9948 16.2448 81.0156 16.2031C81.0573 16.1198 81.125 16.0312 81.2188 15.9375C81.4479 15.7083 81.6719 15.4583 81.8906 15.1875C82.1094 14.9167 82.3229 14.6458 82.5312 14.375C82.8021 14.125 83.0417 13.8281 83.25 13.4844C83.4583 13.1406 83.6458 12.7917 83.8125 12.4375C83.9375 12.3333 84.0573 12.2292 84.1719 12.125C84.2865 12.0208 84.3958 11.8958 84.5 11.75C84.7604 11.5417 85.0365 11.276 85.3281 10.9531C85.6302 10.6198 85.8802 10.3698 86.0781 10.2031C86.3385 9.98438 86.625 9.8125 86.9375 9.6875C87.25 9.5625 87.6042 9.52083 88 9.5625C88.1042 9.67708 88.1979 9.8125 88.2812 9.96875C88.3542 10.1042 88.4583 10.2292 88.5938 10.3438C88.7604 10.7604 88.901 11.2031 89.0156 11.6719C89.1302 12.1406 89.1771 12.6771 89.1562 13.2812C89.1042 13.4688 89.0365 13.6406 88.9531 13.7969C88.8698 13.9427 88.8021 14.1354 88.75 14.375L88.6406 14.6562C88.6302 14.6979 88.6146 14.7448 88.5938 14.7969C88.5729 14.8385 88.5521 14.8854 88.5312 14.9375C88.4896 15.0625 88.4323 15.1979 88.3594 15.3438C88.2969 15.4792 88.224 15.6302 88.1406 15.7969C87.9531 16.151 87.8333 16.4583 87.7812 16.7188C87.7292 16.7708 87.6927 16.849 87.6719 16.9531L87.625 17.25C87.5 17.5104 87.4375 17.724 87.4375 17.8906C87.4375 18.0677 87.4167 18.2188 87.375 18.3438C87.2708 18.7188 87.1771 19.0938 87.0938 19.4688C87.0104 19.8438 86.9271 20.2292 86.8438 20.625C86.8021 20.75 86.7708 20.8646 86.75 20.9688C86.7292 21.0729 86.7083 21.1771 86.6875 21.2812C86.6458 21.375 86.6094 21.5052 86.5781 21.6719C86.5469 21.8385 86.5104 21.9688 86.4688 22.0625C86.5312 22.0521 86.5938 21.9948 86.6562 21.8906C86.7396 21.7656 86.8021 21.6771 86.8438 21.625L87.1719 21.125C87.224 21.0417 87.276 20.9583 87.3281 20.875C87.3906 20.7917 87.4479 20.7083 87.5 20.625C87.5833 20.5104 87.6615 20.3958 87.7344 20.2812C87.8177 20.1667 87.8958 20.0573 87.9688 19.9531C88.125 19.7135 88.2812 19.5 88.4375 19.3125C88.6458 19 88.8073 18.75 88.9219 18.5625C89.0365 18.375 89.1458 18.1771 89.25 17.9688C89.4167 17.8021 89.5521 17.6354 89.6562 17.4688C89.7083 17.3854 89.7656 17.3021 89.8281 17.2188C89.8906 17.1354 89.9583 17.0521 90.0312 16.9688C90.1562 16.7083 90.2917 16.4583 90.4375 16.2188C90.5417 16.0417 90.625 15.875 90.6875 15.7188C90.875 15.4688 91.0625 15.2292 91.25 15C91.4375 14.7708 91.6354 14.5417 91.8438 14.3125C91.9375 14.2188 92.0208 14.1354 92.0938 14.0625C92.1771 13.9896 92.2448 13.9323 92.2969 13.8906C92.349 13.8385 92.4062 13.7917 92.4688 13.75C92.5312 13.6979 92.5938 13.6458 92.6562 13.5938C92.9167 13.2604 93.2292 12.9375 93.5938 12.625C93.8854 12.2188 94.2344 11.849 94.6406 11.5156C94.849 11.349 95.0469 11.1875 95.2344 11.0312C95.4219 10.8646 95.6042 10.6979 95.7812 10.5312C96.0104 10.4583 96.1875 10.349 96.3125 10.2031C96.4375 10.0573 96.5625 10.0417 96.6875 10.1562C96.8958 9.98958 97.0833 9.93229 97.25 9.98438C97.4167 10.0365 97.5312 10.0833 97.5938 10.125C97.8542 10.3646 98.0104 10.5312 98.0625 10.625C98.1042 10.6875 98.1354 10.7604 98.1562 10.8438C98.1771 10.9271 98.2083 11 98.25 11.0625L98.4375 11.5312C98.4583 11.5729 98.4792 11.6198 98.5 11.6719C98.5208 11.7135 98.5417 11.7604 98.5625 11.8125L98.6875 12.125C98.7708 12.2917 98.849 12.4896 98.9219 12.7188C98.9948 12.9479 99.0208 13.1771 99 13.4062C98.9896 13.4583 98.9792 13.5156 98.9688 13.5781C98.9583 13.6302 98.9479 13.6875 98.9375 13.75C98.9167 13.8854 98.8854 14.0208 98.8438 14.1562C98.8125 14.2396 98.7812 14.3177 98.75 14.3906C98.7188 14.4635 98.6927 14.5365 98.6719 14.6094L98.5312 15C98.5104 15.0521 98.4948 15.1042 98.4844 15.1562C98.474 15.1979 98.4635 15.2396 98.4531 15.2812C98.4323 15.3958 98.4062 15.4792 98.375 15.5312C98.25 15.8542 98.0833 16.2344 97.875 16.6719C97.7708 16.8802 97.6771 17.0729 97.5938 17.25C97.5208 17.4271 97.4583 17.5833 97.4062 17.7188C97.3958 17.9062 97.3229 18.0729 97.1875 18.2188C97.1354 18.4479 97.0833 18.6146 97.0312 18.7188C96.9688 18.8542 96.9062 19.0104 96.8438 19.1875C96.8125 19.2604 96.7865 19.3594 96.7656 19.4844C96.7448 19.6094 96.7188 19.7083 96.6875 19.7812C96.625 19.9271 96.5729 20.0365 96.5312 20.1094C96.4896 20.1823 96.4375 20.2917 96.375 20.4375C96.3333 20.6042 96.2917 20.7656 96.25 20.9219C96.2083 21.0781 96.1458 21.2292 96.0625 21.375C95.9792 21.6042 95.8958 21.8229 95.8125 22.0312C95.7292 22.2396 95.625 22.4271 95.5 22.5938C95.0833 23.2708 94.7396 24.0156 94.4688 24.8281C94.2083 25.6198 93.8958 26.3854 93.5312 27.125C93.5208 27.2396 93.4792 27.3646 93.4062 27.5C93.375 27.5625 93.3438 27.625 93.3125 27.6875C93.2917 27.75 93.2708 27.8125 93.25 27.875C93.1458 28 93.0677 28.1667 93.0156 28.375C92.974 28.5417 92.9167 28.7396 92.8438 28.9688C92.7812 29.1771 92.7917 29.349 92.875 29.4844C92.9583 29.6198 93.0312 29.7083 93.0938 29.75C93.1979 29.8125 93.349 29.8333 93.5469 29.8125C93.7448 29.7917 93.8958 29.7604 94 29.7188C94.0625 29.6979 94.1302 29.6771 94.2031 29.6562C94.276 29.6354 94.3542 29.6146 94.4375 29.5938C94.5208 29.5729 94.599 29.5521 94.6719 29.5312C94.7448 29.5104 94.8125 29.4896 94.875 29.4688C95.0521 29.4062 95.1927 29.3438 95.2969 29.2812C95.349 29.25 95.4062 29.2188 95.4688 29.1875C95.5312 29.1562 95.5938 29.125 95.6562 29.0938C95.7708 29.0104 95.9062 28.9479 96.0625 28.9062C96.1354 28.8333 96.1979 28.7917 96.25 28.7812C96.3021 28.7708 96.3542 28.7396 96.4062 28.6875C96.6354 28.5 96.8698 28.2708 97.1094 28C97.3281 27.75 97.5729 27.5208 97.8438 27.3125C98.2083 26.75 98.6875 26.2604 99.2812 25.8438C99.5104 25.9688 99.6615 26.0833 99.7344 26.1875C99.8073 26.2917 99.875 26.3958 99.9375 26.5C99.9583 26.7083 99.9271 26.8698 99.8438 26.9844C99.7604 27.099 99.6875 27.2292 99.625 27.375C99.4583 27.5417 99.2917 27.7135 99.125 27.8906C98.9688 28.0677 98.8125 28.2448 98.6562 28.4219C98.3438 28.7865 98.0208 29.125 97.6875 29.4375C97.6354 29.5521 97.5833 29.6719 97.5312 29.7969C97.4792 29.9115 97.4271 30.026 97.375 30.1406C97.2604 30.3802 97.1042 30.5625 96.9062 30.6875C96.7292 30.8125 96.5625 30.9323 96.4062 31.0469C96.2604 31.1615 96.125 31.2708 96 31.375C95.75 31.5833 95.4792 31.7396 95.1875 31.8438C94.6458 32.1667 94.1042 32.5417 93.5625 32.9688C93.3438 33.1146 93.0833 33.25 92.7812 33.375C92.6146 33.2812 92.5312 33.2344 92.5312 33.2344L92.4688 33.1875C92.1354 33.1354 91.8906 33.0052 91.7344 32.7969C91.5885 32.5885 91.4062 32.3854 91.1875 32.1875C90.9062 31.9062 90.6979 31.5208 90.5625 31.0312C90.4792 30.7604 90.401 30.5 90.3281 30.25C90.2552 30 90.2396 29.6979 90.2812 29.3438C90.3021 29.1146 90.3542 28.8958 90.4375 28.6875C90.5208 28.4792 90.6042 28.2812 90.6875 28.0938C90.8646 27.6979 91.0469 27.2969 91.2344 26.8906C91.4323 26.474 91.6354 26.0521 91.8438 25.625C92.2812 24.7396 92.625 23.9167 92.875 23.1562C92.9375 23.0521 92.974 22.9635 92.9844 22.8906L93.0312 22.6875C93.1146 22.4792 93.2135 22.2656 93.3281 22.0469C93.4427 21.8281 93.5521 21.625 93.6562 21.4375C93.7188 21.1562 93.8073 20.8906 93.9219 20.6406C93.974 20.526 94.026 20.4062 94.0781 20.2812C94.1406 20.1458 94.1979 20.0104 94.25 19.875C94.375 19.6875 94.4688 19.4688 94.5312 19.2188C94.5938 18.9792 94.6979 18.7604 94.8438 18.5625L95.2188 17.375C95.3542 16.9375 95.4479 16.5208 95.5 16.125C95.5208 15.9479 95.5208 15.7917 95.5 15.6562C95.4792 15.5104 95.4792 15.3438 95.5 15.1562C95.5104 14.9167 95.5417 14.6458 95.5938 14.3438C95.6354 14.0521 95.6354 13.75 95.5938 13.4375C95.5417 13.4792 95.4896 13.5208 95.4375 13.5625C95.3854 13.5938 95.3333 13.625 95.2812 13.6562C95.2292 13.6875 95.1771 13.724 95.125 13.7656C95.0729 13.7969 95.0208 13.8333 94.9688 13.875C94.8542 13.9792 94.724 14.0781 94.5781 14.1719C94.4531 14.2552 94.3333 14.3542 94.2188 14.4688C94.1562 14.5312 94.1042 14.5781 94.0625 14.6094C94.0312 14.6406 94.0104 14.6615 94 14.6719C93.9896 14.6823 93.974 14.6927 93.9531 14.7031C93.9427 14.7135 93.9271 14.7292 93.9062 14.75C93.7917 14.9479 93.6979 15.0677 93.625 15.1094C93.5521 15.151 93.4792 15.2188 93.4062 15.3125C93.2188 15.6042 93.0781 15.7969 92.9844 15.8906C92.9323 15.9427 92.875 16 92.8125 16.0625C92.7604 16.125 92.7083 16.1875 92.6562 16.25C92.6562 16.2812 92.6302 16.375 92.5781 16.5312C92.526 16.6875 92.5 16.7812 92.5 16.8125C92.1771 17.3646 91.8646 17.7917 91.5625 18.0938C91.4479 18.2708 91.3281 18.4427 91.2031 18.6094C91.0885 18.776 90.974 18.9375 90.8594 19.0938C90.7448 19.25 90.6302 19.4115 90.5156 19.5781C90.401 19.7448 90.2917 19.9167 90.1875 20.0938C89.9792 20.4375 89.776 20.6979 89.5781 20.875C89.401 21.0312 89.2188 21.25 89.0312 21.5312C88.8438 21.7188 88.6562 21.9479 88.4688 22.2188C88.3854 22.3438 88.2917 22.4635 88.1875 22.5781C88.0938 22.6927 87.9896 22.8021 87.875 22.9062C87.7083 23.1354 87.5469 23.3594 87.3906 23.5781C87.2344 23.7969 87.0833 24.0312 86.9375 24.2812C86.8958 24.3646 86.8021 24.5417 86.6562 24.8125C86.5104 25.0833 86.4167 25.2604 86.375 25.3438C86.2812 25.5104 86.1979 25.7083 86.125 25.9375C86.0625 26.1562 85.9792 26.3438 85.875 26.5C85.7917 26.6458 85.7031 26.7917 85.6094 26.9375C85.526 27.0729 85.4375 27.2083 85.3438 27.3438C85.25 27.4792 85.1562 27.6198 85.0625 27.7656C84.9792 27.901 84.8958 28.0417 84.8125 28.1875C84.7188 28.4062 84.6615 28.5833 84.6406 28.7188C84.6094 28.8854 84.5417 29 84.4375 29.0625C84.3125 29.3438 84.1927 29.5677 84.0781 29.7344C83.9635 29.901 83.8438 30.1354 83.7188 30.4375C83.6562 30.5833 83.5573 30.6875 83.4219 30.75C83.2865 30.8125 83.1562 30.8125 83.0312 30.75C82.875 30.6875 82.7396 30.5625 82.625 30.375C82.5729 30.2812 82.5208 30.1979 82.4688 30.125C82.4167 30.0417 82.3646 29.9688 82.3125 29.9062C82.2604 29.7188 82.2031 29.5729 82.1406 29.4688C82.0677 29.3542 82.0312 29.2083 82.0312 29.0312C82.0104 28.9375 82.0156 28.8438 82.0469 28.75C82.0781 28.6562 82.0833 28.5625 82.0625 28.4688C82 28.2188 82 28.0156 82.0625 27.8594L82.2188 27.4375C82.2917 27.2188 82.3646 27.0833 82.4375 27.0312C82.4583 26.9583 82.4792 26.8906 82.5 26.8281C82.5208 26.7552 82.5365 26.6875 82.5469 26.625C82.5677 26.5625 82.5833 26.5 82.5938 26.4375C82.6146 26.3646 82.6354 26.2917 82.6562 26.2188C82.6771 26.1667 82.6979 26.1146 82.7188 26.0625C82.7396 26.0104 82.7604 25.9635 82.7812 25.9219C82.8021 25.8698 82.8229 25.8229 82.8438 25.7812C82.8646 25.7292 82.8854 25.6771 82.9062 25.625L83.0156 25.3438C83.0365 25.3021 83.0521 25.2604 83.0625 25.2188C83.0833 25.1667 83.1042 25.1146 83.125 25.0625C83.1458 24.9583 83.1562 24.8958 83.1562 24.875C83.1562 24.8229 83.1771 24.7604 83.2188 24.6875C83.2396 24.5938 83.2604 24.5 83.2812 24.4062C83.3125 24.3125 83.349 24.224 83.3906 24.1406C83.4323 24.0573 83.4688 23.9688 83.5 23.875C83.5417 23.7708 83.5833 23.6667 83.625 23.5625C83.6771 23.4167 83.7604 23.1979 83.875 22.9062C84 22.6146 84.1198 22.3333 84.2344 22.0625C84.349 21.7917 84.4271 21.625 84.4688 21.5625C84.5104 21.4583 84.5625 21.3333 84.625 21.1875C84.6875 21.0417 84.75 20.9062 84.8125 20.7812C84.9271 20.5729 84.9948 20.4323 85.0156 20.3594C85.026 20.3281 85.0312 20.2812 85.0312 20.2188C84.9479 20.0729 84.9531 19.8802 85.0469 19.6406C85.1406 19.401 85.2396 19.1562 85.3438 18.9062C85.3958 18.7812 85.4375 18.6562 85.4688 18.5312C85.5104 18.3958 85.5417 18.2604 85.5625 18.125C85.6146 17.8438 85.6771 17.5833 85.75 17.3438C85.8021 17.1667 85.8594 16.9792 85.9219 16.7812C85.9948 16.5729 86.0677 16.3542 86.1406 16.125C86.2865 15.6979 86.3854 15.25 86.4375 14.7812C86.4375 14.6979 86.4375 14.6198 86.4375 14.5469C86.4479 14.4635 86.4583 14.3854 86.4688 14.3125C86.4896 14.1667 86.4271 14.0833 86.2812 14.0625C86.2396 13.9583 86.1979 13.8542 86.1562 13.75C86.1146 13.6458 86.0521 13.5625 85.9688 13.5C85.75 13.5 85.5885 13.5677 85.4844 13.7031C85.4323 13.776 85.375 13.8438 85.3125 13.9062C85.25 13.9688 85.1875 14.0312 85.125 14.0938C85.0104 14.25 84.8906 14.401 84.7656 14.5469C84.651 14.6823 84.526 14.8125 84.3906 14.9375C84.2552 15.0625 84.125 15.1979 84 15.3438C83.8854 15.4896 83.7708 15.6458 83.6562 15.8125C83.4271 16.0417 83.1771 16.3229 82.9062 16.6562C82.6354 16.9896 82.4167 17.2708 82.25 17.5C82.1979 17.6562 82.1146 17.7708 82 17.8438C81.8646 17.9271 81.7604 18.0208 81.6875 18.125C81.6354 18.1875 81.5781 18.2552 81.5156 18.3281C81.4531 18.401 81.3854 18.4792 81.3125 18.5625C81.2396 18.6458 81.1719 18.7292 81.1094 18.8125C81.0469 18.8958 80.9896 18.9792 80.9375 19.0625C80.8542 19.1667 80.7656 19.2708 80.6719 19.375C80.5781 19.4792 80.4792 19.5833 80.375 19.6875C80.3333 19.7396 80.2708 19.8281 80.1875 19.9531C80.1562 19.9948 80.1198 20.0417 80.0781 20.0938C80.0469 20.1458 80.0104 20.1979 79.9688 20.25C79.7708 20.4479 79.6458 20.5938 79.5938 20.6875C79.5312 20.8021 79.4479 20.8958 79.3438 20.9688C79.1979 21.25 79.0469 21.5208 78.8906 21.7812L78.4062 22.625C78.3229 22.6771 78.2604 22.75 78.2188 22.8438C78.1667 22.9688 78.1146 23.0625 78.0625 23.125C78.0104 23.375 77.9427 23.5625 77.8594 23.6875C77.7656 23.8229 77.6875 23.9792 77.625 24.1562C77.3125 24.6354 77.0521 25.0677 76.8438 25.4531C76.6354 25.8385 76.4271 26.2396 76.2188 26.6562C76.1146 26.8542 76.0521 26.9792 76.0312 27.0312C76.0208 27.0625 75.9896 27.1042 75.9375 27.1562C75.9062 27.2292 75.875 27.3021 75.8438 27.375C75.8125 27.4375 75.776 27.5 75.7344 27.5625C75.6927 27.625 75.6562 27.6875 75.625 27.75C75.5938 27.8125 75.5625 27.875 75.5312 27.9375C75.5 27.9792 75.474 28.0417 75.4531 28.125C75.4427 28.1875 75.4062 28.2396 75.3438 28.2812C75.1042 28.9688 74.8281 29.5885 74.5156 30.1406C74.1927 30.7135 73.9062 31.3333 73.6562 32C73.6042 32.0521 73.5729 32.1094 73.5625 32.1719C73.5521 32.2448 73.5208 32.3125 73.4688 32.375C73.2396 32.6042 73.0885 32.6979 73.0156 32.6562C72.9427 32.6146 72.8542 32.5938 72.75 32.5938C72.6667 32.5938 72.599 32.625 72.5469 32.6875C72.5052 32.75 72.4062 32.7812 72.25 32.7812C72.0625 32.7812 71.9479 32.8021 71.9062 32.8438C71.8646 32.8854 71.7812 32.9375 71.6562 33C71.4896 33.1042 71.3802 33.1667 71.3281 33.1875C71.276 33.2083 71.2292 33.1979 71.1875 33.1562C71.1771 33.2188 71.1354 33.25 71.0625 33.25C71.0104 33.25 70.9583 33.2917 70.9062 33.375C70.8646 33.3229 70.8125 33.3021 70.75 33.3125C70.6875 33.3333 70.625 33.3125 70.5625 33.25ZM100.656 29.5312C100.854 29.5729 101.042 29.5208 101.219 29.375C101.406 29.2188 101.583 29.0938 101.75 29C101.833 28.8958 101.932 28.7865 102.047 28.6719C102.161 28.5573 102.281 28.4583 102.406 28.375C102.552 28.1875 102.703 28.0052 102.859 27.8281C103.026 27.651 103.198 27.4792 103.375 27.3125C103.458 27.2083 103.542 27.1094 103.625 27.0156C103.708 26.9115 103.792 26.8125 103.875 26.7188C103.958 26.625 104.042 26.5312 104.125 26.4375C104.208 26.3333 104.292 26.2292 104.375 26.125C104.458 26.0104 104.542 25.875 104.625 25.7188C104.656 25.6562 104.688 25.5938 104.719 25.5312C104.76 25.4688 104.802 25.4062 104.844 25.3438C104.958 25.1562 105.078 24.9896 105.203 24.8438C105.339 24.6771 105.438 24.4792 105.5 24.25C105.583 24.1146 105.693 24.0104 105.828 23.9375C105.964 23.8646 106.073 23.7604 106.156 23.625C106.208 23.5625 106.26 23.4688 106.312 23.3438C106.354 23.2396 106.417 23.1562 106.5 23.0938C106.583 23.0312 106.63 22.9792 106.641 22.9375C106.661 22.8854 106.688 22.8438 106.719 22.8125C106.781 22.6979 106.859 22.6042 106.953 22.5312C107.057 22.4375 107.146 22.3438 107.219 22.25C107.479 22.0417 107.667 21.8802 107.781 21.7656C107.896 21.651 108.052 21.5312 108.25 21.4062C108.625 21.2812 109.005 21.2396 109.391 21.2812C109.776 21.3229 110.052 21.4583 110.219 21.6875C110.229 21.8229 110.245 21.9583 110.266 22.0938C110.286 22.2188 110.307 22.3385 110.328 22.4531C110.38 22.7031 110.344 23.0104 110.219 23.375C110.135 23.5833 110.031 23.7917 109.906 24C109.792 24.1875 109.698 24.3958 109.625 24.625L109.5 24.8125C109.438 24.8958 109.396 24.9479 109.375 24.9688C109.177 25.5312 108.958 26.0781 108.719 26.6094C108.604 26.8698 108.49 27.1354 108.375 27.4062C108.26 27.6771 108.146 27.9479 108.031 28.2188C108.583 27.9479 108.979 27.7292 109.219 27.5625C109.354 27.4688 109.495 27.3802 109.641 27.2969C109.786 27.2031 109.938 27.1146 110.094 27.0312L110.656 26.6562C110.75 26.5938 110.844 26.5312 110.938 26.4688C111.042 26.4062 111.146 26.3438 111.25 26.2812C111.417 26.0729 111.604 25.901 111.812 25.7656C112.021 25.6302 112.24 25.4896 112.469 25.3438C112.615 25.1979 112.76 25.0781 112.906 24.9844C113.052 24.8906 113.208 24.7917 113.375 24.6875C113.427 24.6458 113.479 24.6042 113.531 24.5625C113.583 24.5208 113.63 24.4792 113.672 24.4375C113.797 24.3333 113.896 24.2604 113.969 24.2188L114.203 23.9688C114.307 23.8646 114.396 23.7917 114.469 23.75C114.656 23.6771 114.844 23.5833 115.031 23.4688C115.135 23.4062 115.214 23.3542 115.266 23.3125C115.339 23.25 115.427 23.1979 115.531 23.1562L115.75 22.8594C115.833 22.7344 115.948 22.6979 116.094 22.75C116.146 22.6875 116.224 22.6562 116.328 22.6562C116.453 22.6562 116.542 22.6771 116.594 22.7188C116.594 22.7917 116.609 22.8542 116.641 22.9062C116.672 22.9583 116.667 23.0312 116.625 23.125C116.521 23.1979 116.427 23.276 116.344 23.3594C116.281 23.4219 116.177 23.4792 116.031 23.5312C115.771 23.8125 115.536 24.0208 115.328 24.1562C115.13 24.2812 114.969 24.4583 114.844 24.6875C114.49 25.0417 114.125 25.3958 113.75 25.75C113.375 26.1042 113 26.4479 112.625 26.7812C112.51 26.7812 112.396 26.8229 112.281 26.9062C112.167 26.9896 112.062 27.0104 111.969 26.9688C111.844 26.9167 111.74 27 111.656 27.2188C111.115 27.7917 110.51 28.3021 109.844 28.75C109.438 29.1771 108.969 29.5573 108.438 29.8906C107.896 30.2344 107.427 30.6042 107.031 31C106.99 31.4062 106.88 31.8073 106.703 32.2031C106.526 32.599 106.385 32.9792 106.281 33.3438C106.198 33.5208 106.125 33.6875 106.062 33.8438C106.01 34 105.964 34.1458 105.922 34.2812C105.839 34.5625 105.729 34.8229 105.594 35.0625C105.531 35.4167 105.427 35.7448 105.281 36.0469C105.135 36.349 104.979 36.6458 104.812 36.9375C104.76 37.1875 104.656 37.4062 104.5 37.5938C104.354 37.7708 104.219 38 104.094 38.2812C104.042 38.3958 103.99 38.4948 103.938 38.5781C103.885 38.6615 103.833 38.7604 103.781 38.875C103.719 38.9792 103.667 39.0833 103.625 39.1875C103.583 39.2917 103.531 39.3958 103.469 39.5L103.344 39.6406C103.323 39.6615 103.302 39.6823 103.281 39.7031C103.26 39.7344 103.24 39.7604 103.219 39.7812L102.844 40.4375C102.667 40.8125 102.453 41.1094 102.203 41.3281C102.068 41.4427 101.932 41.5677 101.797 41.7031C101.661 41.8385 101.521 41.9792 101.375 42.125C101.281 42.2188 101.193 42.3229 101.109 42.4375C101.036 42.5417 100.948 42.6458 100.844 42.75C100.708 42.8854 100.604 42.9844 100.531 43.0469C100.479 43.0885 100.427 43.1354 100.375 43.1875C100.323 43.25 100.271 43.3125 100.219 43.375C100.052 43.4375 99.9167 43.5365 99.8125 43.6719C99.7083 43.8073 99.6042 43.9479 99.5 44.0938C99.3958 44.1562 99.3281 44.2031 99.2969 44.2344C99.2656 44.2656 99.1979 44.3125 99.0938 44.375C98.9479 44.4271 98.8438 44.474 98.7812 44.5156C98.7083 44.5677 98.6667 44.5938 98.6562 44.5938C98.5208 44.6667 98.3646 44.7135 98.1875 44.7344C98.0104 44.7552 97.8646 44.8125 97.75 44.9062C97.5417 44.9062 97.3906 44.8646 97.2969 44.7812C97.2031 44.6979 97.1146 44.6042 97.0312 44.5C96.8854 44.2292 96.8385 43.9479 96.8906 43.6562C96.9323 43.3646 97 43.0573 97.0938 42.7344C97.1875 42.4115 97.2188 42.0729 97.1875 41.7188C97.3021 41.3854 97.3646 41.1042 97.375 40.875C97.3854 40.6667 97.4271 40.4583 97.5 40.25C97.6562 39.9896 97.7396 39.8229 97.75 39.75C97.7604 39.6562 97.8229 39.5833 97.9375 39.5312C97.9583 39.3958 97.9896 39.2917 98.0312 39.2188C98.0833 39.1354 98.1146 39.0417 98.125 38.9375C98.1875 38.8958 98.2396 38.8438 98.2812 38.7812C98.3229 38.7292 98.3854 38.6771 98.4688 38.625C98.5729 38.4167 98.6667 38.224 98.75 38.0469C98.8333 37.8698 98.901 37.7083 98.9531 37.5625C99.0052 37.4167 99.0625 37.2708 99.125 37.125C99.1979 36.9792 99.2708 36.8333 99.3438 36.6875C99.375 36.6042 99.401 36.5208 99.4219 36.4375C99.4531 36.3646 99.4792 36.2917 99.5 36.2188C99.5208 36.1458 99.5417 36.0729 99.5625 36C99.5938 35.9375 99.625 35.875 99.6562 35.8125C99.75 35.6042 99.8906 35.375 100.078 35.125L100.594 34.4375C100.667 34.3438 100.729 34.2604 100.781 34.1875C100.833 34.125 100.87 34.0729 100.891 34.0312C100.953 33.9271 101 33.8542 101.031 33.8125C101.208 33.6875 101.286 33.6094 101.266 33.5781C101.255 33.5469 101.26 33.5312 101.281 33.5312C101.562 33.25 101.833 33 102.094 32.7812C102.219 32.6354 102.344 32.5 102.469 32.375C102.594 32.25 102.74 32.1354 102.906 32.0312C103.031 31.8854 103.156 31.75 103.281 31.625C103.406 31.5 103.552 31.3854 103.719 31.2812C103.885 31.1667 104.042 31.0469 104.188 30.9219C104.344 30.7865 104.49 30.651 104.625 30.5156C104.76 30.3698 104.901 30.2344 105.047 30.1094C105.193 29.9844 105.344 29.8646 105.5 29.75C105.552 29.4375 105.625 29.1771 105.719 28.9688C105.812 28.7708 105.885 28.5208 105.938 28.2188C106.021 28.0729 106.094 27.9062 106.156 27.7188C106.219 27.5312 106.271 27.3542 106.312 27.1875C106.375 27.125 106.422 27.0417 106.453 26.9375C106.495 26.7917 106.531 26.6771 106.562 26.5938C106.667 26.3958 106.719 26.2188 106.719 26.0625C106.74 25.8958 106.75 25.7865 106.75 25.7344C106.75 25.6302 106.771 25.5208 106.812 25.4062C106.833 25.2604 106.844 25.1146 106.844 24.9688C106.667 25.125 106.536 25.2708 106.453 25.4062C106.349 25.5729 106.24 25.7292 106.125 25.875C106.083 25.9167 106.036 25.9635 105.984 26.0156C105.932 26.0677 105.896 26.1458 105.875 26.25C105.75 26.3854 105.677 26.4583 105.656 26.4688C105.615 26.4792 105.594 26.5104 105.594 26.5625C105.354 26.8333 105.115 27.1094 104.875 27.3906C104.646 27.6615 104.411 27.9427 104.172 28.2344C103.943 28.526 103.708 28.8125 103.469 29.0938C103.229 29.3646 102.99 29.6354 102.75 29.9062C102.562 30.0729 102.365 30.2344 102.156 30.3906C101.948 30.5469 101.729 30.7083 101.5 30.875C101.417 30.9375 101.323 31.0104 101.219 31.0938C101.125 31.1667 101.021 31.2448 100.906 31.3281C100.667 31.5052 100.385 31.5417 100.062 31.4375C99.5833 31.625 99.1927 31.5885 98.8906 31.3281C98.5885 31.0677 98.3542 30.7812 98.1875 30.4688C98.1042 30.3438 98.0365 30.2344 97.9844 30.1406C97.9323 30.0469 97.9167 29.8854 97.9375 29.6562C97.9583 29.5417 97.9844 29.4271 98.0156 29.3125C98.0365 29.1875 98.0625 29.0677 98.0938 28.9531C98.125 28.8385 98.1562 28.7135 98.1875 28.5781C98.2083 28.4427 98.2292 28.3021 98.25 28.1562C98.2708 28.0417 98.2917 27.9271 98.3125 27.8125C98.3333 27.6979 98.349 27.5833 98.3594 27.4688C98.3906 27.25 98.4375 27.0104 98.5 26.75C98.5625 26.4583 98.6458 26.1771 98.75 25.9062C98.8542 25.6354 98.9792 25.4062 99.125 25.2188C99.1771 25.0625 99.2292 24.9115 99.2812 24.7656C99.3333 24.6094 99.3802 24.4635 99.4219 24.3281C99.474 24.1823 99.5208 24.0417 99.5625 23.9062C99.6146 23.7604 99.6667 23.6146 99.7188 23.4688C99.8229 23.1354 99.9479 22.8125 100.094 22.5C100.24 22.1875 100.396 21.8854 100.562 21.5938C100.667 21.4479 100.766 21.3177 100.859 21.2031C100.953 21.0885 101.052 20.9688 101.156 20.8438C101.365 20.8229 101.531 20.7865 101.656 20.7344C101.781 20.6823 101.906 20.625 102.031 20.5625C102.104 20.5417 102.177 20.5208 102.25 20.5C102.323 20.4792 102.396 20.4635 102.469 20.4531C102.542 20.4323 102.609 20.4167 102.672 20.4062C102.745 20.3854 102.812 20.3646 102.875 20.3438C103.104 20.2396 103.25 20.1927 103.312 20.2031C103.365 20.2135 103.417 20.1875 103.469 20.125C103.51 20.2292 103.573 20.2969 103.656 20.3281C103.75 20.3594 103.802 20.4271 103.812 20.5312C103.812 20.6771 103.755 20.8542 103.641 21.0625C103.536 21.2604 103.458 21.4167 103.406 21.5312C103.365 21.6042 103.323 21.6823 103.281 21.7656C103.24 21.849 103.198 21.9375 103.156 22.0312C103.073 22.2292 102.979 22.3958 102.875 22.5312C102.854 22.625 102.828 22.7188 102.797 22.8125C102.776 22.9062 102.745 22.9948 102.703 23.0781C102.661 23.1615 102.625 23.25 102.594 23.3438C102.562 23.4375 102.531 23.5312 102.5 23.625C102.292 23.8542 102.109 24.1146 101.953 24.4062C101.797 24.6979 101.635 25.0104 101.469 25.3438C101.427 25.4479 101.38 25.5417 101.328 25.625C101.286 25.6979 101.24 25.7917 101.188 25.9062C101.167 26 101.146 26.0938 101.125 26.1875C101.115 26.2812 101.099 26.375 101.078 26.4688C101.068 26.5625 101.052 26.6562 101.031 26.75C101.01 26.8438 100.99 26.9375 100.969 27.0312C100.885 27.25 100.823 27.4896 100.781 27.75C100.74 28.0417 100.708 28.3333 100.688 28.625C100.667 28.9167 100.656 29.2188 100.656 29.5312ZM105.125 32.2188H105.094C104.688 32.4792 104.323 32.776 104 33.1094C103.844 33.276 103.682 33.4375 103.516 33.5938C103.359 33.7604 103.198 33.9271 103.031 34.0938C102.958 34.1771 102.885 34.2552 102.812 34.3281C102.74 34.4115 102.667 34.4948 102.594 34.5781C102.438 34.7552 102.302 34.9271 102.188 35.0938C102.083 35.2812 101.974 35.474 101.859 35.6719C101.745 35.8698 101.604 36.0521 101.438 36.2188C101.177 36.4583 101.021 36.6406 100.969 36.7656C100.938 36.8385 100.906 36.901 100.875 36.9531C100.844 37.0156 100.812 37.0729 100.781 37.125L100.547 37.6094C100.505 37.6823 100.464 37.7552 100.422 37.8281C100.38 37.9115 100.333 37.9896 100.281 38.0625C100.188 38.2396 100.094 38.4479 100 38.6875C99.9062 38.9271 99.8125 39.1354 99.7188 39.3125C99.5729 39.6875 99.4583 40.0469 99.375 40.3906C99.2917 40.7344 99.2604 41.0833 99.2812 41.4375V41.6719C99.2812 41.7344 99.3125 41.7917 99.375 41.8438C99.4688 41.8438 99.625 41.8021 99.8438 41.7188C100.01 41.5729 100.172 41.4271 100.328 41.2812C100.484 41.1354 100.635 40.9792 100.781 40.8125C101.073 40.4792 101.385 40.1458 101.719 39.8125C102.01 39.4792 102.271 39.1198 102.5 38.7344C102.729 38.349 102.927 37.9167 103.094 37.4375C103.156 37.3229 103.214 37.2031 103.266 37.0781C103.318 36.9635 103.365 36.8385 103.406 36.7031C103.479 36.4531 103.583 36.2188 103.719 36C103.833 35.6667 103.948 35.3385 104.062 35.0156C104.188 34.6927 104.312 34.3802 104.438 34.0781C104.708 33.4323 104.938 32.8125 105.125 32.2188ZM113.125 33.25C113.167 33.0208 113.234 32.8229 113.328 32.6562C113.411 32.5 113.479 32.3229 113.531 32.125C113.729 31.6562 113.938 31.2708 114.156 30.9688C114.198 30.8021 114.255 30.6562 114.328 30.5312C114.401 30.4062 114.479 30.2917 114.562 30.1875C114.677 29.9062 114.776 29.6302 114.859 29.3594C114.943 29.0885 115.052 28.8229 115.188 28.5625C115.438 28.0833 115.693 27.5885 115.953 27.0781C116.214 26.5677 116.469 26.0625 116.719 25.5625C116.781 25.4479 116.844 25.3333 116.906 25.2188C116.969 25.0938 117.026 24.974 117.078 24.8594C117.13 24.7448 117.188 24.6302 117.25 24.5156C117.323 24.3906 117.396 24.2708 117.469 24.1562L117.594 23.6562C117.646 23.4688 117.698 23.3021 117.75 23.1562C117.729 23.0208 117.74 22.9219 117.781 22.8594L117.906 22.625L118 22.25C118.062 22 118.146 21.7969 118.25 21.6406C118.344 21.4948 118.427 21.3021 118.5 21.0625C118.562 21.0208 118.615 20.9583 118.656 20.875C118.698 20.7917 118.74 20.7083 118.781 20.625C118.865 20.3958 118.948 20.1719 119.031 19.9531C119.115 19.724 119.198 19.5 119.281 19.2812C119.365 19.0625 119.448 18.8385 119.531 18.6094C119.615 18.3802 119.698 18.1458 119.781 17.9062C119.896 17.6354 119.99 17.4323 120.062 17.2969C120.146 17.151 120.208 16.9792 120.25 16.7812C120.458 16.3021 120.667 15.8281 120.875 15.3594C121.083 14.8906 121.302 14.4167 121.531 13.9375C121.604 13.7604 121.677 13.5938 121.75 13.4375C121.823 13.2812 121.896 13.1354 121.969 13C122.042 12.8438 122.135 12.6823 122.25 12.5156C122.333 12.3906 122.406 12.2396 122.469 12.0625C122.521 11.9375 122.521 11.8021 122.469 11.6562C122.24 11.6667 122.036 11.7396 121.859 11.875C121.693 12 121.49 12.125 121.25 12.25C121.198 12.2812 121.141 12.3177 121.078 12.3594C121.026 12.3906 120.969 12.4271 120.906 12.4688C120.844 12.5625 120.786 12.6198 120.734 12.6406C120.693 12.6615 120.656 12.6875 120.625 12.7188C120.427 12.8333 120.234 12.9635 120.047 13.1094C119.87 13.2448 119.667 13.375 119.438 13.5C119.344 13.5833 119.245 13.6719 119.141 13.7656C119.047 13.849 118.948 13.9323 118.844 14.0156C118.74 14.099 118.635 14.1875 118.531 14.2812C118.438 14.3646 118.344 14.4479 118.25 14.5312C118.177 14.6667 118.042 14.7917 117.844 14.9062C117.74 15.0104 117.641 15.125 117.547 15.25C117.453 15.375 117.354 15.4896 117.25 15.5938C117.229 15.8646 117.167 16.1198 117.062 16.3594C116.958 16.599 116.854 16.8333 116.75 17.0625C116.688 17.2292 116.635 17.3854 116.594 17.5312C116.677 17.5729 116.755 17.5573 116.828 17.4844C116.901 17.4115 116.979 17.3854 117.062 17.4062C117.365 17.2812 117.615 17.125 117.812 16.9375C117.99 16.7708 118.208 16.5938 118.469 16.4062C118.677 16.2396 118.87 16.0469 119.047 15.8281C119.224 15.6094 119.396 15.3854 119.562 15.1562C119.656 15.0625 119.729 14.9844 119.781 14.9219C119.844 14.8594 119.885 14.8177 119.906 14.7969C119.958 14.7448 120.031 14.7188 120.125 14.7188C120.229 14.8125 120.286 14.8854 120.297 14.9375C120.307 14.9583 120.302 15 120.281 15.0625C120.083 15.5417 119.885 15.9323 119.688 16.2344C119.594 16.3698 119.5 16.5156 119.406 16.6719C119.323 16.8177 119.24 16.9688 119.156 17.125C118.938 17.3438 118.771 17.5573 118.656 17.7656C118.562 17.9427 118.438 18.125 118.281 18.3125C118.177 18.5 118.073 18.6823 117.969 18.8594C117.865 19.0365 117.729 19.1771 117.562 19.2812C117.188 19.3646 116.901 19.3594 116.703 19.2656L116.188 19.0312C116.146 19 116.062 18.974 115.938 18.9531C115.833 18.9323 115.75 18.8958 115.688 18.8438C115.583 18.7188 115.51 18.6302 115.469 18.5781C115.427 18.526 115.417 18.4583 115.438 18.375C115.312 18.25 115.25 18.0417 115.25 17.75C115.333 17.5312 115.37 17.4115 115.359 17.3906C115.349 17.3698 115.354 17.3333 115.375 17.2812C115.385 17.2396 115.411 17.1771 115.453 17.0938C115.495 17.0104 115.521 16.9479 115.531 16.9062C115.562 16.8542 115.589 16.7656 115.609 16.6406C115.63 16.5156 115.656 16.4167 115.688 16.3438C115.75 16.1562 115.865 15.9479 116.031 15.7188L116.172 15.375C116.203 15.2917 116.25 15.1771 116.312 15.0312L116.469 14.6562C116.521 14.4792 116.547 14.3906 116.547 14.3906C116.568 14.3698 116.583 14.3438 116.594 14.3125C116.667 14.0833 116.734 13.9167 116.797 13.8125C116.849 13.7292 116.875 13.6354 116.875 13.5312C117.385 12.7812 118.031 12.125 118.812 11.5625C119.104 11.3333 119.411 11.1042 119.734 10.875C120.057 10.6458 120.385 10.4271 120.719 10.2188C120.885 10.0521 121.083 9.89062 121.312 9.73438C121.542 9.57812 121.771 9.42708 122 9.28125C122.083 9.23958 122.167 9.19271 122.25 9.14062C122.333 9.08854 122.411 9.03646 122.484 8.98438C122.641 8.86979 122.812 8.79167 123 8.75C123.135 8.70833 123.271 8.71875 123.406 8.78125C123.615 8.90625 123.75 8.96354 123.812 8.95312C123.854 8.94271 123.906 8.94792 123.969 8.96875C124.094 9.01042 124.198 9.10417 124.281 9.25C124.365 9.39583 124.427 9.52083 124.469 9.625C124.531 9.75 124.599 9.89583 124.672 10.0625C124.745 10.2292 124.802 10.4271 124.844 10.6562L124.891 10.9688C124.901 11.0208 124.906 11.0729 124.906 11.125C124.917 11.1771 124.927 11.2292 124.938 11.2812C124.938 11.3542 124.948 11.4635 124.969 11.6094C124.99 11.7552 125 11.8542 125 11.9062C124.979 12.0938 124.917 12.2812 124.812 12.4688C124.708 12.6562 124.615 12.8229 124.531 12.9688C124.458 13.1146 124.385 13.2656 124.312 13.4219C124.25 13.5677 124.193 13.7135 124.141 13.8594C124.036 14.151 123.896 14.4479 123.719 14.75C123.594 14.9167 123.531 15.0156 123.531 15.0469C123.531 15.0781 123.521 15.1042 123.5 15.125C123.417 15.3542 123.354 15.5052 123.312 15.5781C123.292 15.6198 123.271 15.6667 123.25 15.7188C123.229 15.7708 123.208 15.8229 123.188 15.875L122.859 16.6406C122.807 16.776 122.75 16.9115 122.688 17.0469C122.635 17.1823 122.583 17.3229 122.531 17.4688C122.646 17.4479 122.74 17.3542 122.812 17.1875C122.927 17.1146 123.031 16.9792 123.125 16.7812C123.229 16.6771 123.312 16.5833 123.375 16.5C123.417 16.4479 123.453 16.3958 123.484 16.3438C123.526 16.2917 123.557 16.2448 123.578 16.2031C123.62 16.1198 123.688 16.0312 123.781 15.9375C124.01 15.7083 124.234 15.4583 124.453 15.1875C124.672 14.9167 124.885 14.6458 125.094 14.375C125.365 14.125 125.604 13.8281 125.812 13.4844C126.021 13.1406 126.208 12.7917 126.375 12.4375C126.5 12.3333 126.62 12.2292 126.734 12.125C126.849 12.0208 126.958 11.8958 127.062 11.75C127.323 11.5417 127.599 11.276 127.891 10.9531C128.193 10.6198 128.443 10.3698 128.641 10.2031C128.901 9.98438 129.188 9.8125 129.5 9.6875C129.812 9.5625 130.167 9.52083 130.562 9.5625C130.667 9.67708 130.76 9.8125 130.844 9.96875C130.917 10.1042 131.021 10.2292 131.156 10.3438C131.323 10.7604 131.464 11.2031 131.578 11.6719C131.693 12.1406 131.74 12.6771 131.719 13.2812C131.667 13.4688 131.599 13.6406 131.516 13.7969C131.432 13.9427 131.365 14.1354 131.312 14.375L131.203 14.6562C131.193 14.6979 131.177 14.7448 131.156 14.7969C131.135 14.8385 131.115 14.8854 131.094 14.9375C131.052 15.0625 130.995 15.1979 130.922 15.3438C130.859 15.4792 130.786 15.6302 130.703 15.7969C130.516 16.151 130.396 16.4583 130.344 16.7188C130.292 16.7708 130.255 16.849 130.234 16.9531L130.188 17.25C130.062 17.5104 130 17.724 130 17.8906C130 18.0677 129.979 18.2188 129.938 18.3438C129.833 18.7188 129.74 19.0938 129.656 19.4688C129.573 19.8438 129.49 20.2292 129.406 20.625C129.365 20.75 129.333 20.8646 129.312 20.9688C129.292 21.0729 129.271 21.1771 129.25 21.2812C129.208 21.375 129.172 21.5052 129.141 21.6719C129.109 21.8385 129.073 21.9688 129.031 22.0625C129.094 22.0521 129.156 21.9948 129.219 21.8906C129.302 21.7656 129.365 21.6771 129.406 21.625L129.734 21.125C129.786 21.0417 129.839 20.9583 129.891 20.875C129.953 20.7917 130.01 20.7083 130.062 20.625C130.146 20.5104 130.224 20.3958 130.297 20.2812C130.38 20.1667 130.458 20.0573 130.531 19.9531C130.688 19.7135 130.844 19.5 131 19.3125C131.208 19 131.37 18.75 131.484 18.5625C131.599 18.375 131.708 18.1771 131.812 17.9688C131.979 17.8021 132.115 17.6354 132.219 17.4688C132.271 17.3854 132.328 17.3021 132.391 17.2188C132.453 17.1354 132.521 17.0521 132.594 16.9688C132.719 16.7083 132.854 16.4583 133 16.2188C133.104 16.0417 133.188 15.875 133.25 15.7188C133.438 15.4688 133.625 15.2292 133.812 15C134 14.7708 134.198 14.5417 134.406 14.3125C134.5 14.2188 134.583 14.1354 134.656 14.0625C134.74 13.9896 134.807 13.9323 134.859 13.8906C134.911 13.8385 134.969 13.7917 135.031 13.75C135.094 13.6979 135.156 13.6458 135.219 13.5938C135.479 13.2604 135.792 12.9375 136.156 12.625C136.448 12.2188 136.797 11.849 137.203 11.5156C137.411 11.349 137.609 11.1875 137.797 11.0312C137.984 10.8646 138.167 10.6979 138.344 10.5312C138.573 10.4583 138.75 10.349 138.875 10.2031C139 10.0573 139.125 10.0417 139.25 10.1562C139.458 9.98958 139.646 9.93229 139.812 9.98438C139.979 10.0365 140.094 10.0833 140.156 10.125C140.417 10.3646 140.573 10.5312 140.625 10.625C140.667 10.6875 140.698 10.7604 140.719 10.8438C140.74 10.9271 140.771 11 140.812 11.0625L141 11.5312C141.021 11.5729 141.042 11.6198 141.062 11.6719C141.083 11.7135 141.104 11.7604 141.125 11.8125L141.25 12.125C141.333 12.2917 141.411 12.4896 141.484 12.7188C141.557 12.9479 141.583 13.1771 141.562 13.4062C141.552 13.4583 141.542 13.5156 141.531 13.5781C141.521 13.6302 141.51 13.6875 141.5 13.75C141.479 13.8854 141.448 14.0208 141.406 14.1562C141.375 14.2396 141.344 14.3177 141.312 14.3906C141.281 14.4635 141.255 14.5365 141.234 14.6094L141.094 15C141.073 15.0521 141.057 15.1042 141.047 15.1562C141.036 15.1979 141.026 15.2396 141.016 15.2812C140.995 15.3958 140.969 15.4792 140.938 15.5312C140.812 15.8542 140.646 16.2344 140.438 16.6719C140.333 16.8802 140.24 17.0729 140.156 17.25C140.083 17.4271 140.021 17.5833 139.969 17.7188C139.958 17.9062 139.885 18.0729 139.75 18.2188C139.698 18.4479 139.646 18.6146 139.594 18.7188C139.531 18.8542 139.469 19.0104 139.406 19.1875C139.375 19.2604 139.349 19.3594 139.328 19.4844C139.307 19.6094 139.281 19.7083 139.25 19.7812C139.188 19.9271 139.135 20.0365 139.094 20.1094C139.052 20.1823 139 20.2917 138.938 20.4375C138.896 20.6042 138.854 20.7656 138.812 20.9219C138.771 21.0781 138.708 21.2292 138.625 21.375C138.542 21.6042 138.458 21.8229 138.375 22.0312C138.292 22.2396 138.188 22.4271 138.062 22.5938C137.646 23.2708 137.302 24.0156 137.031 24.8281C136.771 25.6198 136.458 26.3854 136.094 27.125C136.083 27.2396 136.042 27.3646 135.969 27.5C135.938 27.5625 135.906 27.625 135.875 27.6875C135.854 27.75 135.833 27.8125 135.812 27.875C135.708 28 135.63 28.1667 135.578 28.375C135.536 28.5417 135.479 28.7396 135.406 28.9688C135.344 29.1771 135.354 29.349 135.438 29.4844C135.521 29.6198 135.594 29.7083 135.656 29.75C135.76 29.8125 135.911 29.8333 136.109 29.8125C136.307 29.7917 136.458 29.7604 136.562 29.7188C136.625 29.6979 136.693 29.6771 136.766 29.6562C136.839 29.6354 136.917 29.6146 137 29.5938C137.083 29.5729 137.161 29.5521 137.234 29.5312C137.307 29.5104 137.375 29.4896 137.438 29.4688C137.615 29.4062 137.755 29.3438 137.859 29.2812C137.911 29.25 137.969 29.2188 138.031 29.1875C138.094 29.1562 138.156 29.125 138.219 29.0938C138.333 29.0104 138.469 28.9479 138.625 28.9062C138.698 28.8333 138.76 28.7917 138.812 28.7812C138.865 28.7708 138.917 28.7396 138.969 28.6875C139.198 28.5 139.432 28.2708 139.672 28C139.891 27.75 140.135 27.5208 140.406 27.3125C140.771 26.75 141.25 26.2604 141.844 25.8438C142.073 25.9688 142.224 26.0833 142.297 26.1875C142.37 26.2917 142.438 26.3958 142.5 26.5C142.521 26.7083 142.49 26.8698 142.406 26.9844C142.323 27.099 142.25 27.2292 142.188 27.375C142.021 27.5417 141.854 27.7135 141.688 27.8906C141.531 28.0677 141.375 28.2448 141.219 28.4219C140.906 28.7865 140.583 29.125 140.25 29.4375C140.198 29.5521 140.146 29.6719 140.094 29.7969C140.042 29.9115 139.99 30.026 139.938 30.1406C139.823 30.3802 139.667 30.5625 139.469 30.6875C139.292 30.8125 139.125 30.9323 138.969 31.0469C138.823 31.1615 138.688 31.2708 138.562 31.375C138.312 31.5833 138.042 31.7396 137.75 31.8438C137.208 32.1667 136.667 32.5417 136.125 32.9688C135.906 33.1146 135.646 33.25 135.344 33.375C135.177 33.2812 135.094 33.2344 135.094 33.2344L135.031 33.1875C134.698 33.1354 134.453 33.0052 134.297 32.7969C134.151 32.5885 133.969 32.3854 133.75 32.1875C133.469 31.9062 133.26 31.5208 133.125 31.0312C133.042 30.7604 132.964 30.5 132.891 30.25C132.818 30 132.802 29.6979 132.844 29.3438C132.865 29.1146 132.917 28.8958 133 28.6875C133.083 28.4792 133.167 28.2812 133.25 28.0938C133.427 27.6979 133.609 27.2969 133.797 26.8906C133.995 26.474 134.198 26.0521 134.406 25.625C134.844 24.7396 135.188 23.9167 135.438 23.1562C135.5 23.0521 135.536 22.9635 135.547 22.8906L135.594 22.6875C135.677 22.4792 135.776 22.2656 135.891 22.0469C136.005 21.8281 136.115 21.625 136.219 21.4375C136.281 21.1562 136.37 20.8906 136.484 20.6406C136.536 20.526 136.589 20.4062 136.641 20.2812C136.703 20.1458 136.76 20.0104 136.812 19.875C136.938 19.6875 137.031 19.4688 137.094 19.2188C137.156 18.9792 137.26 18.7604 137.406 18.5625L137.781 17.375C137.917 16.9375 138.01 16.5208 138.062 16.125C138.083 15.9479 138.083 15.7917 138.062 15.6562C138.042 15.5104 138.042 15.3438 138.062 15.1562C138.073 14.9167 138.104 14.6458 138.156 14.3438C138.198 14.0521 138.198 13.75 138.156 13.4375C138.104 13.4792 138.052 13.5208 138 13.5625C137.948 13.5938 137.896 13.625 137.844 13.6562C137.792 13.6875 137.74 13.724 137.688 13.7656C137.635 13.7969 137.583 13.8333 137.531 13.875C137.417 13.9792 137.286 14.0781 137.141 14.1719C137.016 14.2552 136.896 14.3542 136.781 14.4688C136.719 14.5312 136.667 14.5781 136.625 14.6094C136.594 14.6406 136.573 14.6615 136.562 14.6719C136.552 14.6823 136.536 14.6927 136.516 14.7031C136.505 14.7135 136.49 14.7292 136.469 14.75C136.354 14.9479 136.26 15.0677 136.188 15.1094C136.115 15.151 136.042 15.2188 135.969 15.3125C135.781 15.6042 135.641 15.7969 135.547 15.8906C135.495 15.9427 135.438 16 135.375 16.0625C135.323 16.125 135.271 16.1875 135.219 16.25C135.219 16.2812 135.193 16.375 135.141 16.5312C135.089 16.6875 135.062 16.7812 135.062 16.8125C134.74 17.3646 134.427 17.7917 134.125 18.0938C134.01 18.2708 133.891 18.4427 133.766 18.6094C133.651 18.776 133.536 18.9375 133.422 19.0938C133.307 19.25 133.193 19.4115 133.078 19.5781C132.964 19.7448 132.854 19.9167 132.75 20.0938C132.542 20.4375 132.339 20.6979 132.141 20.875C131.964 21.0312 131.781 21.25 131.594 21.5312C131.406 21.7188 131.219 21.9479 131.031 22.2188C130.948 22.3438 130.854 22.4635 130.75 22.5781C130.656 22.6927 130.552 22.8021 130.438 22.9062C130.271 23.1354 130.109 23.3594 129.953 23.5781C129.797 23.7969 129.646 24.0312 129.5 24.2812C129.458 24.3646 129.365 24.5417 129.219 24.8125C129.073 25.0833 128.979 25.2604 128.938 25.3438C128.844 25.5104 128.76 25.7083 128.688 25.9375C128.625 26.1562 128.542 26.3438 128.438 26.5C128.354 26.6458 128.266 26.7917 128.172 26.9375C128.089 27.0729 128 27.2083 127.906 27.3438C127.812 27.4792 127.719 27.6198 127.625 27.7656C127.542 27.901 127.458 28.0417 127.375 28.1875C127.281 28.4062 127.224 28.5833 127.203 28.7188C127.172 28.8854 127.104 29 127 29.0625C126.875 29.3438 126.755 29.5677 126.641 29.7344C126.526 29.901 126.406 30.1354 126.281 30.4375C126.219 30.5833 126.12 30.6875 125.984 30.75C125.849 30.8125 125.719 30.8125 125.594 30.75C125.438 30.6875 125.302 30.5625 125.188 30.375C125.135 30.2812 125.083 30.1979 125.031 30.125C124.979 30.0417 124.927 29.9688 124.875 29.9062C124.823 29.7188 124.766 29.5729 124.703 29.4688C124.63 29.3542 124.594 29.2083 124.594 29.0312C124.573 28.9375 124.578 28.8438 124.609 28.75C124.641 28.6562 124.646 28.5625 124.625 28.4688C124.562 28.2188 124.562 28.0156 124.625 27.8594L124.781 27.4375C124.854 27.2188 124.927 27.0833 125 27.0312C125.021 26.9583 125.042 26.8906 125.062 26.8281C125.083 26.7552 125.099 26.6875 125.109 26.625C125.13 26.5625 125.146 26.5 125.156 26.4375C125.177 26.3646 125.198 26.2917 125.219 26.2188C125.24 26.1667 125.26 26.1146 125.281 26.0625C125.302 26.0104 125.323 25.9635 125.344 25.9219C125.365 25.8698 125.385 25.8229 125.406 25.7812C125.427 25.7292 125.448 25.6771 125.469 25.625L125.578 25.3438C125.599 25.3021 125.615 25.2604 125.625 25.2188C125.646 25.1667 125.667 25.1146 125.688 25.0625C125.708 24.9583 125.719 24.8958 125.719 24.875C125.719 24.8229 125.74 24.7604 125.781 24.6875C125.802 24.5938 125.823 24.5 125.844 24.4062C125.875 24.3125 125.911 24.224 125.953 24.1406C125.995 24.0573 126.031 23.9688 126.062 23.875C126.104 23.7708 126.146 23.6667 126.188 23.5625C126.24 23.4167 126.323 23.1979 126.438 22.9062C126.562 22.6146 126.682 22.3333 126.797 22.0625C126.911 21.7917 126.99 21.625 127.031 21.5625C127.073 21.4583 127.125 21.3333 127.188 21.1875C127.25 21.0417 127.312 20.9062 127.375 20.7812C127.49 20.5729 127.557 20.4323 127.578 20.3594C127.589 20.3281 127.594 20.2812 127.594 20.2188C127.51 20.0729 127.516 19.8802 127.609 19.6406C127.703 19.401 127.802 19.1562 127.906 18.9062C127.958 18.7812 128 18.6562 128.031 18.5312C128.073 18.3958 128.104 18.2604 128.125 18.125C128.177 17.8438 128.24 17.5833 128.312 17.3438C128.365 17.1667 128.422 16.9792 128.484 16.7812C128.557 16.5729 128.63 16.3542 128.703 16.125C128.849 15.6979 128.948 15.25 129 14.7812C129 14.6979 129 14.6198 129 14.5469C129.01 14.4635 129.021 14.3854 129.031 14.3125C129.052 14.1667 128.99 14.0833 128.844 14.0625C128.802 13.9583 128.76 13.8542 128.719 13.75C128.677 13.6458 128.615 13.5625 128.531 13.5C128.312 13.5 128.151 13.5677 128.047 13.7031C127.995 13.776 127.938 13.8438 127.875 13.9062C127.812 13.9688 127.75 14.0312 127.688 14.0938C127.573 14.25 127.453 14.401 127.328 14.5469C127.214 14.6823 127.089 14.8125 126.953 14.9375C126.818 15.0625 126.688 15.1979 126.562 15.3438C126.448 15.4896 126.333 15.6458 126.219 15.8125C125.99 16.0417 125.74 16.3229 125.469 16.6562C125.198 16.9896 124.979 17.2708 124.812 17.5C124.76 17.6562 124.677 17.7708 124.562 17.8438C124.427 17.9271 124.323 18.0208 124.25 18.125C124.198 18.1875 124.141 18.2552 124.078 18.3281C124.016 18.401 123.948 18.4792 123.875 18.5625C123.802 18.6458 123.734 18.7292 123.672 18.8125C123.609 18.8958 123.552 18.9792 123.5 19.0625C123.417 19.1667 123.328 19.2708 123.234 19.375C123.141 19.4792 123.042 19.5833 122.938 19.6875C122.896 19.7396 122.833 19.8281 122.75 19.9531C122.719 19.9948 122.682 20.0417 122.641 20.0938C122.609 20.1458 122.573 20.1979 122.531 20.25C122.333 20.4479 122.208 20.5938 122.156 20.6875C122.094 20.8021 122.01 20.8958 121.906 20.9688C121.76 21.25 121.609 21.5208 121.453 21.7812L120.969 22.625C120.885 22.6771 120.823 22.75 120.781 22.8438C120.729 22.9688 120.677 23.0625 120.625 23.125C120.573 23.375 120.505 23.5625 120.422 23.6875C120.328 23.8229 120.25 23.9792 120.188 24.1562C119.875 24.6354 119.615 25.0677 119.406 25.4531C119.198 25.8385 118.99 26.2396 118.781 26.6562C118.677 26.8542 118.615 26.9792 118.594 27.0312C118.583 27.0625 118.552 27.1042 118.5 27.1562C118.469 27.2292 118.438 27.3021 118.406 27.375C118.375 27.4375 118.339 27.5 118.297 27.5625C118.255 27.625 118.219 27.6875 118.188 27.75C118.156 27.8125 118.125 27.875 118.094 27.9375C118.062 27.9792 118.036 28.0417 118.016 28.125C118.005 28.1875 117.969 28.2396 117.906 28.2812C117.667 28.9688 117.391 29.5885 117.078 30.1406C116.755 30.7135 116.469 31.3333 116.219 32C116.167 32.0521 116.135 32.1094 116.125 32.1719C116.115 32.2448 116.083 32.3125 116.031 32.375C115.802 32.6042 115.651 32.6979 115.578 32.6562C115.505 32.6146 115.417 32.5938 115.312 32.5938C115.229 32.5938 115.161 32.625 115.109 32.6875C115.068 32.75 114.969 32.7812 114.812 32.7812C114.625 32.7812 114.51 32.8021 114.469 32.8438C114.427 32.8854 114.344 32.9375 114.219 33C114.052 33.1042 113.943 33.1667 113.891 33.1875C113.839 33.2083 113.792 33.1979 113.75 33.1562C113.74 33.2188 113.698 33.25 113.625 33.25C113.573 33.25 113.521 33.2917 113.469 33.375C113.427 33.3229 113.375 33.3021 113.312 33.3125C113.25 33.3333 113.188 33.3125 113.125 33.25ZM141.156 25.0938C141.292 25.0208 141.458 24.8646 141.656 24.625C141.854 24.375 142.047 24.1354 142.234 23.9062C142.422 23.6667 142.562 23.5312 142.656 23.5C142.719 23.3958 142.776 23.3073 142.828 23.2344C142.88 23.1615 142.958 23.0938 143.062 23.0312C143.229 22.7292 143.448 22.474 143.719 22.2656C144 22.0469 144.26 21.8125 144.5 21.5625C144.698 21.4792 144.896 21.3854 145.094 21.2812C145.302 21.1771 145.505 21.0573 145.703 20.9219C146.109 20.651 146.562 20.5104 147.062 20.5C147.292 20.6042 147.516 20.6354 147.734 20.5938C147.943 20.5521 148.146 20.6042 148.344 20.75C148.458 20.9479 148.552 21.0677 148.625 21.1094C148.698 21.151 148.76 21.2083 148.812 21.2812C148.896 21.5417 148.958 21.7135 149 21.7969C149.052 21.8802 149.083 21.9688 149.094 22.0625C149.104 22.2188 149.115 22.3542 149.125 22.4688C149.135 22.5729 149.146 22.6615 149.156 22.7344C149.167 22.8698 149.167 23 149.156 23.125C149.094 23.6562 148.99 24.1875 148.844 24.7188C148.823 24.7812 148.802 24.8438 148.781 24.9062C148.76 24.9688 148.74 25.0365 148.719 25.1094C148.677 25.2448 148.625 25.3646 148.562 25.4688C148.406 25.6667 148.297 25.8281 148.234 25.9531C148.141 26.1198 148.073 26.2292 148.031 26.2812C147.906 26.4062 147.786 26.5208 147.672 26.625C147.568 26.7292 147.469 26.8229 147.375 26.9062C147.281 26.9583 147.188 27.0156 147.094 27.0781C147 27.1302 146.906 27.1875 146.812 27.25C146.635 27.3646 146.427 27.4479 146.188 27.5L145.906 27.6719C145.812 27.7344 145.708 27.7708 145.594 27.7812C145.406 27.9167 145.198 28.026 144.969 28.1094C144.865 28.151 144.755 28.1927 144.641 28.2344C144.536 28.276 144.427 28.3229 144.312 28.375C144.156 28.4375 144.021 28.5104 143.906 28.5938C143.792 28.6771 143.646 28.7604 143.469 28.8438C143.375 28.875 143.224 28.9115 143.016 28.9531C142.818 28.9844 142.677 29.0208 142.594 29.0625C142.698 29.2708 142.74 29.5312 142.719 29.8438C142.708 30.1354 142.76 30.3958 142.875 30.625C143.146 30.6875 143.443 30.7344 143.766 30.7656C144.089 30.7969 144.396 30.7917 144.688 30.75C144.74 30.7396 144.792 30.724 144.844 30.7031C144.906 30.6823 144.969 30.6615 145.031 30.6406C145.094 30.6198 145.156 30.599 145.219 30.5781C145.281 30.5573 145.344 30.5417 145.406 30.5312C145.635 30.4896 145.859 30.4375 146.078 30.375C146.297 30.3125 146.49 30.2292 146.656 30.125C147.26 29.9167 147.844 29.6354 148.406 29.2812C148.969 28.9271 149.458 28.5417 149.875 28.125C150.125 27.9583 150.401 27.7292 150.703 27.4375C151.005 27.1458 151.24 26.875 151.406 26.625C151.719 26.2917 151.995 26.0312 152.234 25.8438C152.474 25.6562 152.698 25.5729 152.906 25.5938C153.073 25.5938 153.234 25.6927 153.391 25.8906C153.547 26.0885 153.531 26.3021 153.344 26.5312C153.146 26.6562 152.927 26.8438 152.688 27.0938C152.458 27.3438 152.219 27.5208 151.969 27.625C151.792 27.7396 151.557 27.9688 151.266 28.3125C150.984 28.6354 150.75 28.8854 150.562 29.0625C150.521 29.1042 150.474 29.151 150.422 29.2031C150.37 29.2552 150.307 29.3073 150.234 29.3594C150.099 29.4635 149.99 29.5729 149.906 29.6875C149.583 29.9583 149.271 30.1875 148.969 30.375C148.854 30.3333 148.76 30.3542 148.688 30.4375C148.594 30.5521 148.51 30.6354 148.438 30.6875C148.406 30.7083 148.375 30.7292 148.344 30.75C148.312 30.7708 148.276 30.7917 148.234 30.8125C148.193 30.8333 148.156 30.8542 148.125 30.875C148.094 30.8958 148.062 30.9167 148.031 30.9375C147.865 31.0833 147.682 31.2292 147.484 31.375C147.286 31.5208 147.083 31.6458 146.875 31.75C146.667 31.875 146.458 31.9896 146.25 32.0938C146.042 32.2083 145.833 32.3073 145.625 32.3906C145.417 32.474 145.208 32.5729 145 32.6875C144.802 32.8021 144.604 32.9271 144.406 33.0625L144.062 33.1094C144.01 33.1198 143.958 33.125 143.906 33.125C143.854 33.1354 143.802 33.1458 143.75 33.1562C143.635 33.1979 143.526 33.2188 143.422 33.2188C143.318 33.2188 143.188 33.1979 143.031 33.1562C142.344 32.9688 141.781 32.6354 141.344 32.1562C141.281 32.0938 141.214 32.0365 141.141 31.9844C141.078 31.9219 141.01 31.8646 140.938 31.8125C140.771 31.6875 140.656 31.5729 140.594 31.4688C140.5 31.3125 140.406 31.0677 140.312 30.7344C140.208 30.401 140.12 30.0625 140.047 29.7188C139.974 29.3646 139.938 29.0938 139.938 28.9062C140 28.7812 140.068 28.5677 140.141 28.2656C140.214 27.9531 140.276 27.6458 140.328 27.3438C140.38 27.0312 140.406 26.8125 140.406 26.6875C140.448 26.6458 140.531 26.5104 140.656 26.2812C140.771 26.0417 140.88 25.8021 140.984 25.5625C141.099 25.3125 141.156 25.1562 141.156 25.0938ZM146.188 23.0938C146.042 23.2812 145.896 23.4583 145.75 23.625C145.604 23.7917 145.438 23.9479 145.25 24.0938C145.125 24.3229 144.979 24.5312 144.812 24.7188C144.646 24.9062 144.479 25.0833 144.312 25.25C144.229 25.4167 144.135 25.5469 144.031 25.6406C143.927 25.7344 143.812 25.8333 143.688 25.9375C143.552 26.1667 143.385 26.3854 143.188 26.5938C142.99 26.8021 142.948 27.0417 143.062 27.3125C143.292 27.3542 143.521 27.3229 143.75 27.2188C143.979 27.1146 144.177 27.0208 144.344 26.9375C144.427 26.8854 144.51 26.8385 144.594 26.7969C144.688 26.7552 144.776 26.7135 144.859 26.6719C144.943 26.6302 145.026 26.5885 145.109 26.5469C145.193 26.5052 145.271 26.4583 145.344 26.4062L146.156 25.5938C146.281 25.4792 146.406 25.3438 146.531 25.1875C146.583 25.1146 146.635 25.0417 146.688 24.9688C146.75 24.8854 146.812 24.8021 146.875 24.7188C146.927 24.4896 147.01 24.276 147.125 24.0781C147.25 23.8698 147.302 23.6562 147.281 23.4375C147.271 23.3438 147.234 23.2344 147.172 23.1094C147.109 22.9844 147.073 22.8854 147.062 22.8125C146.844 22.8125 146.682 22.849 146.578 22.9219C146.526 22.9635 146.464 23 146.391 23.0312C146.328 23.0521 146.26 23.0729 146.188 23.0938ZM160.781 14.75C161.24 14.8229 161.635 14.8698 161.969 14.8906C162.312 14.9115 162.688 14.8854 163.094 14.8125L164.328 14.6406C164.661 14.599 165.062 14.5521 165.531 14.5C165.656 14.4896 165.786 14.4896 165.922 14.5C165.995 14.5104 166.062 14.5208 166.125 14.5312C166.188 14.5312 166.25 14.5312 166.312 14.5312C166.583 14.5312 166.849 14.5208 167.109 14.5C167.37 14.4792 167.615 14.4583 167.844 14.4375C167.885 14.4271 167.922 14.4167 167.953 14.4062C167.995 14.3958 168.031 14.3854 168.062 14.375C168.125 14.3542 168.188 14.3542 168.25 14.375C168.344 14.375 168.438 14.375 168.531 14.375C168.625 14.375 168.719 14.3698 168.812 14.3594C169 14.349 169.167 14.4167 169.312 14.5625C169.375 14.7708 169.396 14.8854 169.375 14.9062C169.344 14.9375 169.323 14.9688 169.312 15C169.292 15.2708 169.255 15.4062 169.203 15.4062C169.151 15.4062 169.125 15.4271 169.125 15.4688C168.958 15.5104 168.818 15.5469 168.703 15.5781C168.589 15.6094 168.5 15.6771 168.438 15.7812C168.083 15.8542 167.755 15.8698 167.453 15.8281C167.151 15.776 166.844 15.8229 166.531 15.9688C166.375 16.0417 166.224 16.1198 166.078 16.2031C165.932 16.2969 165.74 16.3021 165.5 16.2188C165.292 16.2188 165.052 16.2292 164.781 16.25C164.51 16.2708 164.25 16.2917 164 16.3125C163.646 16.3438 163.245 16.3802 162.797 16.4219C162.359 16.4531 162.021 16.474 161.781 16.4844C161.552 16.4948 161.224 16.5104 160.797 16.5312C160.37 16.5521 159.99 16.5625 159.656 16.5625C159.49 16.6979 159.38 16.875 159.328 17.0938C159.276 17.3021 159.167 17.4688 159 17.5938C158.812 18.0104 158.677 18.276 158.594 18.3906C158.5 18.5156 158.427 18.6771 158.375 18.875C158.083 19.25 157.818 19.6406 157.578 20.0469C157.359 20.4219 157.083 20.8021 156.75 21.1875C156.708 21.4167 156.63 21.6198 156.516 21.7969C156.411 21.9635 156.333 22.1979 156.281 22.5C156.062 22.7917 155.896 23.1354 155.781 23.5312C155.729 23.7188 155.667 23.9115 155.594 24.1094C155.531 24.3073 155.458 24.5104 155.375 24.7188C155.333 24.8854 155.286 25.0469 155.234 25.2031C155.182 25.3594 155.125 25.5208 155.062 25.6875C154.99 25.875 154.891 26.0677 154.766 26.2656C154.714 26.349 154.656 26.4427 154.594 26.5469C154.542 26.6406 154.49 26.7396 154.438 26.8438C154.396 26.8854 154.375 26.9427 154.375 27.0156C154.375 27.0677 154.365 27.125 154.344 27.1875C154.312 27.2604 154.281 27.3333 154.25 27.4062C154.219 27.4688 154.188 27.526 154.156 27.5781C154.115 27.651 154.062 27.7604 154 27.9062C153.969 27.9792 153.943 28.0885 153.922 28.2344C153.901 28.3802 153.875 28.4896 153.844 28.5625C153.833 28.5938 153.823 28.625 153.812 28.6562C153.802 28.6875 153.792 28.7135 153.781 28.7344C153.771 28.7552 153.76 28.7812 153.75 28.8125C153.74 28.8438 153.729 28.875 153.719 28.9062C153.656 29.1979 153.656 29.3958 153.719 29.5C153.781 29.6042 153.833 29.7083 153.875 29.8125C153.896 29.875 153.917 29.9323 153.938 29.9844C153.958 30.0365 153.979 30.0885 154 30.1406C154.052 30.2344 154.083 30.3333 154.094 30.4375C154.146 30.4583 154.198 30.4792 154.25 30.5C154.302 30.5208 154.349 30.5417 154.391 30.5625C154.474 30.6042 154.573 30.625 154.688 30.625C154.823 30.6458 154.958 30.5885 155.094 30.4531C155.24 30.3073 155.365 30.2292 155.469 30.2188C155.594 30.1771 155.734 30.1562 155.891 30.1562C156.026 30.1562 156.146 30.125 156.25 30.0625C156.312 30.0104 156.37 29.9583 156.422 29.9062C156.474 29.8542 156.521 29.8021 156.562 29.75C156.625 29.6562 156.74 29.5833 156.906 29.5312C157.24 29.4479 157.417 29.3802 157.438 29.3281C157.448 29.2865 157.521 29.2083 157.656 29.0938C157.729 29.0417 157.797 28.9896 157.859 28.9375C157.932 28.8854 157.995 28.8385 158.047 28.7969C158.13 28.724 158.271 28.625 158.469 28.5C158.677 28.3958 158.797 28.3333 158.828 28.3125C158.859 28.2917 158.948 28.2188 159.094 28.0938C159.198 28.0417 159.292 27.9896 159.375 27.9375C159.469 27.875 159.552 27.8125 159.625 27.75C159.74 27.6458 159.906 27.5312 160.125 27.4062C160.375 27.3021 160.51 27.2396 160.531 27.2188C160.562 27.1875 160.583 27.151 160.594 27.1094C160.604 27.0677 160.719 26.9792 160.938 26.8438C161.01 26.6875 161.104 26.5521 161.219 26.4375C161.271 26.3854 161.328 26.3281 161.391 26.2656C161.453 26.1927 161.521 26.1146 161.594 26.0312C161.729 25.875 161.859 25.75 161.984 25.6562C162.13 25.5417 162.25 25.4375 162.344 25.3438C162.385 25.3125 162.438 25.2656 162.5 25.2031C162.562 25.1406 162.635 25.1042 162.719 25.0938C162.781 25.0417 162.833 24.9948 162.875 24.9531C162.927 24.9115 162.974 24.8698 163.016 24.8281C163.057 24.7865 163.104 24.7396 163.156 24.6875C163.219 24.6354 163.292 24.5729 163.375 24.5L163.531 24.3438C163.604 24.2708 163.656 24.2292 163.688 24.2188C163.781 24.2188 163.849 24.25 163.891 24.3125C163.943 24.375 164.01 24.4062 164.094 24.4062C164.083 24.5417 164.073 24.651 164.062 24.7344C164.062 24.8177 164.062 24.8802 164.062 24.9219C164.062 25.0052 164.042 25.0833 164 25.1562C163.875 25.3542 163.734 25.4583 163.578 25.4688C163.422 25.4896 163.302 25.6042 163.219 25.8125C163.156 25.7708 163.078 25.7604 162.984 25.7812C162.891 25.8021 162.823 25.8333 162.781 25.875C162.823 25.9479 162.844 26.0208 162.844 26.0938C162.844 26.1354 162.854 26.2083 162.875 26.3125C162.49 26.6979 162.24 27 162.125 27.2188C161.865 27.4896 161.729 27.6406 161.719 27.6719L161.688 27.7188L161.438 27.9688C161.146 28.1979 160.927 28.4167 160.781 28.625C160.646 28.8229 160.427 29.0104 160.125 29.1875C159.896 29.3542 159.74 29.4792 159.656 29.5625C159.615 29.6042 159.562 29.6562 159.5 29.7188C159.438 29.7708 159.365 29.8333 159.281 29.9062C159.229 29.9583 159.151 30.0469 159.047 30.1719C158.943 30.2969 158.854 30.3854 158.781 30.4375C158.646 30.5417 158.505 30.6354 158.359 30.7188C158.245 30.7812 158.125 30.8854 158 31.0312C157.698 31.1667 157.474 31.3333 157.328 31.5312C157.193 31.7083 156.99 31.8854 156.719 32.0625C156.531 32.1875 156.276 32.3438 155.953 32.5312C155.63 32.7188 155.354 32.8542 155.125 32.9375C155.094 32.9479 155.062 32.9583 155.031 32.9688C155 32.9792 154.974 32.9896 154.953 33C154.932 33.0104 154.906 33.0208 154.875 33.0312C154.844 33.0417 154.812 33.0521 154.781 33.0625C154.615 32.9583 154.453 32.8542 154.297 32.75C154.141 32.6458 154.01 32.5 153.906 32.3125C153.708 32.1667 153.557 32.0625 153.453 32C153.328 31.9271 153.219 31.8438 153.125 31.75C153.021 31.5729 152.911 31.3958 152.797 31.2188C152.682 31.0417 152.557 30.8646 152.422 30.6875C152.151 30.3229 151.948 29.9271 151.812 29.5C151.781 29.4479 151.755 29.3594 151.734 29.2344L151.688 28.9375C151.667 28.8542 151.646 28.776 151.625 28.7031C151.604 28.6302 151.583 28.5625 151.562 28.5C151.521 28.3958 151.51 28.2396 151.531 28.0312C151.531 27.8854 151.552 27.75 151.594 27.625C151.615 27.5521 151.635 27.4792 151.656 27.4062C151.677 27.3229 151.698 27.2396 151.719 27.1562C151.76 27.0208 151.807 26.8906 151.859 26.7656C151.911 26.6302 151.964 26.5 152.016 26.375C152.141 26.0938 152.229 25.8229 152.281 25.5625C152.406 25.125 152.542 24.7083 152.688 24.3125C152.719 24.2396 152.745 24.1406 152.766 24.0156C152.776 23.9219 152.833 23.8542 152.938 23.8125C153.021 23.3958 153.156 22.9948 153.344 22.6094C153.531 22.224 153.719 21.8542 153.906 21.5C154.021 21.2812 154.13 21.0625 154.234 20.8438C154.339 20.6146 154.443 20.3854 154.547 20.1562C154.651 19.9271 154.755 19.7031 154.859 19.4844C154.964 19.2552 155.073 19.0312 155.188 18.8125C155.198 18.5833 155.281 18.375 155.438 18.1875C155.448 17.9792 155.531 17.7552 155.688 17.5156C155.844 17.276 155.948 17.0521 156 16.8438C155.771 16.7812 155.516 16.776 155.234 16.8281C154.953 16.8802 154.708 16.9271 154.5 16.9688C154.125 16.9792 153.729 16.9792 153.312 16.9688C153.24 16.9583 153.167 16.9479 153.094 16.9375C153.031 16.9167 152.964 16.901 152.891 16.8906C152.755 16.8594 152.625 16.8438 152.5 16.8438C152.312 16.8542 152.172 16.8385 152.078 16.7969C151.974 16.7448 151.875 16.7396 151.781 16.7812C151.49 16.5312 151.193 16.3125 150.891 16.125C150.578 15.9375 150.375 15.6979 150.281 15.4062C150.281 15.3438 150.312 15.2917 150.375 15.25C150.458 15.1875 150.51 15.1458 150.531 15.125C150.708 15.0729 150.896 15.0573 151.094 15.0781C151.292 15.0885 151.458 15.0521 151.594 14.9688C151.896 15.0104 152.203 14.9896 152.516 14.9062C152.797 14.8229 153.094 14.7917 153.406 14.8125C153.448 14.8125 153.51 14.8229 153.594 14.8438C153.677 14.8646 153.74 14.875 153.781 14.875C153.885 14.8854 153.974 14.8854 154.047 14.875C154.089 14.8646 154.13 14.8542 154.172 14.8438C154.214 14.8333 154.26 14.8229 154.312 14.8125C154.438 14.7917 154.573 14.7917 154.719 14.8125C154.865 14.8333 155.01 14.8333 155.156 14.8125C155.458 14.7917 155.786 14.8177 156.141 14.8906C156.526 14.9635 156.865 14.9479 157.156 14.8438C157.208 14.6979 157.26 14.5521 157.312 14.4062C157.375 14.25 157.443 14.099 157.516 13.9531C157.661 13.651 157.771 13.3542 157.844 13.0625C157.927 12.9375 158.01 12.7969 158.094 12.6406C158.177 12.4844 158.24 12.3333 158.281 12.1875L158.578 11.6875C158.62 11.625 158.661 11.5625 158.703 11.5C158.745 11.4375 158.792 11.375 158.844 11.3125C158.99 11.0104 159.099 10.724 159.172 10.4531C159.214 10.3073 159.255 10.1615 159.297 10.0156C159.349 9.85938 159.406 9.69792 159.469 9.53125C159.604 9.38542 159.74 9.22396 159.875 9.04688C160.01 8.86979 160.146 8.67708 160.281 8.46875C160.438 8.48958 160.557 8.44792 160.641 8.34375C160.734 8.23958 160.875 8.25 161.062 8.375C161.062 8.4375 161.089 8.49479 161.141 8.54688C161.193 8.59896 161.198 8.67708 161.156 8.78125C161.365 8.98958 161.5 9.17708 161.562 9.34375C161.604 9.51042 161.589 9.70312 161.516 9.92188C161.443 10.1406 161.458 10.3438 161.562 10.5312C161.604 10.625 161.615 10.724 161.594 10.8281C161.573 10.9427 161.583 11.0312 161.625 11.0938C161.677 11.2083 161.734 11.3125 161.797 11.4062C161.87 11.5104 161.906 11.6458 161.906 11.8125C161.906 11.875 161.891 11.9531 161.859 12.0469C161.828 12.1406 161.792 12.2396 161.75 12.3438C161.677 12.6562 161.615 12.875 161.562 13C161.542 13.0625 161.521 13.1302 161.5 13.2031C161.479 13.2656 161.458 13.3333 161.438 13.4062C161.292 13.5833 161.219 13.6927 161.219 13.7344C161.219 13.7656 161.208 13.8125 161.188 13.875C161.156 13.9375 161.125 14.0104 161.094 14.0938C161.062 14.1667 161.026 14.2448 160.984 14.3281C160.943 14.4115 160.906 14.4896 160.875 14.5625C160.844 14.6354 160.812 14.6979 160.781 14.75ZM161 25.0938C161.135 25.0208 161.302 24.8646 161.5 24.625C161.698 24.375 161.891 24.1354 162.078 23.9062C162.266 23.6667 162.406 23.5312 162.5 23.5C162.562 23.3958 162.62 23.3073 162.672 23.2344C162.724 23.1615 162.802 23.0938 162.906 23.0312C163.073 22.7292 163.292 22.474 163.562 22.2656C163.844 22.0469 164.104 21.8125 164.344 21.5625C164.542 21.4792 164.74 21.3854 164.938 21.2812C165.146 21.1771 165.349 21.0573 165.547 20.9219C165.953 20.651 166.406 20.5104 166.906 20.5C167.135 20.6042 167.359 20.6354 167.578 20.5938C167.786 20.5521 167.99 20.6042 168.188 20.75C168.302 20.9479 168.396 21.0677 168.469 21.1094C168.542 21.151 168.604 21.2083 168.656 21.2812C168.74 21.5417 168.802 21.7135 168.844 21.7969C168.896 21.8802 168.927 21.9688 168.938 22.0625C168.948 22.2188 168.958 22.3542 168.969 22.4688C168.979 22.5729 168.99 22.6615 169 22.7344C169.01 22.8698 169.01 23 169 23.125C168.938 23.6562 168.833 24.1875 168.688 24.7188C168.667 24.7812 168.646 24.8438 168.625 24.9062C168.604 24.9688 168.583 25.0365 168.562 25.1094C168.521 25.2448 168.469 25.3646 168.406 25.4688C168.25 25.6667 168.141 25.8281 168.078 25.9531C167.984 26.1198 167.917 26.2292 167.875 26.2812C167.75 26.4062 167.63 26.5208 167.516 26.625C167.411 26.7292 167.312 26.8229 167.219 26.9062C167.125 26.9583 167.031 27.0156 166.938 27.0781C166.844 27.1302 166.75 27.1875 166.656 27.25C166.479 27.3646 166.271 27.4479 166.031 27.5L165.75 27.6719C165.656 27.7344 165.552 27.7708 165.438 27.7812C165.25 27.9167 165.042 28.026 164.812 28.1094C164.708 28.151 164.599 28.1927 164.484 28.2344C164.38 28.276 164.271 28.3229 164.156 28.375C164 28.4375 163.865 28.5104 163.75 28.5938C163.635 28.6771 163.49 28.7604 163.312 28.8438C163.219 28.875 163.068 28.9115 162.859 28.9531C162.661 28.9844 162.521 29.0208 162.438 29.0625C162.542 29.2708 162.583 29.5312 162.562 29.8438C162.552 30.1354 162.604 30.3958 162.719 30.625C162.99 30.6875 163.286 30.7344 163.609 30.7656C163.932 30.7969 164.24 30.7917 164.531 30.75C164.583 30.7396 164.635 30.724 164.688 30.7031C164.75 30.6823 164.812 30.6615 164.875 30.6406C164.938 30.6198 165 30.599 165.062 30.5781C165.125 30.5573 165.188 30.5417 165.25 30.5312C165.479 30.4896 165.703 30.4375 165.922 30.375C166.141 30.3125 166.333 30.2292 166.5 30.125C167.104 29.9167 167.688 29.6354 168.25 29.2812C168.812 28.9271 169.302 28.5417 169.719 28.125C169.969 27.9583 170.245 27.7292 170.547 27.4375C170.849 27.1458 171.083 26.875 171.25 26.625C171.562 26.2917 171.839 26.0312 172.078 25.8438C172.318 25.6562 172.542 25.5729 172.75 25.5938C172.917 25.5938 173.078 25.6927 173.234 25.8906C173.391 26.0885 173.375 26.3021 173.188 26.5312C172.99 26.6562 172.771 26.8438 172.531 27.0938C172.302 27.3438 172.062 27.5208 171.812 27.625C171.635 27.7396 171.401 27.9688 171.109 28.3125C170.828 28.6354 170.594 28.8854 170.406 29.0625C170.365 29.1042 170.318 29.151 170.266 29.2031C170.214 29.2552 170.151 29.3073 170.078 29.3594C169.943 29.4635 169.833 29.5729 169.75 29.6875C169.427 29.9583 169.115 30.1875 168.812 30.375C168.698 30.3333 168.604 30.3542 168.531 30.4375C168.438 30.5521 168.354 30.6354 168.281 30.6875C168.25 30.7083 168.219 30.7292 168.188 30.75C168.156 30.7708 168.12 30.7917 168.078 30.8125C168.036 30.8333 168 30.8542 167.969 30.875C167.938 30.8958 167.906 30.9167 167.875 30.9375C167.708 31.0833 167.526 31.2292 167.328 31.375C167.13 31.5208 166.927 31.6458 166.719 31.75C166.51 31.875 166.302 31.9896 166.094 32.0938C165.885 32.2083 165.677 32.3073 165.469 32.3906C165.26 32.474 165.052 32.5729 164.844 32.6875C164.646 32.8021 164.448 32.9271 164.25 33.0625L163.906 33.1094C163.854 33.1198 163.802 33.125 163.75 33.125C163.698 33.1354 163.646 33.1458 163.594 33.1562C163.479 33.1979 163.37 33.2188 163.266 33.2188C163.161 33.2188 163.031 33.1979 162.875 33.1562C162.188 32.9688 161.625 32.6354 161.188 32.1562C161.125 32.0938 161.057 32.0365 160.984 31.9844C160.922 31.9219 160.854 31.8646 160.781 31.8125C160.615 31.6875 160.5 31.5729 160.438 31.4688C160.344 31.3125 160.25 31.0677 160.156 30.7344C160.052 30.401 159.964 30.0625 159.891 29.7188C159.818 29.3646 159.781 29.0938 159.781 28.9062C159.844 28.7812 159.911 28.5677 159.984 28.2656C160.057 27.9531 160.12 27.6458 160.172 27.3438C160.224 27.0312 160.25 26.8125 160.25 26.6875C160.292 26.6458 160.375 26.5104 160.5 26.2812C160.615 26.0417 160.724 25.8021 160.828 25.5625C160.943 25.3125 161 25.1562 161 25.0938ZM166.031 23.0938C165.885 23.2812 165.74 23.4583 165.594 23.625C165.448 23.7917 165.281 23.9479 165.094 24.0938C164.969 24.3229 164.823 24.5312 164.656 24.7188C164.49 24.9062 164.323 25.0833 164.156 25.25C164.073 25.4167 163.979 25.5469 163.875 25.6406C163.771 25.7344 163.656 25.8333 163.531 25.9375C163.396 26.1667 163.229 26.3854 163.031 26.5938C162.833 26.8021 162.792 27.0417 162.906 27.3125C163.135 27.3542 163.365 27.3229 163.594 27.2188C163.823 27.1146 164.021 27.0208 164.188 26.9375C164.271 26.8854 164.354 26.8385 164.438 26.7969C164.531 26.7552 164.62 26.7135 164.703 26.6719C164.786 26.6302 164.87 26.5885 164.953 26.5469C165.036 26.5052 165.115 26.4583 165.188 26.4062L166 25.5938C166.125 25.4792 166.25 25.3438 166.375 25.1875C166.427 25.1146 166.479 25.0417 166.531 24.9688C166.594 24.8854 166.656 24.8021 166.719 24.7188C166.771 24.4896 166.854 24.276 166.969 24.0781C167.094 23.8698 167.146 23.6562 167.125 23.4375C167.115 23.3438 167.078 23.2344 167.016 23.1094C166.953 22.9844 166.917 22.8854 166.906 22.8125C166.688 22.8125 166.526 22.849 166.422 22.9219C166.37 22.9635 166.307 23 166.234 23.0312C166.172 23.0521 166.104 23.0729 166.031 23.0938ZM186.625 22.9688C186.729 22.9792 186.797 23.0208 186.828 23.0938C186.859 23.1562 186.917 23.1875 187 23.1875C187.042 23.3854 187 23.526 186.875 23.6094C186.75 23.6823 186.708 23.8021 186.75 23.9688C186.562 24.0938 186.333 24.1719 186.062 24.2031C185.781 24.2344 185.573 24.3438 185.438 24.5312C185.073 24.7083 184.693 24.8177 184.297 24.8594C184.099 24.8802 183.891 24.9115 183.672 24.9531C183.464 24.9844 183.25 25.0208 183.031 25.0625C182.802 25.2188 182.661 25.3021 182.609 25.3125C182.536 25.3229 182.458 25.3542 182.375 25.4062C182.156 25.3229 181.938 25.2812 181.719 25.2812C181.5 25.2812 181.271 25.25 181.031 25.1875C180.917 25.2292 180.797 25.25 180.672 25.25C180.547 25.25 180.427 25.2708 180.312 25.3125C180.229 25.5 180.188 25.6875 180.188 25.875C180.188 26.0729 180.156 26.2604 180.094 26.4375L179.906 26.8125L179.859 27.1094C179.839 27.2344 179.812 27.3333 179.781 27.4062C179.74 27.4688 179.693 27.5417 179.641 27.625C179.589 27.7083 179.562 27.8021 179.562 27.9062C179.417 28.0938 179.312 28.2865 179.25 28.4844C179.188 28.7135 179.073 28.8958 178.906 29.0312C178.844 29.25 178.745 29.4167 178.609 29.5312C178.474 29.6562 178.344 29.8021 178.219 29.9688C177.99 30.2812 177.786 30.5521 177.609 30.7812C177.432 31.0104 177.198 31.2083 176.906 31.375C176.802 31.5417 176.677 31.6562 176.531 31.7188C176.427 31.8229 176.344 31.9271 176.281 32.0312L175.656 32.4062C175.406 32.5625 175.167 32.6667 174.938 32.7188C174.583 32.8021 174.24 32.7917 173.906 32.6875C173.573 32.5833 173.26 32.4375 172.969 32.25C172.771 32.2708 172.62 32.2344 172.516 32.1406C172.411 32.0573 172.271 31.9896 172.094 31.9375C171.865 31.7292 171.615 31.5417 171.344 31.375C171.062 31.1979 170.865 30.9688 170.75 30.6875L170.609 30C170.568 29.7917 170.521 29.5833 170.469 29.375C170.427 29.1979 170.422 29 170.453 28.7812C170.484 28.5938 170.49 28.3854 170.469 28.1562C170.469 28.0417 170.469 27.9375 170.469 27.8438C170.469 27.7396 170.464 27.651 170.453 27.5781C170.443 27.4219 170.49 27.2292 170.594 27C170.656 26.8646 170.708 26.7396 170.75 26.625C170.792 26.5104 170.823 26.4115 170.844 26.3281C170.865 26.2448 170.885 26.1667 170.906 26.0938C170.927 26.0104 170.948 25.9375 170.969 25.875C171 25.8229 171.031 25.7708 171.062 25.7188C171.094 25.6562 171.125 25.5938 171.156 25.5312C171.188 25.4688 171.219 25.4115 171.25 25.3594C171.292 25.2969 171.333 25.2396 171.375 25.1875C171.5 25 171.646 24.8125 171.812 24.625C171.979 24.4375 172.146 24.2604 172.312 24.0938C172.427 23.9375 172.542 23.8021 172.656 23.6875C172.844 23.5 173.021 23.3438 173.188 23.2188C173.354 23.0938 173.542 22.9271 173.75 22.7188C173.792 22.6562 173.844 22.6042 173.906 22.5625L174.094 22.4375C174.302 22.3125 174.495 22.2083 174.672 22.125C174.849 22.0417 175.052 21.9479 175.281 21.8438C175.479 21.75 175.641 21.6927 175.766 21.6719C175.849 21.651 175.932 21.6354 176.016 21.625C176.109 21.6042 176.208 21.5833 176.312 21.5625H176.688C176.802 21.5625 176.906 21.5417 177 21.5C176.938 21.3333 177.01 21.2188 177.219 21.1562C177.427 21.0938 177.583 21.0729 177.688 21.0938C177.896 21.0938 178.062 21.1406 178.188 21.2344C178.312 21.3281 178.427 21.4375 178.531 21.5625C178.74 21.7083 178.969 21.9271 179.219 22.2188C179.271 22.2708 179.323 22.3021 179.375 22.3125C179.427 22.3229 179.479 22.3542 179.531 22.4062C179.615 22.5312 179.672 22.6458 179.703 22.75C179.734 22.875 179.802 22.9896 179.906 23.0938C179.969 23.1354 180.031 23.1875 180.094 23.25C180.156 23.3125 180.198 23.3958 180.219 23.5C180.438 23.5833 180.635 23.6458 180.812 23.6875C180.906 23.7292 181.016 23.7396 181.141 23.7188C181.255 23.6979 181.385 23.6979 181.531 23.7188C181.625 23.7292 181.719 23.7552 181.812 23.7969C181.896 23.8281 181.99 23.8438 182.094 23.8438C182.25 23.8333 182.422 23.7917 182.609 23.7188C182.786 23.6562 182.99 23.6458 183.219 23.6875C183.531 23.7604 183.859 23.7292 184.203 23.5938C184.547 23.4479 184.896 23.3542 185.25 23.3125C185.354 23.3125 185.427 23.3073 185.469 23.2969C185.51 23.2865 185.583 23.2812 185.688 23.2812C185.792 23.1979 185.927 23.1354 186.094 23.0938C186.26 23.0521 186.438 23.0104 186.625 22.9688ZM177.688 23.9062C177.479 23.7188 177.359 23.599 177.328 23.5469C177.286 23.4844 177.25 23.4479 177.219 23.4375C177.125 23.3438 177.021 23.2917 176.906 23.2812C176.844 23.2708 176.781 23.2604 176.719 23.25C176.667 23.2396 176.615 23.2292 176.562 23.2188C176.229 23.1562 175.953 23.1927 175.734 23.3281C175.63 23.401 175.521 23.4688 175.406 23.5312C175.302 23.5938 175.198 23.6562 175.094 23.7188C174.76 23.9271 174.469 24.1875 174.219 24.5C174.156 24.6042 174.089 24.7188 174.016 24.8438C173.943 24.9688 173.885 25.1042 173.844 25.25C173.76 25.4167 173.688 25.5677 173.625 25.7031C173.562 25.8385 173.51 26 173.469 26.1875C173.365 26.3854 173.302 26.5573 173.281 26.7031C173.271 26.776 173.26 26.8438 173.25 26.9062C173.24 26.9583 173.229 27.0104 173.219 27.0625C173.208 27.1667 173.193 27.276 173.172 27.3906C173.151 27.4948 173.13 27.6042 173.109 27.7188C173.057 27.9792 173.031 28.1771 173.031 28.3125C173.052 28.375 173.083 28.4583 173.125 28.5625C173.167 28.6667 173.208 28.7396 173.25 28.7812C173.292 28.8854 173.339 29 173.391 29.125C173.443 29.25 173.49 29.3438 173.531 29.4062C173.646 29.5521 173.781 29.6458 173.938 29.6875C174.021 29.7083 174.109 29.7344 174.203 29.7656C174.297 29.7865 174.396 29.8125 174.5 29.8438C174.729 29.9688 174.885 30.0208 174.969 30C175.073 29.9792 175.135 29.9688 175.156 29.9688C175.438 29.9167 175.677 29.8021 175.875 29.625C176.052 29.4583 176.26 29.3125 176.5 29.1875C176.583 29.0625 176.667 28.9323 176.75 28.7969C176.844 28.6615 176.943 28.526 177.047 28.3906C177.151 28.2448 177.245 28.1042 177.328 27.9688C177.422 27.8229 177.51 27.6771 177.594 27.5312C177.646 27.4688 177.698 27.375 177.75 27.25C177.771 27.1979 177.792 27.151 177.812 27.1094C177.833 27.0573 177.854 27.0104 177.875 26.9688C178.021 26.7917 178.089 26.6979 178.078 26.6875C178.068 26.6771 178.073 26.6458 178.094 26.5938C178.229 26.2812 178.292 26.0417 178.281 25.875C178.271 25.7083 178.271 25.5417 178.281 25.375C178.229 25.2604 178.182 25.1406 178.141 25.0156C178.099 24.8906 178.057 24.7604 178.016 24.625C177.932 24.3438 177.823 24.1042 177.688 23.9062Z" fill="white"/>
<path d="M30.9834 0.183102C19.0989 -1.36017 8.21918 7.02231 6.67632 18.9024C6.44552 20.6801 6.43663 22.4404 6.63307 24.1474L17.2589 25.5274C16.6756 23.8717 16.463 22.0617 16.7039 20.2048C17.5277 13.8619 23.3382 9.38693 29.681 10.2107C36.0243 11.0345 40.4948 16.8442 39.671 23.1874C39.627 23.5282 39.566 23.8665 39.4936 24.1951L49.5418 25.4999C49.602 25.1656 49.6542 24.8301 49.6982 24.4898C51.2415 12.6093 42.8639 1.72556 30.9834 0.183102Z" fill="#EA7F98"/>
<path d="M30.6333 2.8788C20.2403 1.52914 10.722 8.85946 9.37239 19.2525C9.13997 21.0427 9.16421 22.8075 9.42048 24.5092L17.2589 25.527C16.6756 23.8714 16.463 22.0613 16.7039 20.2044C17.5277 13.8615 23.3382 9.38655 29.681 10.2103C36.0243 11.0341 40.4948 16.8438 39.671 23.187C39.627 23.5278 39.5659 23.8661 39.4936 24.1947L46.8421 25.1491C46.9068 24.8152 46.9585 24.4797 47.003 24.1393C48.3526 13.7463 41.0223 4.22804 30.6333 2.8788Z" fill="#FFD79C"/>
<path d="M30.3334 5.18845C21.2157 4.00452 12.866 10.4347 11.682 19.5524C11.448 21.3552 11.5131 23.1292 11.8381 24.8233L17.2589 25.5274C16.6756 23.8718 16.463 22.0617 16.7039 20.2048C17.5277 13.862 23.3382 9.38696 29.681 10.2107C36.0243 11.0345 40.4948 16.8442 39.671 23.1874C39.627 23.5282 39.5659 23.8665 39.4936 24.1951L44.528 24.8487C44.5967 24.5157 44.6485 24.1802 44.6929 23.8394C45.8773 14.7213 39.4471 6.37197 30.3334 5.18845Z" fill="#AEE7F4"/>
<path d="M29.9886 7.84287C22.337 6.84932 15.33 12.2455 14.3365 19.8972C14.0996 21.721 14.2261 23.5112 14.6586 25.1895L17.2589 25.527C16.6756 23.8713 16.463 22.0613 16.7039 20.2044C17.5277 13.8615 23.3382 9.38654 29.681 10.2103C36.0243 11.0341 40.4948 16.8438 39.671 23.187C39.627 23.5278 39.5659 23.8661 39.4936 24.1947L41.8695 24.5031C41.9382 24.1701 41.9944 23.835 42.0385 23.4942C43.0324 15.843 37.6363 8.83601 29.9886 7.84287Z" fill="#8A7FD6"/>
<path d="M19.5394 24.1386C19.2904 23.0779 18.3438 22.2861 17.2072 22.2861C17.0633 22.2861 16.9238 22.3043 16.7868 22.3285C16.7868 22.3188 16.7896 22.3099 16.7896 22.3002C16.7896 21.3127 15.9893 20.5124 15.0018 20.5124C14.7779 20.5124 14.5661 20.5585 14.3684 20.6333C13.5697 19.2711 12.0943 18.3539 10.4011 18.3539C8.21392 18.3539 6.38689 19.8818 5.91963 21.9275C5.71186 21.8649 5.49562 21.8208 5.26724 21.8208C4.01541 21.8208 3.00044 22.8358 3.00044 24.0876C1.34359 24.0876 0 25.4308 0 27.0881C0 28.7449 1.34319 30.0885 3.00044 30.0885H19.0018C20.6587 30.0885 22.0019 28.7453 22.0019 27.0881C22.0023 25.6147 20.9396 24.392 19.5394 24.1386Z" fill="#94B8ED"/>
<path d="M26.723 27.3221C26.5229 26.4688 25.761 25.8314 24.8467 25.8314C24.7311 25.8314 24.6187 25.8459 24.5084 25.8653C24.5084 25.8576 24.5108 25.8504 24.5108 25.8423C24.5108 25.0476 23.8669 24.4037 23.0722 24.4037C22.8919 24.4037 22.7214 24.4405 22.5625 24.5011C21.9198 23.4053 20.7327 22.6672 19.3705 22.6672C17.6106 22.6672 16.1405 23.8968 15.7645 25.5428C15.5972 25.4922 15.4234 25.4571 15.2395 25.4571C14.2322 25.4571 13.4153 26.2736 13.4153 27.2813C12.0818 27.2813 11.0009 28.3621 11.0009 29.6956C11.0009 31.0291 12.0818 32.1099 13.4153 32.1099H26.2905C27.624 32.1099 28.7049 31.0291 28.7049 29.6956C28.7053 28.5096 27.85 27.5258 26.723 27.3221Z" fill="#B2CFF9"/>
<path d="M56.5993 23.2566C56.3503 22.1959 55.4036 21.4041 54.267 21.4041C54.1231 21.4041 53.9837 21.4223 53.8466 21.4465C53.8466 21.4368 53.8495 21.4279 53.8495 21.4182C53.8495 20.4307 53.0491 19.6304 52.0616 19.6304C51.8377 19.6304 51.6259 19.6765 51.4282 19.7513C50.6295 18.3891 49.1542 17.4719 47.4609 17.4719C45.2738 17.4719 43.4468 18.9998 42.9795 21.0455C42.7717 20.9829 42.5555 20.9388 42.3271 20.9388C41.0753 20.9388 40.0603 21.9538 40.0603 23.2056C38.4034 23.2056 37.0599 24.5488 37.0599 26.2061C37.0599 27.8629 38.403 29.2065 40.0603 29.2065H56.0617C57.7185 29.2065 59.0617 27.8633 59.0617 26.2061C59.0621 24.7327 57.9995 23.51 56.5993 23.2566Z" fill="#91D9E5"/>
<path d="M45.2612 24.2242C45.0802 23.4538 44.3926 22.8782 43.5668 22.8782C43.4621 22.8782 43.3611 22.8915 43.2616 22.9089C43.2616 22.902 43.2636 22.8952 43.2636 22.8883C43.2636 22.1708 42.682 21.5892 41.9645 21.5892C41.802 21.5892 41.648 21.6223 41.5045 21.6769C40.9241 20.6874 39.8521 20.0208 38.6221 20.0208C37.0328 20.0208 35.7053 21.1312 35.3662 22.6175C35.215 22.5718 35.0582 22.5399 34.8921 22.5399C33.9822 22.5399 33.2449 23.2771 33.2449 24.187C32.0412 24.187 31.065 25.1632 31.065 26.3669C31.065 27.5711 32.0412 28.5468 33.2449 28.5468H44.8712C46.0753 28.5468 47.0511 27.5707 47.0511 26.3669C47.0507 25.297 46.2786 24.4085 45.2612 24.2242Z" fill="#B6E9EF"/>
<path d="M51.2569 28.4874C51.0758 27.717 50.3882 27.1414 49.5624 27.1414C49.4577 27.1414 49.3567 27.1547 49.2572 27.1721C49.2572 27.1649 49.2593 27.1584 49.2593 27.1515C49.2593 26.434 48.6776 25.8524 47.9601 25.8524C47.7977 25.8524 47.6437 25.8855 47.5002 25.9401C46.9197 24.9506 45.8478 24.284 44.6177 24.284C43.0284 24.284 41.701 25.3944 41.3618 26.8807C41.2107 26.835 41.0538 26.8031 40.8877 26.8031C39.9782 26.8031 39.2406 27.5404 39.2406 28.4502C38.0368 28.4502 37.0607 29.4264 37.0607 30.6301C37.0607 31.8339 38.0368 32.81 39.2406 32.81H50.8668C52.071 32.81 53.0467 31.8339 53.0467 30.6301C53.0467 29.5602 52.2743 28.6717 51.2569 28.4874Z" fill="#CBEDEF"/>
</svg>
