<svg viewBox="0 0 167 113" fill="none" xmlns="http://www.w3.org/2000/svg">
<path d="M96.3834 25.675C83.5604 25.641 73.9144 31.43 67.0764 38.034L70.2834 43.242C75.9694 37.127 84.4434 31.304 96.1104 31.334C114.902 31.383 127.591 47.326 128.478 63.134L135.666 63.627C134.268 44.649 118.943 25.734 96.3834 25.675Z" fill="#9FD85D"/>
<path d="M96.1104 31.334C84.4424 31.303 75.9684 37.127 70.2834 43.242L75.1004 51.064L116.865 62.338L128.478 63.135C127.591 47.327 114.902 31.384 96.1104 31.334Z" fill="#FFD150"/>
<path d="M114.559 15.064C84.8265 2.44499 61.1345 28.388 61.1345 28.388L64.2395 33.43C71.8505 25.822 82.7645 18.985 97.4305 19.023C123.583 19.091 140.952 42.038 141.046 63.997L146.11 64.345C146.11 64.345 153.332 31.52 114.559 15.064Z" fill="#FF485E"/>
<path d="M97.4305 19.023C82.7645 18.985 71.8505 25.822 64.2395 33.43L67.0755 38.035C73.9135 31.431 83.5595 25.642 96.3825 25.676C118.943 25.735 134.267 44.65 135.665 63.629L141.046 63.998C140.952 42.038 123.583 19.091 97.4305 19.023Z" fill="#2EA1FF"/>
<path d="M150.046 85.636C150.046 85.636 152.47 79.603 150.963 72.989C150.541 74.388 149.846 75.777 148.764 77.072C143.127 83.819 133.903 83.392 133.903 83.392C133.903 83.392 140.736 96.203 124.337 98.424C107.938 100.645 104.864 90.054 104.864 90.054C104.864 90.054 102.216 98.951 94.2734 98.73C86.3304 98.509 85.5614 91.25 85.5614 91.25C85.5614 91.25 78.1304 102.78 60.6224 102.012C43.1134 101.243 42.8574 90.055 42.8574 90.055C42.8574 90.055 34.5724 96.461 29.0214 93.642C23.4694 90.823 29.0214 81.532 29.0214 81.532C29.0214 81.532 20.3094 93.385 12.6224 90.567C9.2064 89.314 7.5124 85.396 6.6834 81.429C2.6364 83.675 -1.29858 87.77 0.409417 95.008C3.61242 108.588 41.2794 112.688 71.3854 112.688C101.491 112.688 128.267 112.688 144.409 112.688C160.551 112.688 166.188 105.898 166.445 94.752C166.702 83.606 150.046 85.636 150.046 85.636Z" fill="#A5C4CE"/>
<path d="M48.0674 38.509C66.2594 37.804 76.3704 56.829 76.3704 56.829C76.3704 56.829 84.2904 45.491 96.7984 46.58C109.306 47.669 118.017 58.879 118.017 58.879C118.017 58.879 121.123 42.29 102.339 39.247C83.5554 36.203 78.9314 48.118 78.9314 48.118C78.9314 48.118 82.0604 27.363 57.8894 25.762C33.7184 24.161 18.5584 45.214 24.9214 60.502C24.9214 60.502 29.8754 39.213 48.0674 38.509Z" fill="white"/>
<path d="M141.59 61.014C126.601 52.601 118.017 58.879 118.017 58.879C118.017 58.879 109.305 47.669 96.7983 46.58C84.2903 45.491 76.3704 56.829 76.3704 56.829C76.3704 56.829 66.2594 37.804 48.0674 38.509C29.8754 39.214 24.9214 60.502 24.9214 60.502C24.9214 60.502 18.2164 57.347 13.8614 64.647C9.50536 71.947 13.8614 78.91 13.8614 78.91C13.8614 78.91 10.2293 79.46 6.68335 81.428C7.51335 85.395 9.20635 89.313 12.6223 90.566C20.3093 93.384 29.0214 81.531 29.0214 81.531C29.0214 81.531 23.4694 90.822 29.0214 93.641C34.5734 96.459 42.8574 90.054 42.8574 90.054C42.8574 90.054 43.1133 101.243 60.6223 102.011C78.1313 102.78 85.5613 91.249 85.5613 91.249C85.5613 91.249 86.3303 98.509 94.2733 98.729C102.216 98.95 104.864 90.053 104.864 90.053C104.864 90.053 107.939 100.644 124.337 98.423C140.736 96.202 133.903 83.391 133.903 83.391C133.903 83.391 143.127 83.818 148.764 77.071C149.846 75.777 150.541 74.388 150.963 72.988C150 68.76 147.436 64.295 141.59 61.014Z" fill="#D1EDEB"/>
<path d="M60.3825 68.138C57.3395 68.138 56.9555 71.02 56.0905 71.02C55.2255 71.02 56.4425 66.664 60.3825 66.664C63.8095 66.664 64.9945 71.02 63.9695 71.02C62.9445 71.02 63.0665 68.138 60.3825 68.138Z" fill="black"/>
<path d="M80.8835 67.64C77.8405 67.64 77.4564 70.523 76.5914 70.523C75.7264 70.523 76.9435 66.167 80.8835 66.167C84.3105 66.167 85.4955 70.523 84.4705 70.523C83.4455 70.523 83.5675 67.64 80.8835 67.64Z" fill="black"/>
<path d="M51.0295 76.497C51.0295 78.354 48.5485 79.86 45.4885 79.86C42.4285 79.86 39.9475 78.354 39.9475 76.497C39.9475 74.64 42.4285 73.134 45.4885 73.134C48.5495 73.134 51.0295 74.64 51.0295 76.497Z" fill="#FF888E"/>
<path d="M102.34 75.547C102.34 77.404 99.8586 78.91 96.7986 78.91C93.7386 78.91 91.2576 77.404 91.2576 75.547C91.2576 73.69 93.7386 72.184 96.7986 72.184C99.8586 72.184 102.34 73.69 102.34 75.547Z" fill="#FF888E"/>
<path d="M71.3747 81.605C69.1097 81.752 67.4507 82.875 66.3987 83.876C67.5277 84.973 69.2797 85.763 71.8577 85.617C73.7997 85.507 75.2757 84.934 76.3707 84.141C75.2897 82.832 73.6137 81.46 71.3747 81.605Z" fill="#FF888E"/>
<path d="M77.8656 77.258C75.7076 76.546 73.4755 79.046 70.6395 78.822C67.8035 78.598 64.9546 77.572 64.7206 79.67C64.5926 80.813 65.0495 82.566 66.3985 83.877C67.4505 82.876 69.1096 81.753 71.3746 81.606C73.6136 81.461 75.2896 82.833 76.3706 84.142C79.4946 81.878 79.4626 77.785 77.8656 77.258Z" fill="black"/>
<path d="M151.82 41.018C150.14 39.128 150.275 34.42 148.998 34.42C147.77 34.42 147.899 39.128 146.283 41.018C144.667 42.908 141.046 42.894 141.046 43.798C141.046 44.702 144.99 44.89 146.219 46.381C147.447 47.872 147.577 52.549 148.999 52.549C150.477 52.549 150.611 47.873 151.888 46.381C153.164 44.89 157.262 44.702 157.262 43.798C157.261 42.894 153.499 42.907 151.82 41.018Z" fill="#FFD150"/>
<path d="M85.2865 6.598C83.6065 4.708 83.7415 0 82.4645 0C81.2355 0 81.3655 4.708 79.7485 6.598C78.1325 8.488 74.5115 8.474 74.5115 9.378C74.5115 10.281 78.4555 10.47 79.6835 11.961C80.9125 13.452 81.0415 18.128 82.4635 18.128C83.9415 18.128 84.0755 13.452 85.3525 11.961C86.6285 10.47 90.7275 10.281 90.7275 9.378C90.7275 8.474 86.9655 8.487 85.2865 6.598Z" fill="#FFD150"/>
<path d="M144.777 20.867C143.822 19.792 143.898 17.114 143.172 17.114C142.473 17.114 142.547 19.792 141.627 20.867C140.707 21.942 138.648 21.934 138.648 22.448C138.648 22.962 140.892 23.069 141.591 23.917C142.29 24.765 142.363 27.426 143.173 27.426C144.014 27.426 144.09 24.766 144.816 23.917C145.542 23.069 147.874 22.962 147.874 22.448C147.873 21.935 145.732 21.942 144.777 20.867Z" fill="#FFD150"/>
<path d="M66.8844 10.554C65.9284 9.479 66.0054 6.80099 65.2794 6.80099C64.5804 6.80099 64.6544 9.479 63.7344 10.554C62.8154 11.629 60.7554 11.621 60.7554 12.135C60.7554 12.649 62.9994 12.756 63.6984 13.605C64.3974 14.453 64.4704 17.114 65.2804 17.114C66.1214 17.114 66.1974 14.454 66.9234 13.605C67.6494 12.757 69.9804 12.649 69.9804 12.135C69.9804 11.621 67.8394 11.629 66.8844 10.554Z" fill="#FFD150"/>
</svg>
