<svg width="36" height="36" viewBox="0 0 36 36" fill="none" xmlns="http://www.w3.org/2000/svg">
<path d="M3.85715 5C3.85715 4.28991 4.43279 3.71429 5.14286 3.71429H30.8571C31.5672 3.71429 32.1429 4.28991 32.1429 5C32.1429 5.71009 31.5672 6.28572 30.8571 6.28572H5.14286C4.43279 6.28572 3.85715 5.71009 3.85715 5Z" fill="white"/>
<path d="M3.85715 14C3.85715 13.2899 4.43279 12.7143 5.14286 12.7143H30.8571C31.5672 12.7143 32.1429 13.2899 32.1429 14C32.1429 14.7101 31.5672 15.2857 30.8571 15.2857H5.14286C4.43279 15.2857 3.85715 14.7101 3.85715 14Z" fill="white"/>
<path d="M5.14286 21.7143C4.43279 21.7143 3.85715 22.2899 3.85715 23C3.85715 23.7101 4.43279 24.2857 5.14286 24.2857H30.8571C31.5672 24.2857 32.1429 23.7101 32.1429 23C32.1429 22.2899 31.5672 21.7143 30.8571 21.7143H5.14286Z" fill="white"/>
</svg>
