<svg width="339" height="677" viewBox="0 0 339 677" fill="none" xmlns="http://www.w3.org/2000/svg">
<g opacity="0.2">
<path d="M259.738 40.2108C260.944 44.1487 261.954 48.1469 263.361 52.0235C263.426 52.2039 263.502 52.386 263.526 52.5737C263.542 52.6941 263.509 52.8913 263.43 52.9369C263.311 53.0061 263.116 53.019 262.983 52.9725C262.806 52.9111 262.647 52.7815 262.502 52.6565C262.403 52.5717 262.308 52.4833 262.216 52.3916C258.546 48.745 254.876 45.1003 251.315 41.3462C249.745 39.6916 248.099 38.1102 246.489 36.4936C246.221 36.2248 245.908 35.9806 245.89 35.5571C245.987 35.316 246.188 35.2269 246.408 35.192C246.76 35.1365 247.115 35.0745 247.47 35.0666C248.376 35.0462 249.283 35.0537 250.19 35.0504C250.192 35.0504 250.195 35.0504 250.197 35.0504C250.533 35.0491 250.748 34.6922 250.592 34.3943C249.675 32.6339 248.708 30.9648 247.704 29.2904C247.477 28.9114 247.053 28.6897 246.613 28.7359C246.561 28.7415 246.509 28.7471 246.457 28.7481C245.786 28.7626 245.099 28.8405 244.442 28.7389C240.812 28.1781 237.671 25.4132 236.599 21.8946C236.545 21.7168 236.472 21.5449 236.398 21.3414C236.175 21.4074 235.997 21.4743 235.814 21.5116C235.385 21.5987 234.955 21.7343 234.523 21.7402C231.951 21.7761 230.046 20.558 228.731 18.432C227.859 17.0199 227.776 15.4774 228.436 13.9228C229.096 12.3701 230.076 11.0616 231.45 10.0793C233.134 8.87493 234.999 8.37914 237.064 8.7763C237.162 8.7951 237.266 8.7786 237.34 8.7786C237.391 8.6714 237.427 8.62489 237.435 8.57409C237.487 8.22081 237.532 7.86654 237.582 7.51293C237.89 5.34376 239.619 3.63276 241.793 3.37283C243.667 3.14852 245.342 3.6697 246.769 4.88425C247.37 5.3962 247.858 6.0401 248.396 6.6256C248.514 6.75425 248.624 6.89048 248.786 7.08081C248.912 6.39602 249 5.79896 249.132 5.21181C249.746 2.49045 251.508 0.899861 254.14 0.198905C255.053 -0.0442028 255.992 -0.0382714 256.925 0.0771802C259.691 0.418917 261.853 1.69846 263.212 4.19023C263.848 5.35729 264.106 6.60185 263.912 7.9302C263.883 8.1301 263.908 8.33824 263.908 8.58003C264.306 8.46029 264.644 8.35177 264.987 8.25644C266.087 7.94934 267.208 7.82663 268.327 8.08689C270.509 8.59388 272.203 10.6156 272.435 12.9263C272.46 13.1661 272.491 13.4053 272.519 13.651C272.842 13.774 273.123 13.8793 273.403 13.9878C275.456 14.7857 276.695 16.3047 277.263 18.3964C277.497 19.2586 277.492 20.1358 277.258 21.0033C276.719 23.0026 275.461 24.4414 273.7 25.4515C271.469 26.7317 269.291 26.5476 267.193 25.1035C267.02 24.9844 266.849 24.8637 266.624 24.7073C266.252 25.6919 265.917 26.6221 265.19 27.3337C264.591 27.9205 263.856 28.2678 263.063 28.5931C262.768 28.7138 262.65 29.0694 262.816 29.3419C263.041 29.7133 263.254 30.0652 263.481 30.4073C264.867 32.491 266.141 34.6417 267.35 36.832C267.494 37.0946 267.63 37.371 267.713 37.6573C267.81 37.9895 267.652 38.2702 267.325 38.3725C267.039 38.4619 266.737 38.5117 266.438 38.5519C264.697 38.7874 262.951 38.9943 261.213 39.2582C260.883 39.3083 260.537 39.3245 260.202 39.404C259.847 39.4877 259.63 39.8565 259.735 40.2055C259.737 40.2072 259.737 40.2091 259.738 40.2108ZM236.423 20.3241C236.782 20.1268 236.988 20.2067 237.119 20.5794C237.2 20.8116 237.241 21.058 237.308 21.2962C238.298 24.8165 240.618 27.0332 244.127 27.8571C246.518 28.4186 248.638 27.6513 250.311 25.808C251.368 24.6443 251.983 23.2407 252.456 21.7639C252.506 21.6086 252.534 21.4427 252.608 21.3002C252.715 21.0947 253.044 21.0927 253.153 21.2982C253.228 21.4387 253.262 21.6033 253.3 21.7606C253.401 22.1872 253.471 22.6226 253.596 23.0418C254.389 25.7114 256.223 27.2947 258.868 27.968C260.343 28.3437 261.81 28.2216 263.231 27.6437C264.307 27.2057 265.071 26.4651 265.469 25.3654C265.591 25.0299 265.696 24.6888 265.81 24.3507C265.881 24.1429 265.935 23.9269 266.032 23.7316C266.181 23.4304 266.447 23.3638 266.713 23.5624C266.91 23.7095 267.079 23.8935 267.262 24.0598C268.304 25.0068 269.523 25.4986 270.937 25.4693C271.235 25.463 271.545 25.4314 271.829 25.3439C274.373 24.5632 276.037 22.9392 276.576 20.2835C276.651 19.9171 276.644 19.512 276.578 19.1422C276.165 16.821 274.85 15.2785 272.569 14.5951C271.714 14.3388 271.695 14.3381 271.628 13.4442C271.57 12.6667 271.429 11.9189 271.048 11.2315C270.231 9.75433 269.004 8.84887 267.298 8.78059C266.136 8.73407 265.005 8.99697 263.962 9.55246C263.817 9.62998 263.681 9.72597 263.535 9.80184C263.325 9.91102 263.111 9.92224 262.919 9.76324C262.735 9.61151 262.653 9.4159 262.719 9.17741C262.771 8.99236 262.829 8.80895 262.887 8.62555C263.342 7.17878 263.152 5.8049 262.415 4.49502C261.251 2.42679 259.436 1.33132 257.135 0.959899C256.062 0.787051 254.987 0.773518 253.954 1.11789C251.951 1.78619 250.527 3.06078 250.018 5.18014C249.852 5.87153 249.783 6.58634 249.669 7.28994C249.625 7.56009 249.595 7.83455 249.527 8.09877C249.461 8.35804 249.275 8.51439 249.004 8.56057C248.713 8.61005 248.536 8.4649 248.404 8.22971C248.31 8.06214 248.211 7.89689 248.112 7.73196C247.687 7.01913 247.158 6.39107 246.562 5.81513C245.486 4.77508 244.181 4.2496 242.71 4.15097C240.639 4.01177 238.816 5.46383 238.452 7.50963C238.381 7.91437 238.349 8.3267 238.3 8.7354C238.274 8.95343 238.265 9.1751 238.219 9.38885C238.156 9.68572 237.987 9.80118 237.682 9.77149C237.518 9.75566 237.357 9.71476 237.196 9.67649C235.318 9.22689 233.592 9.59633 232.027 10.6938C230.713 11.6161 229.774 12.8508 229.174 14.3434C228.718 15.4798 228.728 16.6181 229.291 17.6951C230.325 19.6756 232.003 20.7226 234.212 20.9274C235.015 20.936 235.736 20.7015 236.423 20.3241ZM248.352 28.7306C249.484 30.7098 250.616 32.6886 251.748 34.6671C251.789 34.7387 251.834 34.8083 251.871 34.8816C252.195 35.5109 251.993 35.8688 251.271 35.9177C250.997 35.9361 250.721 35.914 250.447 35.9127C249.567 35.9081 248.688 35.9025 247.809 35.9018C247.783 35.9018 247.758 35.9021 247.731 35.9031C247.497 35.9117 247.375 36.1957 247.54 36.364C247.54 36.3649 247.541 36.3659 247.543 36.3673C248.373 37.2084 249.219 38.0334 250.041 38.8825C251.933 40.8369 253.793 42.8217 255.703 44.7583C257.696 46.78 259.728 48.7644 261.755 50.7726C261.858 50.8749 262.021 50.7677 261.978 50.6292C261.977 50.6278 261.977 50.6268 261.977 50.6255C260.994 47.3084 259.999 43.995 259.009 40.6799C258.908 40.3381 258.814 39.9928 258.735 39.6451C258.598 39.0437 258.679 38.89 259.267 38.7874C260.809 38.5183 262.353 38.2626 263.899 38.0222C264.74 37.8912 265.588 37.8035 266.431 37.6916C266.432 37.6916 266.433 37.6913 266.434 37.6913C266.618 37.6659 266.718 37.4607 266.633 37.2965C265.268 34.6549 263.635 32.2206 262.066 29.7222C261.777 29.2637 261.271 28.984 260.729 28.9958C260.726 28.9958 260.723 28.9958 260.72 28.9962C258.586 29.0447 256.742 28.2837 255.114 26.9573C254.246 26.2501 253.646 25.3314 253.188 24.3164C253.133 24.196 253.077 24.0766 253.021 23.9588C252.92 23.7454 252.629 23.7401 252.506 23.9423C252.505 23.9437 252.505 23.945 252.504 23.9463C252.114 24.5754 251.763 25.2324 251.331 25.8315C250.664 26.7577 249.802 27.4795 248.782 28.0049C248.612 28.0927 248.447 28.1906 248.282 28.2873C248.275 28.2912 248.27 28.2975 248.264 28.3074C248.22 28.377 248.219 28.4654 248.255 28.5396C248.287 28.6066 248.318 28.6696 248.352 28.7306Z" fill="white"/>
</g>
<path opacity="0.2" d="M304.488 246.09C303.611 246.078 302.724 246.012 301.858 246.112C300.578 246.261 299.381 246.65 298.502 247.704C298.093 248.193 297.602 248.105 297.422 247.494C297.317 247.137 297.267 246.764 297.2 246.396C296.956 245.058 296.266 243.996 295.125 243.28C292.301 241.506 289.281 241.082 286.095 242.124C285.554 242.3 285.058 242.613 284.543 242.866C283.906 243.18 283.462 243.094 283.033 242.546C282.867 242.334 282.733 242.097 282.581 241.873C281.867 240.819 280.982 239.928 279.846 239.356C276.769 237.807 273.58 237.03 270.161 238.139C269.799 238.256 269.433 238.34 269.137 237.985C268.85 237.641 269.078 237.338 269.237 237.055C270.442 234.9 271.659 232.749 273.21 230.816C278.311 224.457 284.62 219.715 292.204 216.703C296.75 214.897 301.46 213.941 306.369 214.19C307.885 214.266 309.403 214.431 310.903 214.663C311.751 214.794 312.316 214.6 312.81 213.9C313.155 213.41 313.621 212.996 314.075 212.596C314.321 212.379 314.64 212.22 314.952 212.107C315.684 211.839 316.383 212.084 316.801 212.74C316.944 212.964 317.042 213.224 317.124 213.479C317.355 214.2 317.36 214.941 317.286 215.689C317.197 216.583 317.203 216.583 318.027 216.986C318.118 217.03 318.212 217.07 318.302 217.116C321.753 218.894 324.911 221.069 327.602 223.895C331.428 227.914 334.368 232.492 336.32 237.691C338.668 243.942 339.421 250.408 338.783 257.036C338.65 258.409 338.316 259.764 338.052 261.122C337.995 261.413 337.876 261.711 337.714 261.957C337.397 262.438 336.95 262.403 336.697 261.896C336.578 261.657 336.512 261.39 336.415 261.138C336.209 260.603 336.038 260.049 335.783 259.538C334.496 256.961 332.002 255.57 329.139 255.82C327.832 255.934 326.73 256.442 325.951 257.548C325.803 257.759 325.61 257.939 325.447 258.124C324.9 257.792 324.914 257.785 324.68 257.317C324.256 256.473 323.904 255.574 323.363 254.811C321.934 252.794 319.999 251.721 317.456 251.987C316.258 252.112 315.153 252.502 314.177 253.224C313.959 253.385 313.756 253.566 313.53 253.714C313.265 253.889 313.011 253.849 312.829 253.577C312.642 253.298 312.493 252.992 312.345 252.689C312.065 252.111 311.812 251.519 311.521 250.948C311.088 250.1 310.563 249.313 309.87 248.652C309.869 248.651 309.867 248.649 309.866 248.648C309.629 248.424 309.239 248.52 309.118 248.823C309.071 248.941 309.027 249.053 308.987 249.167C308.286 251.177 307.618 253.199 306.887 255.198C305.343 259.419 303.776 263.633 302.199 267.842C300.323 272.847 298.759 277.95 297.391 283.115C297.13 284.102 296.946 285.098 297.016 286.119C297.046 286.548 297.132 286.996 297.303 287.388C297.597 288.062 298.152 288.327 298.875 288.216C299.487 288.122 300.073 287.915 300.497 287.449C300.972 286.927 301.444 286.386 301.816 285.79C302.822 284.178 303.544 282.426 304.213 280.652C304.326 280.352 304.452 280.049 304.617 279.775C304.972 279.185 305.627 278.834 306.315 278.847C308.183 278.883 309.333 280.397 308.79 282.17C308.046 284.602 307.047 286.931 305.773 289.134C305.453 289.688 305.073 290.212 304.688 290.725C303.866 291.821 302.861 292.687 301.623 293.319C298.182 295.076 293.391 293.371 292.283 288.908C291.967 287.635 292 286.355 292.205 285.08C292.858 281.032 293.896 277.081 295.307 273.232C296.772 269.234 298.275 265.249 299.741 261.251C301.463 256.555 303.166 251.852 304.873 247.15C304.927 247.003 304.969 246.851 305.011 246.691C305.078 246.437 304.926 246.174 304.67 246.114C304.607 246.099 304.547 246.09 304.488 246.09ZM307.299 245.788C310.062 246.875 311.863 248.897 312.976 251.656C313.028 251.784 313.198 251.807 313.285 251.701C313.667 251.235 313.848 250.748 314.007 250.264C314.566 248.563 315.126 246.862 315.622 245.142C316.427 242.347 317.033 239.504 317.371 236.613C317.938 231.775 317.889 226.959 316.624 222.221C316.26 220.855 315.707 219.538 315.234 218.202C315.167 218.012 315.081 217.822 314.969 217.656C314.737 217.317 314.376 217.194 313.994 217.371C313.566 217.569 313.153 217.806 312.759 218.065C310.867 219.307 309.368 220.951 308.028 222.751C306.547 224.739 305.347 226.892 304.363 229.163C302.237 234.071 300.461 239.1 299.177 244.296C299.069 244.73 298.919 245.162 298.891 245.668C298.884 245.804 299.019 245.899 299.144 245.846C301.881 244.685 304.586 244.719 307.299 245.788ZM283.208 240.893C283.285 240.977 283.428 240.977 283.486 240.879C283.492 240.87 283.496 240.861 283.499 240.851C284.636 237.345 286.423 234.168 288.458 231.124C290.936 227.419 293.878 224.122 297.297 221.26C300.051 218.954 303.149 217.255 306.545 216.104C307.371 215.824 308.235 215.658 309.103 215.435C308.979 215.19 308.709 215.29 308.507 215.27C303.476 214.764 298.594 215.471 293.849 217.156C285.697 220.052 279 224.982 273.717 231.811C272.584 233.274 271.695 234.927 270.698 236.495C270.696 236.499 270.694 236.502 270.692 236.505C270.62 236.632 270.73 236.786 270.874 236.769C275.629 236.209 279.846 237.222 283.208 240.893ZM312.09 216.489C309.869 216.306 307.737 216.57 305.638 217.418C302.105 218.845 299 220.894 296.246 223.495C291.646 227.839 287.968 232.849 285.395 238.647C284.99 239.557 284.621 240.482 284.359 241.435C284.33 241.538 284.397 241.648 284.503 241.662C284.654 241.681 284.775 241.558 284.891 241.506C288.563 239.874 292.076 240.379 295.465 242.316C296.42 242.861 297.158 243.654 297.653 244.653C297.668 244.683 297.685 244.713 297.703 244.744C297.783 244.882 297.99 244.856 298.033 244.702C298.078 244.544 298.117 244.404 298.151 244.264C299.528 238.562 301.494 233.064 303.918 227.731C305.099 225.134 306.622 222.742 308.489 220.574C309.576 219.311 310.789 218.194 312.168 217.257C312.293 217.172 312.409 217.077 312.547 216.961C312.687 216.844 312.638 216.616 312.461 216.567C312.324 216.528 312.208 216.499 312.09 216.489ZM318.634 218.954C322.316 223.044 324.629 227.824 325.84 233.17C326.648 236.738 327.12 240.343 327.309 244C327.46 246.915 327.306 249.808 327.04 252.702C326.975 253.406 326.826 254.103 326.723 254.805C326.708 254.911 326.699 255.018 326.692 255.131C326.684 255.262 326.813 255.358 326.935 255.312C330.674 253.898 334.955 255.28 337.033 259.605C337.104 259.754 337.32 259.737 337.369 259.578C337.44 259.343 337.469 259.114 337.501 258.895C337.763 257.089 337.956 255.279 337.972 253.447C338.002 249.985 337.729 246.559 336.93 243.187C335.037 235.201 331.127 228.386 325.05 222.847C323.116 221.084 320.914 219.696 318.644 218.413C318.511 218.338 318.359 218.294 318.217 218.236C318.191 218.275 318.164 218.313 318.138 218.351C318.303 218.552 318.46 218.76 318.634 218.954ZM320.96 251.527C322.894 252.405 324.219 253.88 325.146 255.878C325.207 256.011 325.393 256.017 325.466 255.89C325.508 255.817 325.538 255.756 325.553 255.693C325.893 254.243 326.07 252.769 326.205 251.287C326.404 249.094 326.451 246.898 326.37 244.703C326.18 239.582 325.449 234.543 323.813 229.67C322.403 225.468 320.058 221.823 317.016 218.618C316.965 218.564 316.911 218.513 316.851 218.458C316.675 218.301 316.399 218.484 316.483 218.704C316.484 218.706 316.484 218.708 316.485 218.709C317.25 220.665 317.853 222.666 318.193 224.743C318.723 227.992 318.857 231.251 318.593 234.539C318.172 239.797 316.913 244.863 315.252 249.845C315.089 250.334 314.899 250.814 314.684 251.379C314.629 251.524 314.771 251.667 314.916 251.612C316.992 250.835 318.971 250.624 320.96 251.527ZM307.071 246.785C306.625 246.601 306.108 246.817 305.941 247.271C305.94 247.273 305.939 247.276 305.938 247.278C303.493 253.976 301.056 260.676 298.605 267.372C297.92 269.244 297.193 271.101 296.492 272.967C295.062 276.774 294.026 280.689 293.29 284.685C293.032 286.086 292.944 287.489 293.29 288.906C293.82 291.081 295.271 292.331 297.32 292.905C299.34 293.472 301.123 292.779 302.695 291.52C303.708 290.709 304.453 289.649 305.072 288.513C306.159 286.521 307.034 284.434 307.787 282.295C307.887 282.012 307.951 281.706 307.969 281.407C308.031 280.406 306.935 279.546 305.982 279.865C305.751 279.943 305.523 280.163 305.393 280.378C305.203 280.692 305.095 281.057 304.964 281.405C304.308 283.147 303.567 284.849 302.597 286.444C302.203 287.092 301.726 287.665 301.168 288.172C300.627 288.663 299.962 289.006 299.242 289.133C297.686 289.407 296.834 288.812 296.222 287.484C295.915 286.818 295.9 286.103 295.999 285.393C296.191 284.022 296.467 282.669 296.821 281.326C298.771 273.927 301.471 266.784 304.127 259.624C305.467 256.013 306.731 252.374 308.024 248.746C308.094 248.552 308.155 248.354 308.217 248.146C308.331 247.763 308.165 247.353 307.819 247.154C307.571 247.012 307.324 246.89 307.071 246.785ZM316.131 213.531C315.96 212.975 315.523 212.828 315.012 213.125C314.357 213.505 313.873 214.051 313.436 214.686C313.297 214.889 313.374 215.175 313.605 215.26C313.606 215.26 313.607 215.261 313.608 215.261C314.301 215.51 314.996 215.753 315.728 216.01C315.943 216.085 316.176 215.956 316.227 215.734C316.405 214.966 316.352 214.242 316.131 213.531Z" fill="white"/>
<g opacity="0.2">
<path d="M307.237 243.575C308.278 244.081 309.467 244.197 310.599 243.951C310.773 243.913 310.957 243.872 311.141 243.828C311.3 243.79 311.45 243.696 311.593 243.609C311.812 243.476 311.949 243.285 311.859 243.019C311.759 242.724 311.503 242.744 311.269 242.788C311.038 242.831 310.816 242.92 310.586 242.972C308.717 243.396 307.095 242.736 306.047 241.134C305.9 240.909 305.752 240.682 305.573 240.484C305.427 240.321 305.2 240.271 305.029 240.42C304.92 240.515 304.825 240.711 304.842 240.849C304.87 241.074 304.97 241.3 305.078 241.506C305.551 242.402 306.299 243.118 307.237 243.575Z" fill="white"/>
<path d="M305.212 237.888C305.172 238.075 305.21 238.274 305.331 238.421C305.363 238.46 305.399 238.49 305.44 238.502C305.607 238.552 305.869 238.541 305.988 238.438C306.304 238.164 306.448 237.78 306.405 237.35C306.373 237.026 305.984 236.867 305.709 237.062C305.423 237.264 305.287 237.544 305.212 237.888Z" fill="white"/>
<path d="M312.166 240.465C312.126 240.651 312.163 240.85 312.284 240.997C312.316 241.036 312.352 241.066 312.394 241.079C312.56 241.128 312.823 241.118 312.941 241.015C313.258 240.74 313.401 240.356 313.358 239.926C313.326 239.602 312.937 239.443 312.662 239.638C312.376 239.841 312.239 240.12 312.166 240.465Z" fill="white"/>
</g>
<path opacity="0.2" d="M9.83415 191.272C7.41458 189.801 5.69432 187.792 5.15185 184.929C4.87385 184.875 4.67828 184.802 4.48208 184.802C2.15293 184.808 0.0697927 183.955 -1.93339 182.895C-4.92617 181.311 -6.64767 178.684 -7.5444 175.51C-8.46204 172.263 -7.89434 169.102 -6.72331 166.004C-5.27612 162.176 -2.66837 159.536 1.13565 158.056C3.35348 157.193 5.64757 156.731 8.01178 156.558C8.66187 156.51 9.34888 156.608 9.88396 156.244C9.97253 156.081 10.0396 155.998 10.0666 155.902C10.1509 155.607 10.2302 155.308 10.293 155.008C10.8317 152.421 11.7998 149.997 13.0459 147.678C13.7569 146.355 14.6241 145.143 15.7643 144.164C19.3248 141.103 23.5347 139.731 28.1352 140.044C33.8385 140.432 38.4611 143.126 42.0665 147.57C43.1391 148.892 44.0069 150.343 44.7671 151.865C44.9405 152.212 45.1749 152.528 45.4178 152.917C45.7069 152.678 45.916 152.536 46.0889 152.357C48.9291 149.429 52.4164 147.916 56.4357 147.491C59.2433 147.194 61.84 147.732 64.211 149.266C66.208 150.559 67.9436 152.144 69.3693 154.063C71.0687 156.348 72.3688 158.837 73.2428 161.555C73.3744 161.964 73.3591 162.502 73.8622 162.718C74.8757 162.517 75.866 162.229 76.8734 162.137C79.7124 161.881 82.2285 162.796 84.4697 164.499C87.5289 166.824 89.4011 169.946 90.4251 173.614C91.5384 177.601 91.0666 181.389 88.7307 184.818C85.5104 189.546 80.9597 191.617 75.2872 191.256C74.7921 191.225 74.2976 191.18 73.8289 191.143C73.7047 191.432 73.6075 191.615 73.5454 191.81C72.2655 195.792 69.512 198.284 65.636 199.583C62.5873 200.605 59.4647 200.971 56.2468 200.562C52.8377 200.129 50.0128 198.646 47.7482 196.077C47.1726 195.424 46.6787 194.7 46.1344 194.018C45.9646 193.805 45.753 193.627 45.5021 193.374C45.3047 193.714 45.1755 193.931 45.0506 194.151C44.074 195.869 42.8088 197.347 41.2817 198.585C35.5784 203.206 26.014 203.788 20.2363 196.24C19.5838 195.387 19.0456 194.445 18.4631 193.539C18.2442 193.198 18.0498 192.841 17.7355 192.307C14.8762 193.204 12.2746 192.755 9.83415 191.272ZM74.3818 164.371C73.2588 164.848 72.6683 164.601 72.2341 163.468C71.83 162.414 71.5422 161.313 71.1148 160.27C69.79 157.037 67.8649 154.238 65.2042 151.933C62.0386 149.191 58.4837 148.438 54.4552 149.403C51.6851 150.066 49.287 151.327 47.2992 153.375C46.9062 153.78 46.5188 154.198 46.0796 154.547C45.448 155.05 44.8151 154.979 44.344 154.337C44.0131 153.886 43.756 153.374 43.5106 152.867C42.7922 151.382 41.9742 149.962 40.9453 148.669C37.9426 144.896 34.106 142.472 29.3352 141.757C24.8085 141.079 20.6994 142.258 17.0934 145.093C15.9083 146.025 15.0527 147.252 14.3516 148.583C13.2464 150.683 12.3595 152.865 11.8834 155.202C11.8016 155.605 11.6953 156.003 11.6196 156.406C11.4462 157.329 10.9326 157.866 9.97313 157.948C9.10532 158.022 8.24119 158.129 7.37337 158.205C4.95135 158.418 2.62834 159.001 0.44311 160.084C-1.89219 161.241 -3.61307 163.019 -4.73491 165.373C-5.62671 167.244 -6.23005 169.216 -6.3875 171.281C-6.56217 173.575 -6.18638 175.843 -5.07993 177.85C-3.99869 179.813 -2.36392 181.316 -0.258643 182.209C1.6529 183.019 3.64071 183.433 5.72815 183.334C6.43299 183.3 6.68207 183.478 6.72143 184.199C6.83398 186.253 7.84818 187.784 9.36671 189.049C11.039 190.444 12.9235 191.301 15.1364 191.18C15.8935 191.138 16.6457 190.931 17.3911 190.76C18.3979 190.528 18.6058 190.596 19.1255 191.504C19.3297 191.86 19.481 192.248 19.7006 192.593C20.3341 193.588 20.9159 194.629 21.6503 195.545C25.2636 200.054 30.7498 201.592 36.3159 199.605C40.0196 198.283 42.6932 195.785 44.2253 192.113C44.3046 191.924 44.3673 191.726 44.4645 191.546C44.8754 190.784 45.4763 190.677 46.06 191.288C46.341 191.582 46.5575 191.939 46.8017 192.268C47.4438 193.134 48.0459 194.033 48.7335 194.861C50.8769 197.444 53.6643 198.83 56.9799 199.111C59.6597 199.338 62.3013 199.075 64.8715 198.238C68.467 197.066 70.9869 194.807 72.1419 191.111C72.7188 189.264 72.7717 189.224 74.7386 189.608C79.9129 190.618 87.3432 187.435 89.1373 180.114C89.5235 178.54 89.558 176.939 89.2701 175.366C88.6323 171.885 87.123 168.834 84.4697 166.439C82.5853 164.737 80.4099 163.677 77.8163 163.658C76.6194 163.647 75.4846 163.903 74.3818 164.371Z" fill="white"/>
<path opacity="0.2" d="M25.5115 181C27.4441 180.991 28.9313 180.445 30.1905 179.245C30.5039 178.946 30.802 178.566 30.9616 178.154C31.0592 177.903 30.9577 177.461 30.8039 177.211C30.5997 176.879 30.2339 176.944 29.9493 177.162C29.6889 177.362 29.4616 177.614 29.214 177.835C27.746 179.145 26.1108 179.567 24.2854 178.96C22.9974 178.532 21.8038 177.921 20.8432 176.836C20.5854 176.545 20.3052 176.247 19.9835 176.068C19.7907 175.96 19.432 175.982 19.2661 176.121C19.0982 176.261 18.9514 176.663 19.0152 176.865C19.1499 177.291 19.3746 177.719 19.658 178.044C21.3283 179.958 23.4327 180.808 25.5115 181Z" fill="white"/>
<path opacity="0.2" d="M36 168.8C35.9552 168.344 35.9605 168.125 35.909 167.917C35.7843 167.412 35.3588 167.094 34.7459 167.015C34.1644 166.939 33.6239 167.153 33.3761 167.643C32.9349 168.513 32.8446 169.413 33.3066 170.305C33.5231 170.724 33.883 171.007 34.4488 171C35.0094 170.993 35.4028 170.724 35.5686 170.287C35.7791 169.731 35.9015 169.151 36 168.8Z" fill="white"/>
<path opacity="0.2" d="M18 168.25C17.9552 167.68 17.9604 167.406 17.9089 167.146C17.7843 166.515 17.3588 166.118 16.7459 166.018C16.1644 165.924 15.6239 166.192 15.3761 166.803C14.9349 167.891 14.8446 169.016 15.3066 170.131C15.5231 170.655 15.8829 171.009 16.4488 171C17.0094 170.991 17.4028 170.655 17.5685 170.109C17.7783 169.415 17.9015 168.688 18 168.25Z" fill="white"/>
<path opacity="0.2" d="M239.183 656.138C239.453 655.836 239.65 655.641 239.817 655.424C241.312 653.484 243.259 652.169 245.508 651.255C250.583 649.193 255.731 648.951 260.968 650.585C263.286 651.308 265.339 652.485 267.047 654.198C270.096 657.257 272.086 660.868 272.564 665.225C272.608 665.619 272.636 666.016 272.705 666.406C272.794 666.905 272.917 667.399 273.056 668.03C273.537 667.77 273.968 667.54 274.397 667.305C278.363 665.134 282.621 664.489 286.895 665.799C292.547 667.531 296.312 671.29 297.503 677.283C299.845 684.867 293.638 694.374 284.714 696.045C279.829 696.959 275.224 696.142 270.98 693.582C269.095 692.445 267.343 691.088 265.439 689.768C265.139 690.11 264.769 690.524 264.404 690.944C260.057 695.929 254.554 697.802 248.08 696.897C246.294 696.647 244.524 696.195 242.787 695.694C240.513 695.038 238.554 693.809 236.964 692.026C236.745 691.78 236.495 691.561 236.186 691.257C235.902 691.536 235.655 691.754 235.436 691.998C233.039 694.669 230.049 696.293 226.542 696.95C222.807 697.65 219.094 697.497 215.439 696.428C210.795 695.07 207.491 692.213 205.718 687.665C205.616 687.403 205.485 687.151 205.36 686.9C205.338 686.855 205.276 686.831 205.138 686.723C204.624 686.929 204.054 687.16 203.481 687.384C199.234 689.048 194.966 689 190.679 687.545C189.642 687.193 188.756 686.617 187.961 685.857C185.413 683.419 184.134 680.438 184.014 676.93C183.946 674.933 184.122 672.968 184.696 671.047C185.626 667.932 187.481 665.497 190.183 663.72C192.896 661.934 195.831 661.482 198.96 662.411C199.601 662.602 200.24 662.797 200.985 663.022C201.138 662.559 201.294 662.208 201.369 661.842C201.86 659.442 202.568 657.124 203.775 654.975C205.136 652.552 206.971 650.582 209.32 649.102C212.944 646.817 216.9 645.456 221.185 645.408C228.414 645.326 234.129 648.23 238.023 654.444C238.294 654.877 238.549 655.317 238.82 655.75C238.88 655.842 238.973 655.915 239.183 656.138ZM239.363 658.63C238.332 658.194 237.864 657.562 237.447 656.877C237.035 656.199 236.648 655.505 236.206 654.847C232.496 649.322 227.202 646.92 220.669 647.162C217.757 647.271 214.995 648.133 212.352 649.389C208.058 651.429 205.233 654.721 203.841 659.241C203.458 660.483 203.218 661.768 202.898 663.03C202.788 663.465 202.685 663.916 202.487 664.314C202.197 664.896 201.699 665.117 201.071 664.946C200.416 664.77 199.783 664.513 199.141 664.29C195.584 663.054 192.506 663.877 189.684 666.295C185.176 670.157 184.585 678.361 187.672 682.842C188.955 684.704 190.613 685.961 192.845 686.409C196.665 687.177 200.374 686.983 203.969 685.301C206.193 684.26 206.358 684.369 207.167 686.583C208.794 691.037 211.954 693.776 216.508 694.932C219.507 695.694 222.541 695.818 225.612 695.352C229.436 694.771 232.545 693.004 234.921 689.951C235.026 689.817 235.125 689.677 235.239 689.552C236.018 688.701 236.545 688.723 237.317 689.638C237.426 689.768 237.519 689.911 237.619 690.048C239.009 691.936 240.821 693.268 243.055 693.936C244.733 694.438 246.441 694.904 248.168 695.153C253.944 695.984 258.934 694.419 262.916 690.022C263.371 689.518 263.814 688.993 264.321 688.545C265.399 687.592 265.853 687.652 266.957 688.548C268.319 689.653 269.691 690.757 271.144 691.736C274.294 693.857 277.799 694.77 281.602 694.672C286.256 694.553 290.025 692.67 292.995 689.135C295.708 685.903 296.695 682.207 295.954 678.038C295.223 673.924 292.992 670.868 289.46 668.73C286.222 666.771 282.727 666.557 279.116 667.34C277.034 667.79 275.131 668.624 273.53 670.07C273.321 670.258 273.101 670.444 272.858 670.584C272.37 670.865 271.792 670.685 271.58 670.178C271.472 669.922 271.43 669.634 271.387 669.356C271.19 668.068 270.937 666.785 270.824 665.49C270.537 662.202 269.114 659.405 267.133 656.863C265.381 654.616 263.123 653.036 260.384 652.204C257.42 651.303 254.403 650.953 251.32 651.465C246.887 652.202 242.867 653.66 240.295 657.7C240.068 658.057 239.684 658.316 239.363 658.63Z" fill="white"/>
</svg>
