<svg width="329" height="685" viewBox="0 0 329 685" fill="none" xmlns="http://www.w3.org/2000/svg">
<path opacity="0.2" d="M19.4443 516.251C17.8179 515.788 16.3299 515.449 14.9037 514.937C13.3408 514.375 11.7605 513.788 10.3186 512.979C4.9404 509.959 1.73366 505.367 0.506859 499.297C-1.11436 491.28 1.19296 484.512 6.86375 478.831C9.82844 475.862 13.5367 474.323 17.696 473.742C21.0734 473.271 24.3419 473.698 27.6 474.515C28.637 474.774 29.6819 475.001 30.8233 475.266C30.9948 474.687 31.1559 474.297 31.2238 473.89C31.8255 470.296 32.6962 466.781 34.3113 463.493C36.1989 459.65 38.7387 456.36 42.3295 453.93C45.2358 451.962 48.4504 451.023 51.9079 450.717C58.2944 450.152 63.5159 452.592 68.0374 456.885C68.9255 457.728 69.7848 458.601 70.7861 459.587C71.1361 458.945 71.4461 458.473 71.662 457.961C73.1353 454.473 75.453 451.64 78.2984 449.186C81.1891 446.691 84.5038 445.195 88.2887 444.771C94.8746 444.036 100.87 445.461 105.856 449.995C107.394 451.393 108.577 453.184 109.915 454.802C110.266 455.226 110.585 455.676 111.151 456.418C111.273 455.357 111.339 454.665 111.435 453.978C111.525 453.331 111.641 452.687 111.754 452.044C112.831 445.896 115.578 440.661 120.291 436.526C123.879 433.378 128.16 431.655 132.765 430.694C139.273 429.336 145.443 430.216 151.236 433.583C154.074 435.233 156.698 437.151 159.093 439.393C159.507 439.78 159.94 440.147 160.431 440.583C160.892 440.003 161.305 439.505 161.695 438.991C166.287 432.937 172.332 429.233 179.792 427.884C183.955 427.131 188.023 427.556 191.956 429.159C197.175 431.286 201.464 434.671 205.136 438.895C205.506 439.32 205.876 439.747 206.343 440.284C206.769 439.818 207.105 439.464 207.427 439.097C212.511 433.302 218.953 430.138 226.572 429.491C231.028 429.112 235.199 430.306 239.022 432.637C245.706 436.712 249.749 442.664 251.469 450.377C251.862 450.569 252.292 450.832 252.756 450.996C255.785 452.071 258.645 453.47 261.145 455.512C262.092 456.284 263.018 457.118 263.793 458.056C266.94 461.868 268.664 466.285 268.961 471.209C269.207 475.291 268.293 479.185 266.296 482.732C261.626 491.019 254.604 495.806 245.044 496.701C241.548 497.029 238.08 496.854 234.656 496.149C232.969 495.802 231.338 495.181 229.533 494.639C229.597 495.089 229.621 495.502 229.716 495.897C230.432 498.878 230.987 501.875 230.385 504.946C229.025 511.884 225.236 517.018 218.851 520.089C216.252 521.339 213.397 521.583 210.545 521.33C206.619 520.983 202.79 520.221 199.387 518.049C199.28 517.98 199.112 518.005 198.821 517.967C198.51 518.44 198.139 518.957 197.819 519.503C196.237 522.19 194.069 524.267 191.416 525.892C184.629 530.051 177.396 530.636 169.829 528.68C166.644 527.857 163.656 526.584 160.931 524.72C160.402 524.358 159.856 524.023 159.211 523.606C158.951 524.106 158.733 524.464 158.571 524.846C156.095 530.692 151.645 534.392 145.596 535.768C136.26 537.893 128.243 535.342 121.952 527.947C119.963 525.609 118.512 522.932 117.327 519.933C116.351 521.857 115.531 523.678 114.528 525.391C113.496 527.154 112.073 528.622 110.5 529.931C108.927 531.241 107.191 532.282 105.336 533.131C103.476 533.981 101.53 534.615 99.5075 534.813C97.4945 535.01 95.4545 535.014 93.4284 534.968C91.3779 534.922 89.3945 534.368 87.5477 533.517C85.7132 532.67 83.8734 531.747 82.24 530.574C80.6171 529.408 79.2466 527.889 77.662 526.428C77.305 527.473 76.9976 528.423 76.6581 529.362C72.9689 539.567 65.7771 546.125 55.5961 549.5C51.032 551.013 46.4757 550.805 41.9472 549.159C36.4898 547.177 31.9456 543.947 28.2774 539.457C24.0459 534.277 21.4896 528.345 20.3516 521.777C20.0425 519.995 19.7639 518.207 19.4443 516.251ZM112.428 461.852C111.035 460.805 111.07 460.784 110.199 459.367C109.097 457.576 108.011 455.768 106.778 454.07C104.766 451.3 102.082 449.348 98.8937 448.115C94.9242 446.581 90.8442 446.4 86.6962 447.203C84.368 447.654 82.3288 448.705 80.4595 450.147C77.3442 452.55 74.9889 455.528 73.5001 459.18C73.2258 459.852 72.9724 460.532 72.6921 461.201C71.9764 462.908 71.3059 463.071 70.013 461.814C68.9211 460.751 67.9329 459.57 66.7784 458.584C65.2938 457.317 63.7588 456.083 62.1228 455.026C56.3406 451.292 46.9493 452.259 41.801 456.95C38.1345 460.291 35.8063 464.396 34.5325 469.112C33.8908 471.485 33.5451 473.941 33.0976 476.365C32.8503 477.696 32.273 478.095 30.9896 477.716C30.7136 477.633 30.4542 477.492 30.1773 477.41C26.6945 476.375 23.2065 475.426 19.507 475.637C14.2951 475.934 9.95556 477.99 6.68177 482.061C3.26868 486.306 1.59086 491.143 2.22124 496.654C3.03359 503.755 6.4197 509.807 15.1962 512.71C16.6181 513.18 18.1783 513.241 19.6794 513.453C20.9889 513.638 21.2902 513.867 21.6019 515.122C21.6715 515.403 21.7046 515.693 21.7473 515.98C22.0572 518.06 22.3115 520.151 22.6859 522.219C23.6854 527.744 25.8891 532.747 29.2831 537.229C33.283 542.508 38.454 546.038 44.8423 547.77C46.8953 548.326 48.9876 548.491 51.0981 548.2C53.9932 547.801 56.7768 546.999 59.374 545.644C66.9795 541.678 72.4404 535.86 74.9184 527.485C75.2066 526.512 75.4678 525.522 75.8622 524.591C76.389 523.345 77.4373 523.075 78.4943 523.92C79.1674 524.458 79.7438 525.13 80.3106 525.788C82.2357 528.024 84.536 529.723 87.2099 530.983C91.0227 532.778 95.0322 533.269 99.1087 532.599C106.71 531.348 112.19 527.315 114.738 519.815C115.247 518.315 115.78 516.804 115.736 515.156C115.715 514.368 116.48 514.103 117.142 514.599C117.922 515.183 118.428 515.958 118.717 516.89C119.037 517.93 119.331 518.984 119.74 519.99C122.896 527.77 129.834 534.906 141.624 534.394C148.398 534.099 155.081 529.618 157.006 523.45C157.22 522.762 157.534 522.096 157.879 521.462C158.352 520.591 158.868 520.477 159.638 520.995C159.817 521.116 159.968 521.279 160.14 521.413C165.426 525.555 171.458 527.613 178.138 527.422C186.172 527.191 192.835 524.329 196.769 516.789C196.802 516.725 196.841 516.663 196.878 516.601C197.883 514.96 198.696 514.737 200.209 515.884C201.69 517.007 203.35 517.688 205.101 518.183C207.771 518.938 210.491 519.271 213.274 519.147C215.884 519.031 218.262 518.282 220.4 516.79C223.327 514.748 225.485 512.051 226.99 508.832C228.35 505.924 228.771 502.862 228.246 499.696C227.997 498.195 227.625 496.715 227.303 495.227C227.149 494.517 226.926 493.819 226.831 493.103C226.631 491.58 227.562 490.874 228.926 491.482C229.255 491.629 229.554 491.843 229.872 492.018C231.598 492.973 233.411 493.686 235.366 494.012C238.67 494.563 241.974 494.784 245.328 494.421C253.21 493.565 259.271 489.786 263.517 483.137C266.455 478.538 267.52 473.502 266.302 468.125C264.887 461.868 261.421 457.197 255.435 454.589C254.438 454.155 253.435 453.729 252.423 453.334C249.402 452.157 249.733 452.702 248.917 449.338C247.151 442.065 242.87 436.728 236.169 433.395C233.394 432.015 230.418 431.406 227.312 431.567C220.979 431.895 215.485 434.24 210.857 438.572C209.747 439.611 208.743 440.766 207.71 441.885C206.238 443.478 205.832 443.465 204.582 441.757C201.482 437.518 197.578 434.222 192.879 431.891C189.15 430.042 185.228 429.237 181.064 429.851C174.327 430.844 168.683 433.783 164.432 439.199C163.536 440.34 162.714 441.541 161.817 442.681C161.095 443.6 160.525 443.654 159.609 442.899C159.051 442.439 158.551 441.905 158.049 441.382C156.125 439.38 153.912 437.749 151.589 436.246C145.016 431.995 138.012 431.15 130.549 433.397C121.402 436.152 115.988 442.299 114.075 451.559C113.564 454.031 113.481 456.595 113.262 459.123C113.181 460.064 113.277 461.019 112.428 461.852Z" fill="white"/>
<g opacity="0.2">
<path d="M287.208 68.6793C289.267 75.4052 290.993 82.2341 293.396 88.8552C293.508 89.1634 293.637 89.4744 293.678 89.7949C293.705 90.0006 293.649 90.3375 293.514 90.4152C293.31 90.5336 292.978 90.5555 292.75 90.4761C292.449 90.3713 292.177 90.1499 291.929 89.9364C291.76 89.7916 291.598 89.6406 291.44 89.4839C285.173 83.2556 278.904 77.0306 272.821 70.6186C270.141 67.7926 267.328 65.0916 264.579 62.3304C264.121 61.8712 263.586 61.4543 263.555 60.7309C263.721 60.3191 264.064 60.167 264.441 60.1072C265.042 60.0126 265.648 59.9067 266.254 59.8931C267.802 59.8582 269.352 59.8712 270.901 59.8655C270.904 59.8655 270.908 59.8655 270.911 59.8655C271.485 59.8633 271.853 59.2537 271.587 58.7449C270.02 55.7381 268.368 52.8873 266.655 50.0275C266.267 49.3801 265.542 49.0015 264.791 49.0804C264.702 49.09 264.614 49.0996 264.525 49.1013C263.378 49.126 262.205 49.259 261.083 49.0855C254.882 48.1277 249.519 43.4053 247.687 37.3955C247.595 37.0919 247.471 36.7983 247.343 36.4507C246.963 36.5634 246.659 36.6778 246.346 36.7414C245.614 36.8902 244.878 37.1217 244.141 37.1319C239.748 37.1933 236.494 35.1127 234.249 31.4816C232.759 29.0696 232.617 26.4352 233.745 23.7799C234.872 21.128 236.546 18.893 238.892 17.2152C241.769 15.1582 244.954 14.3114 248.481 14.9898C248.648 15.0219 248.827 14.9937 248.952 14.9937C249.04 14.8106 249.102 14.7312 249.115 14.6444C249.204 14.041 249.28 13.4359 249.366 12.832C249.893 9.12705 252.844 6.20469 256.558 5.76073C259.759 5.37762 262.62 6.26779 265.056 8.34222C266.083 9.21662 266.918 10.3164 267.836 11.3164C268.038 11.5361 268.225 11.7688 268.503 12.0939C268.717 10.9243 268.867 9.90453 269.093 8.90168C270.141 4.25365 273.151 1.53695 277.647 0.339727C279.207 -0.0754976 280.81 -0.0653669 282.403 0.131822C287.128 0.715503 290.82 2.90094 293.141 7.15685C294.228 9.15015 294.669 11.2758 294.337 13.5446C294.287 13.8861 294.331 14.2416 294.331 14.6545C295.01 14.45 295.588 14.2647 296.173 14.1019C298.052 13.5773 299.967 13.3677 301.878 13.8123C305.605 14.6782 308.498 18.1313 308.895 22.0779C308.936 22.4875 308.99 22.8959 309.038 23.3157C309.59 23.5258 310.07 23.7055 310.547 23.8909C314.054 25.2538 316.17 27.8482 317.14 31.4207C317.54 32.8934 317.532 34.3915 317.132 35.8732C316.212 39.288 314.062 41.7455 311.055 43.4707C307.244 45.6572 303.525 45.3428 299.942 42.8763C299.646 42.6729 299.353 42.4667 298.969 42.1996C298.334 43.8814 297.761 45.4702 296.521 46.6854C295.497 47.6877 294.241 48.2809 292.887 48.8365C292.384 49.0427 292.182 49.65 292.465 50.1154C292.849 50.7498 293.213 51.3509 293.602 51.9351C295.969 55.4941 298.145 59.1675 300.209 62.9085C300.456 63.3569 300.687 63.829 300.829 64.3181C300.995 64.8854 300.726 65.3649 300.166 65.5395C299.677 65.6922 299.162 65.7773 298.652 65.846C295.677 66.2483 292.695 66.6015 289.728 67.0522C289.163 67.1379 288.573 67.1655 288 67.3013C287.394 67.4444 287.023 68.0743 287.203 68.6703C287.206 68.6731 287.206 68.6765 287.208 68.6793ZM247.386 34.7132C248 34.3763 248.351 34.5126 248.575 35.1493C248.714 35.5459 248.783 35.9668 248.898 36.3735C250.589 42.3861 254.552 46.1722 260.545 47.5795C264.628 48.5384 268.249 47.228 271.107 44.0797C272.912 42.092 273.963 39.6948 274.77 37.1724C274.855 36.9071 274.904 36.6237 275.03 36.3803C275.213 36.0293 275.775 36.0259 275.962 36.3769C276.089 36.6169 276.148 36.8981 276.212 37.1668C276.385 37.8953 276.505 38.639 276.718 39.355C278.073 43.9146 281.205 46.6189 285.722 47.7688C288.242 48.4105 290.747 48.2021 293.173 47.215C295.012 46.4668 296.317 45.202 296.997 43.3236C297.205 42.7506 297.384 42.1681 297.579 41.5906C297.7 41.2357 297.793 40.8666 297.958 40.5331C298.212 40.0187 298.667 39.9049 299.121 40.2441C299.458 40.4954 299.746 40.8097 300.059 41.0937C301.838 42.7112 303.921 43.5512 306.335 43.5011C306.845 43.4904 307.374 43.4363 307.86 43.287C312.204 41.9534 315.046 39.1798 315.967 34.6439C316.095 34.018 316.083 33.3261 315.971 32.6945C315.265 28.7299 313.019 26.0955 309.123 24.9281C307.662 24.4904 307.63 24.4892 307.516 22.9624C307.417 21.6345 307.176 20.3573 306.526 19.1831C305.129 16.6602 303.035 15.1137 300.12 14.9971C298.136 14.9176 296.203 15.3667 294.422 16.3154C294.174 16.4478 293.943 16.6118 293.693 16.7414C293.335 16.9279 292.969 16.947 292.64 16.6755C292.326 16.4163 292.187 16.0822 292.3 15.6749C292.388 15.3588 292.487 15.0455 292.586 14.7323C293.363 12.2612 293.039 9.91467 291.78 7.67742C289.792 4.14491 286.693 2.27388 282.762 1.63949C280.93 1.34427 279.093 1.32115 277.33 1.90934C273.909 3.05079 271.475 5.22776 270.606 8.84759C270.323 10.0285 270.205 11.2494 270.01 12.4511C269.935 12.9125 269.884 13.3813 269.768 13.8326C269.654 14.2754 269.338 14.5424 268.874 14.6213C268.378 14.7058 268.076 14.4579 267.85 14.0562C267.689 13.77 267.52 13.4878 267.352 13.2061C266.625 11.9885 265.721 10.9158 264.704 9.93214C262.867 8.15575 260.637 7.25825 258.124 7.08979C254.587 6.85204 251.474 9.33212 250.853 12.8263C250.73 13.5176 250.676 14.2219 250.592 14.9199C250.547 15.2923 250.533 15.6709 250.454 16.036C250.346 16.543 250.057 16.7402 249.536 16.6895C249.257 16.6625 248.981 16.5926 248.707 16.5273C245.499 15.7594 242.55 16.3904 239.879 18.2648C237.634 19.84 236.03 21.9489 235.006 24.4982C234.226 26.4391 234.243 28.3834 235.204 30.2229C236.972 33.6056 239.837 35.3938 243.611 35.7437C244.982 35.7583 246.212 35.3577 247.386 34.7132ZM267.761 49.0714C269.694 52.4518 271.628 55.8316 273.562 59.2109C273.631 59.3331 273.707 59.452 273.772 59.5771C274.325 60.6521 273.979 61.2633 272.746 61.3467C272.279 61.3783 271.808 61.3405 271.338 61.3383C269.837 61.3304 268.335 61.3208 266.833 61.3197C266.789 61.3197 266.746 61.3202 266.701 61.3219C266.3 61.3366 266.093 61.8217 266.373 62.109C266.375 62.1107 266.377 62.1124 266.379 62.1146C267.797 63.5513 269.243 64.9604 270.646 66.4105C273.876 69.7487 277.054 73.1386 280.316 76.4463C283.721 79.8994 287.19 83.2888 290.653 86.7188C290.829 86.8934 291.108 86.7103 291.033 86.4737C291.032 86.4715 291.032 86.4698 291.031 86.4675C289.354 80.802 287.654 75.1426 285.964 69.4805C285.79 68.8968 285.63 68.3069 285.495 67.7131C285.262 66.686 285.399 66.4235 286.404 66.2483C289.037 65.7885 291.674 65.3519 294.315 64.9412C295.751 64.7175 297.199 64.5677 298.64 64.3767C298.642 64.3767 298.643 64.3761 298.645 64.3761C298.958 64.3327 299.129 63.9823 298.984 63.7017C296.652 59.19 293.865 55.0321 291.183 50.765C290.691 49.9818 289.826 49.5041 288.901 49.5244C288.896 49.5244 288.89 49.5244 288.885 49.5249C285.241 49.6078 282.091 48.308 279.31 46.0426C277.828 44.8346 276.803 43.2656 276.02 41.532C275.927 41.3264 275.831 41.1224 275.736 40.9213C275.563 40.5568 275.065 40.5477 274.856 40.8931C274.855 40.8954 274.853 40.8976 274.852 40.8999C274.186 41.9743 273.586 43.0966 272.849 44.1197C271.709 45.7017 270.237 46.9344 268.495 47.8319C268.205 47.9818 267.924 48.1491 267.642 48.3142C267.63 48.3209 267.621 48.3317 267.61 48.3486C267.535 48.4674 267.533 48.6184 267.595 48.7452C267.649 48.8596 267.702 48.9672 267.761 49.0714Z" fill="white"/>
</g>
<path opacity="0.2" d="M294.488 273.613C293.611 273.601 292.724 273.535 291.858 273.635C290.578 273.784 289.381 274.173 288.502 275.227C288.093 275.716 287.602 275.628 287.422 275.017C287.317 274.66 287.267 274.287 287.2 273.92C286.956 272.581 286.266 271.52 285.125 270.803C282.301 269.029 279.281 268.605 276.095 269.647C275.554 269.823 275.058 270.136 274.543 270.389C273.906 270.704 273.462 270.618 273.033 270.069C272.867 269.857 272.733 269.62 272.581 269.396C271.867 268.342 270.982 267.451 269.846 266.879C266.769 265.33 263.58 264.553 260.161 265.662C259.799 265.779 259.433 265.863 259.137 265.508C258.85 265.164 259.078 264.861 259.237 264.578C260.442 262.423 261.659 260.272 263.21 258.339C268.311 251.98 274.62 247.238 282.204 244.226C286.75 242.42 291.46 241.465 296.369 241.713C297.885 241.789 299.403 241.954 300.903 242.186C301.751 242.317 302.316 242.123 302.81 241.423C303.155 240.933 303.621 240.519 304.075 240.119C304.321 239.902 304.64 239.743 304.952 239.63C305.684 239.362 306.383 239.607 306.801 240.263C306.944 240.487 307.042 240.747 307.124 241.002C307.355 241.724 307.36 242.464 307.286 243.212C307.197 244.106 307.203 244.106 308.027 244.509C308.118 244.553 308.212 244.593 308.302 244.639C311.753 246.417 314.911 248.592 317.602 251.418C321.428 255.437 324.368 260.015 326.32 265.214C328.668 271.466 329.421 277.931 328.783 284.559C328.65 285.932 328.316 287.287 328.052 288.645C327.995 288.936 327.876 289.234 327.714 289.48C327.397 289.961 326.95 289.927 326.697 289.42C326.578 289.18 326.512 288.913 326.415 288.661C326.209 288.126 326.038 287.572 325.783 287.061C324.496 284.484 322.002 283.093 319.139 283.343C317.832 283.457 316.73 283.966 315.951 285.071C315.803 285.282 315.61 285.462 315.447 285.647C314.9 285.315 314.914 285.308 314.68 284.84C314.256 283.996 313.904 283.097 313.363 282.334C311.934 280.317 309.999 279.244 307.456 279.51C306.258 279.635 305.153 280.025 304.177 280.747C303.959 280.908 303.756 281.089 303.53 281.237C303.265 281.412 303.011 281.372 302.829 281.1C302.642 280.821 302.493 280.515 302.345 280.212C302.065 279.634 301.812 279.042 301.521 278.471C301.088 277.623 300.563 276.836 299.87 276.175C299.869 276.174 299.867 276.173 299.866 276.171C299.629 275.947 299.239 276.043 299.118 276.346C299.071 276.464 299.027 276.576 298.987 276.69C298.286 278.7 297.618 280.722 296.887 282.721C295.343 286.942 293.776 291.156 292.199 295.365C290.323 300.37 288.759 305.473 287.391 310.638C287.13 311.625 286.946 312.621 287.016 313.642C287.046 314.071 287.132 314.519 287.303 314.911C287.597 315.585 288.152 315.851 288.875 315.739C289.487 315.645 290.073 315.438 290.497 314.972C290.972 314.45 291.444 313.909 291.816 313.313C292.822 311.701 293.544 309.949 294.213 308.175C294.326 307.875 294.452 307.572 294.617 307.298C294.972 306.709 295.627 306.357 296.315 306.37C298.183 306.406 299.333 307.92 298.79 309.694C298.046 312.125 297.047 314.454 295.773 316.657C295.453 317.211 295.073 317.735 294.688 318.248C293.866 319.344 292.861 320.21 291.623 320.843C288.182 322.599 283.391 320.895 282.283 316.431C281.967 315.158 282 313.878 282.205 312.603C282.858 308.555 283.896 304.604 285.307 300.755C286.772 296.757 288.275 292.772 289.741 288.774C291.463 284.078 293.166 279.375 294.873 274.673C294.927 274.526 294.969 274.375 295.011 274.214C295.078 273.96 294.926 273.697 294.67 273.637C294.607 273.622 294.547 273.613 294.488 273.613ZM297.299 273.311C300.062 274.398 301.863 276.42 302.976 279.179C303.028 279.307 303.198 279.33 303.285 279.224C303.667 278.758 303.848 278.271 304.007 277.787C304.566 276.086 305.126 274.385 305.622 272.666C306.427 269.87 307.033 267.027 307.371 264.136C307.938 259.298 307.889 254.482 306.624 249.744C306.26 248.378 305.707 247.061 305.234 245.725C305.167 245.535 305.081 245.345 304.969 245.179C304.737 244.84 304.376 244.717 303.994 244.894C303.566 245.092 303.153 245.329 302.759 245.588C300.867 246.83 299.368 248.475 298.028 250.274C296.547 252.262 295.347 254.415 294.363 256.686C292.237 261.594 290.461 266.623 289.177 271.819C289.069 272.253 288.919 272.685 288.891 273.191C288.884 273.327 289.019 273.422 289.144 273.369C291.881 272.208 294.586 272.243 297.299 273.311ZM273.208 268.416C273.285 268.5 273.428 268.5 273.486 268.402C273.492 268.393 273.496 268.384 273.499 268.374C274.636 264.868 276.423 261.691 278.458 258.647C280.936 254.942 283.878 251.645 287.297 248.783C290.051 246.477 293.149 244.778 296.545 243.627C297.371 243.347 298.235 243.181 299.103 242.958C298.979 242.713 298.709 242.813 298.507 242.793C293.476 242.287 288.594 242.994 283.849 244.679C275.697 247.575 269 252.505 263.717 259.334C262.584 260.798 261.695 262.45 260.698 264.018C260.696 264.022 260.694 264.025 260.692 264.029C260.62 264.155 260.73 264.309 260.874 264.292C265.629 263.733 269.846 264.745 273.208 268.416ZM302.09 244.012C299.869 243.829 297.737 244.093 295.638 244.941C292.105 246.368 289 248.417 286.246 251.018C281.646 255.362 277.968 260.372 275.395 266.17C274.99 267.08 274.621 268.005 274.359 268.958C274.33 269.061 274.397 269.172 274.503 269.185C274.654 269.204 274.775 269.081 274.891 269.029C278.563 267.397 282.076 267.903 285.465 269.839C286.42 270.384 287.158 271.177 287.653 272.176C287.668 272.206 287.685 272.236 287.703 272.267C287.783 272.405 287.99 272.379 288.033 272.225C288.078 272.067 288.117 271.927 288.151 271.787C289.528 266.085 291.494 260.587 293.918 255.254C295.099 252.657 296.622 250.265 298.489 248.097C299.576 246.834 300.789 245.717 302.168 244.78C302.293 244.696 302.409 244.6 302.547 244.484C302.687 244.367 302.638 244.139 302.461 244.09C302.324 244.051 302.208 244.022 302.09 244.012ZM308.634 246.477C312.316 250.567 314.629 255.347 315.84 260.693C316.648 264.261 317.12 267.866 317.309 271.523C317.46 274.438 317.306 277.331 317.04 280.225C316.975 280.929 316.826 281.626 316.723 282.328C316.708 282.434 316.699 282.541 316.692 282.654C316.684 282.785 316.813 282.881 316.935 282.835C320.674 281.421 324.955 282.803 327.033 287.128C327.104 287.277 327.32 287.26 327.369 287.102C327.44 286.866 327.469 286.638 327.501 286.418C327.763 284.612 327.956 282.803 327.972 280.97C328.002 277.508 327.729 274.082 326.93 270.71C325.037 262.724 321.127 255.909 315.05 250.37C313.116 248.607 310.914 247.219 308.644 245.936C308.511 245.861 308.359 245.818 308.217 245.76C308.191 245.798 308.164 245.836 308.138 245.874C308.303 246.075 308.46 246.283 308.634 246.477ZM310.96 279.05C312.894 279.928 314.219 281.403 315.146 283.401C315.207 283.534 315.393 283.541 315.466 283.413C315.508 283.34 315.538 283.28 315.553 283.216C315.893 281.766 316.07 280.293 316.205 278.81C316.404 276.617 316.451 274.421 316.37 272.226C316.18 267.105 315.449 262.066 313.813 257.193C312.403 252.991 310.058 249.346 307.016 246.141C306.965 246.087 306.911 246.036 306.851 245.982C306.675 245.824 306.399 246.007 306.483 246.228C306.484 246.229 306.484 246.231 306.485 246.232C307.25 248.188 307.853 250.189 308.193 252.266C308.723 255.515 308.857 258.774 308.593 262.062C308.172 267.32 306.913 272.386 305.252 277.368C305.089 277.857 304.899 278.337 304.684 278.902C304.629 279.047 304.771 279.19 304.916 279.136C306.992 278.358 308.971 278.147 310.96 279.05ZM297.071 274.308C296.625 274.125 296.108 274.34 295.941 274.794C295.94 274.796 295.939 274.799 295.938 274.801C293.493 281.499 291.056 288.199 288.605 294.895C287.92 296.767 287.193 298.624 286.492 300.49C285.062 304.297 284.026 308.212 283.29 312.208C283.032 313.609 282.944 315.012 283.29 316.429C283.82 318.604 285.271 319.854 287.32 320.428C289.34 320.995 291.123 320.302 292.695 319.043C293.708 318.232 294.453 317.172 295.072 316.036C296.159 314.044 297.034 311.957 297.787 309.818C297.887 309.535 297.951 309.229 297.969 308.93C298.031 307.929 296.935 307.069 295.982 307.389C295.751 307.466 295.523 307.686 295.393 307.901C295.203 308.215 295.095 308.58 294.964 308.928C294.308 310.67 293.567 312.372 292.597 313.967C292.203 314.615 291.726 315.188 291.168 315.695C290.627 316.186 289.962 316.529 289.242 316.656C287.686 316.93 286.834 316.335 286.222 315.007C285.915 314.341 285.9 313.626 285.999 312.916C286.191 311.545 286.467 310.192 286.821 308.849C288.771 301.45 291.471 294.307 294.127 287.147C295.467 283.536 296.731 279.897 298.024 276.269C298.094 276.075 298.155 275.877 298.217 275.669C298.331 275.286 298.165 274.876 297.819 274.677C297.571 274.535 297.324 274.413 297.071 274.308ZM306.131 241.054C305.96 240.498 305.523 240.351 305.012 240.648C304.357 241.029 303.873 241.575 303.436 242.209C303.297 242.412 303.374 242.698 303.605 242.783C303.606 242.783 303.607 242.784 303.608 242.784C304.301 243.034 304.996 243.276 305.728 243.533C305.943 243.608 306.176 243.479 306.227 243.257C306.405 242.489 306.352 241.765 306.131 241.054Z" fill="white"/>
<g opacity="0.2">
<path d="M297.237 271.098C298.278 271.604 299.467 271.72 300.599 271.474C300.773 271.436 300.957 271.395 301.141 271.351C301.3 271.313 301.45 271.219 301.593 271.132C301.812 270.999 301.949 270.808 301.859 270.542C301.759 270.247 301.503 270.267 301.269 270.311C301.038 270.354 300.816 270.443 300.586 270.495C298.717 270.919 297.095 270.259 296.047 268.657C295.9 268.432 295.752 268.205 295.573 268.007C295.427 267.844 295.2 267.794 295.029 267.943C294.92 268.038 294.825 268.234 294.842 268.372C294.87 268.597 294.97 268.823 295.078 269.029C295.551 269.926 296.299 270.641 297.237 271.098Z" fill="white"/>
<path d="M295.212 265.411C295.172 265.598 295.21 265.797 295.331 265.944C295.363 265.983 295.399 266.013 295.44 266.025C295.607 266.075 295.869 266.064 295.988 265.961C296.304 265.687 296.448 265.303 296.405 264.873C296.373 264.549 295.984 264.39 295.709 264.585C295.423 264.787 295.287 265.067 295.212 265.411Z" fill="white"/>
<path d="M302.166 267.988C302.126 268.174 302.163 268.373 302.284 268.52C302.316 268.559 302.352 268.59 302.394 268.602C302.56 268.651 302.823 268.641 302.941 268.538C303.258 268.263 303.401 267.879 303.358 267.45C303.326 267.125 302.937 266.966 302.662 267.161C302.376 267.364 302.239 267.643 302.166 267.988Z" fill="white"/>
</g>
<path opacity="0.2" d="M19.8341 218.795C17.4146 217.324 15.6943 215.315 15.1519 212.452C14.8739 212.398 14.6783 212.325 14.4821 212.325C12.1529 212.332 10.0698 211.478 8.06661 210.418C5.07383 208.834 3.35233 206.207 2.4556 203.034C1.53796 199.786 2.10566 196.625 3.27669 193.528C4.72388 189.699 7.33163 187.06 11.1356 185.579C13.3535 184.717 15.6476 184.254 18.0118 184.081C18.6619 184.033 19.3489 184.131 19.884 183.767C19.9725 183.604 20.0396 183.521 20.0666 183.425C20.1509 183.13 20.2302 182.831 20.293 182.531C20.8317 179.944 21.7998 177.52 23.0459 175.201C23.7569 173.878 24.6241 172.666 25.7643 171.687C29.3248 168.626 33.5347 167.254 38.1352 167.567C43.8385 167.955 48.4611 170.649 52.0665 175.093C53.1391 176.415 54.0069 177.866 54.7671 179.388C54.9405 179.735 55.1749 180.051 55.4178 180.44C55.7069 180.201 55.916 180.059 56.0889 179.88C58.9291 176.952 62.4164 175.439 66.4357 175.014C69.2433 174.717 71.84 175.255 74.211 176.789C76.208 178.082 77.9436 179.668 79.3693 181.586C81.0687 183.872 82.3688 186.36 83.2428 189.078C83.3744 189.487 83.3591 190.025 83.8622 190.241C84.8757 190.04 85.866 189.752 86.8734 189.661C89.7124 189.404 92.2285 190.319 94.4697 192.022C97.5289 194.347 99.4011 197.469 100.425 201.137C101.538 205.124 101.067 208.912 98.7307 212.341C95.5104 217.069 90.9597 219.14 85.2872 218.779C84.7921 218.748 84.2976 218.703 83.8289 218.666C83.7047 218.955 83.6075 219.138 83.5454 219.333C82.2655 223.315 79.512 225.807 75.636 227.106C72.5873 228.128 69.4647 228.494 66.2468 228.085C62.8377 227.652 60.0128 226.169 57.7482 223.6C57.1726 222.947 56.6787 222.223 56.1344 221.541C55.9646 221.328 55.753 221.15 55.5021 220.897C55.3047 221.237 55.1755 221.454 55.0506 221.674C54.074 223.392 52.8088 224.87 51.2817 226.108C45.5784 230.729 36.014 231.311 30.2363 223.763C29.5838 222.91 29.0456 221.968 28.4631 221.062C28.2442 220.721 28.0498 220.364 27.7355 219.83C24.8762 220.727 22.2746 220.278 19.8341 218.795ZM84.3818 191.894C83.2588 192.371 82.6683 192.124 82.2341 190.991C81.83 189.937 81.5422 188.837 81.1148 187.793C79.79 184.56 77.8649 181.761 75.2042 179.456C72.0386 176.714 68.4837 175.961 64.4552 176.926C61.6851 177.589 59.287 178.85 57.2992 180.898C56.9062 181.303 56.5188 181.721 56.0796 182.07C55.448 182.573 54.8151 182.502 54.344 181.861C54.0131 181.409 53.756 180.897 53.5106 180.39C52.7922 178.905 51.9742 177.485 50.9453 176.192C47.9426 172.419 44.106 169.995 39.3352 169.28C34.8085 168.602 30.6994 169.781 27.0934 172.616C25.9083 173.548 25.0527 174.775 24.3516 176.106C23.2464 178.206 22.3595 180.388 21.8834 182.725C21.8016 183.128 21.6953 183.526 21.6196 183.93C21.4462 184.852 20.9326 185.389 19.9731 185.471C19.1053 185.545 18.2412 185.652 17.3734 185.728C14.9513 185.941 12.6283 186.524 10.4431 187.607C8.10781 188.764 6.38693 190.543 5.26509 192.896C4.37329 194.767 3.76995 196.739 3.6125 198.804C3.43783 201.099 3.81362 203.366 4.92007 205.373C6.00131 207.336 7.63608 208.839 9.74136 209.732C11.6529 210.542 13.6407 210.956 15.7282 210.857C16.433 210.823 16.6821 211.001 16.7214 211.722C16.834 213.777 17.8482 215.307 19.3667 216.573C21.039 217.967 22.9235 218.824 25.1364 218.703C25.8935 218.661 26.6457 218.455 27.3911 218.283C28.3979 218.051 28.6058 218.119 29.1255 219.027C29.3297 219.383 29.481 219.771 29.7006 220.116C30.3341 221.111 30.9159 222.152 31.6503 223.068C35.2636 227.577 40.7498 229.115 46.3159 227.128C50.0196 225.806 52.6932 223.308 54.2253 219.637C54.3046 219.447 54.3673 219.249 54.4645 219.069C54.8754 218.307 55.4763 218.2 56.06 218.811C56.341 219.105 56.5575 219.462 56.8017 219.791C57.4438 220.657 58.0459 221.556 58.7335 222.384C60.8769 224.967 63.6643 226.353 66.9799 226.634C69.6597 226.861 72.3013 226.598 74.8715 225.761C78.467 224.589 80.9869 222.33 82.1419 218.634C82.7188 216.787 82.7717 216.747 84.7386 217.131C89.9129 218.141 97.3432 214.958 99.1373 207.637C99.5235 206.063 99.558 204.462 99.2701 202.889C98.6323 199.408 97.123 196.358 94.4697 193.962C92.5853 192.26 90.4099 191.2 87.8163 191.181C86.6194 191.17 85.4846 191.426 84.3818 191.894Z" fill="white"/>
<path opacity="0.2" d="M35.5115 208.523C37.4441 208.514 38.9313 207.968 40.1905 206.768C40.5039 206.469 40.802 206.089 40.9616 205.677C41.0592 205.426 40.9577 204.984 40.8039 204.734C40.5997 204.402 40.2339 204.467 39.9493 204.686C39.6889 204.885 39.4616 205.137 39.214 205.359C37.746 206.669 36.1108 207.09 34.2854 206.484C32.9974 206.055 31.8038 205.444 30.8432 204.359C30.5854 204.068 30.3052 203.77 29.9835 203.591C29.7907 203.484 29.432 203.505 29.2661 203.644C29.0982 203.784 28.9514 204.186 29.0152 204.388C29.1499 204.814 29.3746 205.242 29.658 205.567C31.3283 207.481 33.4327 208.331 35.5115 208.523Z" fill="white"/>
<path opacity="0.2" d="M46 196.323C45.9552 195.867 45.9605 195.648 45.909 195.44C45.7843 194.935 45.3588 194.617 44.7459 194.538C44.1644 194.462 43.6239 194.676 43.3761 195.166C42.9349 196.036 42.8446 196.936 43.3066 197.828C43.5231 198.247 43.883 198.53 44.4488 198.523C45.0094 198.516 45.4028 198.247 45.5686 197.81C45.7791 197.254 45.9015 196.674 46 196.323Z" fill="white"/>
<path opacity="0.2" d="M28 195.773C27.9552 195.203 27.9604 194.929 27.9089 194.669C27.7843 194.038 27.3588 193.641 26.7459 193.542C26.1644 193.447 25.6239 193.715 25.3761 194.326C24.9349 195.414 24.8446 196.539 25.3066 197.654C25.5231 198.178 25.8829 198.532 26.4488 198.523C27.0094 198.514 27.4028 198.178 27.5685 197.632C27.7783 196.938 27.9015 196.211 28 195.773Z" fill="white"/>
<path opacity="0.2" d="M229.183 643.661C229.453 643.359 229.65 643.164 229.817 642.947C231.312 641.007 233.259 639.692 235.508 638.778C240.583 636.716 245.731 636.474 250.968 638.108C253.286 638.831 255.339 640.009 257.047 641.721C260.096 644.78 262.086 648.391 262.564 652.748C262.608 653.142 262.636 653.539 262.705 653.929C262.794 654.429 262.917 654.922 263.056 655.553C263.537 655.293 263.968 655.063 264.397 654.828C268.363 652.657 272.621 652.012 276.895 653.322C282.547 655.054 286.312 658.813 287.503 664.806C289.845 672.39 283.638 681.897 274.714 683.568C269.829 684.482 265.224 683.665 260.98 681.105C259.095 679.968 257.343 678.611 255.439 677.292C255.139 677.633 254.769 678.047 254.404 678.467C250.057 683.452 244.554 685.326 238.08 684.42C236.294 684.17 234.524 683.718 232.787 683.218C230.513 682.561 228.554 681.332 226.964 679.549C226.745 679.303 226.495 679.084 226.186 678.78C225.902 679.059 225.655 679.277 225.436 679.521C223.039 682.192 220.049 683.816 216.542 684.473C212.807 685.173 209.094 685.02 205.439 683.951C200.795 682.594 197.491 679.736 195.718 675.188C195.616 674.926 195.485 674.675 195.36 674.423C195.338 674.379 195.276 674.354 195.138 674.247C194.624 674.452 194.054 674.683 193.481 674.907C189.234 676.571 184.966 676.523 180.679 675.068C179.642 674.716 178.756 674.14 177.961 673.38C175.413 670.942 174.134 667.961 174.014 664.454C173.946 662.456 174.122 660.491 174.696 658.57C175.626 655.455 177.481 653.02 180.183 651.243C182.896 649.457 185.831 649.005 188.96 649.934C189.601 650.125 190.24 650.32 190.985 650.545C191.138 650.082 191.294 649.731 191.369 649.365C191.86 646.965 192.568 644.647 193.775 642.498C195.136 640.075 196.971 638.105 199.32 636.625C202.944 634.34 206.9 632.98 211.185 632.931C218.414 632.849 224.129 635.753 228.023 641.968C228.294 642.4 228.549 642.841 228.82 643.273C228.88 643.365 228.973 643.438 229.183 643.661ZM229.363 646.153C228.332 645.717 227.864 645.085 227.447 644.4C227.035 643.722 226.648 643.028 226.206 642.37C222.496 636.845 217.202 634.443 210.669 634.685C207.757 634.794 204.995 635.656 202.352 636.912C198.058 638.952 195.233 642.244 193.841 646.764C193.458 648.006 193.218 649.291 192.898 650.553C192.788 650.988 192.685 651.439 192.487 651.837C192.197 652.419 191.699 652.64 191.071 652.47C190.416 652.293 189.783 652.036 189.141 651.813C185.584 650.577 182.506 651.4 179.684 653.818C175.176 657.68 174.585 665.884 177.672 670.365C178.955 672.227 180.613 673.484 182.845 673.932C186.665 674.7 190.374 674.506 193.969 672.824C196.193 671.783 196.358 671.892 197.167 674.106C198.794 678.56 201.954 681.299 206.508 682.455C209.507 683.217 212.541 683.341 215.612 682.875C219.436 682.294 222.545 680.527 224.921 677.474C225.026 677.34 225.125 677.2 225.239 677.075C226.018 676.224 226.545 676.246 227.317 677.161C227.426 677.291 227.519 677.434 227.619 677.571C229.009 679.459 230.821 680.791 233.055 681.459C234.733 681.961 236.441 682.428 238.168 682.676C243.944 683.507 248.934 681.942 252.916 677.545C253.371 677.041 253.814 676.516 254.321 676.068C255.399 675.115 255.853 675.175 256.957 676.071C258.319 677.177 259.691 678.28 261.144 679.259C264.294 681.38 267.799 682.293 271.602 682.195C276.256 682.076 280.025 680.193 282.995 676.658C285.708 673.427 286.695 669.73 285.954 665.561C285.223 661.447 282.992 658.391 279.46 656.253C276.222 654.294 272.727 654.08 269.116 654.863C267.034 655.313 265.131 656.147 263.53 657.593C263.321 657.781 263.101 657.968 262.858 658.107C262.37 658.388 261.792 658.208 261.58 657.701C261.472 657.445 261.43 657.157 261.387 656.879C261.19 655.591 260.937 654.308 260.824 653.013C260.537 649.725 259.114 646.928 257.133 644.387C255.381 642.139 253.123 640.559 250.384 639.727C247.42 638.826 244.403 638.476 241.32 638.989C236.887 639.725 232.867 641.183 230.295 645.223C230.068 645.58 229.684 645.839 229.363 646.153Z" fill="white"/>
</svg>
