<svg width="14" height="27" viewBox="0 0 14 27" fill="none" xmlns="http://www.w3.org/2000/svg">
<path d="M6.66667 1.49345e-08C7.7733 -9.18036e-05 8.83804 0.423201 9.64254 1.18308C10.447 1.94295 10.9303 2.98183 10.9933 4.08667L11 4.33333L11.0013 14.936L11.108 15.028C12.3505 16.1358 13.1327 17.6691 13.3 19.3253L13.3253 19.6613L13.3333 20C13.3335 21.0984 13.0623 22.1799 12.5438 23.1482C12.0253 24.1165 11.2755 24.9417 10.3612 25.5505C9.44691 26.1592 8.39635 26.5326 7.30294 26.6374C6.20954 26.7422 5.10717 26.5753 4.09384 26.1514C3.08052 25.7275 2.18763 25.0598 1.49457 24.2076C0.801513 23.3554 0.329751 22.3452 0.12123 21.2668C-0.0872909 20.1883 -0.0261099 19.0751 0.299333 18.026C0.624777 16.9769 1.2044 16.0244 1.98667 15.2533L2.22667 15.0267L2.332 14.936L2.33333 4.33333C2.33311 3.26841 2.72504 2.24069 3.43431 1.44633C4.14357 0.651966 5.12051 0.146594 6.17867 0.0266667L6.42133 0.00666683L6.66667 1.49345e-08ZM6.66667 2C6.08087 2.00005 5.51652 2.22044 5.08572 2.6174C4.65493 3.01435 4.3892 3.55883 4.34133 4.14267L4.33333 4.33333V15.9253L3.92133 16.2253C3.13418 16.7979 2.54576 17.6023 2.23845 18.5259C1.93114 19.4495 1.92032 20.446 2.20751 21.3761C2.49469 22.3061 3.06551 23.1231 3.84005 23.7126C4.61459 24.3021 5.55409 24.6347 6.52703 24.6638C7.49997 24.6929 8.45765 24.417 9.26602 23.8748C10.0744 23.3326 10.693 22.5511 11.0352 21.6399C11.3774 20.7287 11.4261 19.7332 11.1745 18.7929C10.9229 17.8526 10.3836 17.0146 9.632 16.396L9.412 16.2267L9.00267 15.9267L9 4.33333C9 3.71449 8.75417 3.121 8.31658 2.68342C7.879 2.24583 7.28551 2 6.66667 2V2ZM6.66667 8C6.93188 8 7.18624 8.10536 7.37377 8.29289C7.56131 8.48043 7.66667 8.73478 7.66667 9V16.82C8.42674 17.0589 9.07615 17.5621 9.49733 18.2384C9.9185 18.9147 10.0836 19.7195 9.96274 20.507C9.84188 21.2946 9.44304 22.0128 8.83843 22.5317C8.23383 23.0506 7.46341 23.3359 6.66667 23.3359C5.86992 23.3359 5.09951 23.0506 4.4949 22.5317C3.89029 22.0128 3.49145 21.2946 3.37059 20.507C3.24973 19.7195 3.41483 18.9147 3.836 18.2384C4.25718 17.5621 4.90659 17.0589 5.66667 16.82V9C5.66667 8.73478 5.77202 8.48043 5.95956 8.29289C6.1471 8.10536 6.40145 8 6.66667 8V8Z" fill="#8B6BC8"/>
</svg>
