<svg  viewBox="0 0 42 36" fill="none" xmlns="http://www.w3.org/2000/svg">
<path d="M21 0C28.3943 0 32.5873 4.89533 33.1963 10.8033H33.383C34.5133 10.8015 35.633 11.0224 36.6779 11.4535C37.7228 11.8846 38.6726 12.5174 39.4728 13.3157C40.2731 14.114 40.9082 15.0622 41.3418 16.106C41.7754 17.1499 41.9991 18.269 42 19.3993C41.9988 20.5295 41.7749 21.6483 41.3411 22.6919C40.9074 23.7355 40.2722 24.6834 39.472 25.4815C38.6718 26.2795 37.7221 26.9121 36.6774 27.343C35.6326 27.774 34.5132 27.9948 33.383 27.993H32.025L28.3337 34.139C28.1118 34.5227 27.7526 34.8079 27.3285 34.937C26.9045 35.0662 26.4473 35.0296 26.0492 34.8347C25.6511 34.6398 25.3418 34.3011 25.1838 33.887C25.0257 33.4729 25.0307 33.0142 25.1977 32.6037L25.3027 32.389L27.9837 27.993H22.9997L19.3083 34.139C19.0864 34.5227 18.7272 34.8079 18.3032 34.937C17.8792 35.0662 17.422 35.0296 17.0239 34.8347C16.6258 34.6398 16.3165 34.3011 16.1584 33.887C16.0004 33.4729 16.0054 33.0142 16.1723 32.6037L16.2773 32.389L18.9583 27.993H13.972L10.2807 34.1367C10.0568 34.5163 9.69789 34.7975 9.27568 34.9241C8.85348 35.0506 8.39907 35.0132 8.00326 34.8193C7.60746 34.6254 7.2994 34.2892 7.14066 33.878C6.98192 33.4669 6.98418 33.0109 7.147 32.6013L7.24967 32.3867L9.93067 27.9907H8.617C7.48685 27.9925 6.3674 27.7717 5.32263 27.3407C4.27786 26.9098 3.32823 26.2772 2.52801 25.4792C1.72778 24.6811 1.09265 23.7332 0.658881 22.6896C0.225116 21.646 0.0012246 20.5272 0 19.397C0.00153105 18.2672 0.225571 17.1488 0.659327 16.1057C1.09308 15.0625 1.72806 14.115 2.52801 13.3172C3.32795 12.5194 4.2772 11.887 5.32155 11.4561C6.3659 11.0251 7.4849 10.8041 8.61467 10.8057H8.80133C9.41733 4.85333 13.608 0 21 0ZM21 3.49533C16.1677 3.49533 11.9537 7.308 11.9537 12.572C11.9537 13.405 11.2093 14.0583 10.3577 14.0583H8.74767C5.80533 14.0583 3.41833 16.3963 3.41833 19.278C3.41833 22.1597 5.80533 24.4953 8.74767 24.4953H33.2547C36.1947 24.4953 38.5817 22.1597 38.5817 19.278C38.5817 16.3963 36.1947 14.0583 33.2523 14.0583H31.6423C30.7907 14.0583 30.0463 13.405 30.0463 12.572C30.0463 7.24033 25.8323 3.49533 21 3.49533Z" fill="#8B6BC8"/>
</svg>
