<svg  viewBox="0 0 42 37" fill="none" xmlns="http://www.w3.org/2000/svg">
<path d="M15.75 33.019C16.2141 33.019 16.6592 33.2034 16.9874 33.5316C17.3156 33.8598 17.5 34.3049 17.5 34.769C17.5 35.2331 17.3156 35.6782 16.9874 36.0064C16.6592 36.3346 16.2141 36.519 15.75 36.519C15.2859 36.519 14.8408 36.3346 14.5126 36.0064C14.1844 35.6782 14 35.2331 14 34.769C14 34.3049 14.1844 33.8598 14.5126 33.5316C14.8408 33.2034 15.2859 33.019 15.75 33.019ZM26.25 33.019C26.7141 33.019 27.1592 33.2034 27.4874 33.5316C27.8156 33.8598 28 34.3049 28 34.769C28 35.2331 27.8156 35.6782 27.4874 36.0064C27.1592 36.3346 26.7141 36.519 26.25 36.519C25.7859 36.519 25.3408 36.3346 25.0126 36.0064C24.6844 35.6782 24.5 35.2331 24.5 34.769C24.5 34.3049 24.6844 33.8598 25.0126 33.5316C25.3408 33.2034 25.7859 33.019 26.25 33.019ZM10.5 30.6857C10.9641 30.6857 11.4092 30.87 11.7374 31.1982C12.0656 31.5264 12.25 31.9715 12.25 32.4357C12.25 32.8998 12.0656 33.3449 11.7374 33.6731C11.4092 34.0013 10.9641 34.1857 10.5 34.1857C10.0359 34.1857 9.59075 34.0013 9.26256 33.6731C8.93437 33.3449 8.75 32.8998 8.75 32.4357C8.75 31.9715 8.93437 31.5264 9.26256 31.1982C9.59075 30.87 10.0359 30.6857 10.5 30.6857ZM21 30.6857C21.4641 30.6857 21.9092 30.87 22.2374 31.1982C22.5656 31.5264 22.75 31.9715 22.75 32.4357C22.75 32.8998 22.5656 33.3449 22.2374 33.6731C21.9092 34.0013 21.4641 34.1857 21 34.1857C20.5359 34.1857 20.0908 34.0013 19.7626 33.6731C19.4344 33.3449 19.25 32.8998 19.25 32.4357C19.25 31.9715 19.4344 31.5264 19.7626 31.1982C20.0908 30.87 20.5359 30.6857 21 30.6857ZM31.5 30.6857C31.9641 30.6857 32.4092 30.87 32.7374 31.1982C33.0656 31.5264 33.25 31.9715 33.25 32.4357C33.25 32.8998 33.0656 33.3449 32.7374 33.6731C32.4092 34.0013 31.9641 34.1857 31.5 34.1857C31.0359 34.1857 30.5908 34.0013 30.2626 33.6731C29.9344 33.3449 29.75 32.8998 29.75 32.4357C29.75 31.9715 29.9344 31.5264 30.2626 31.1982C30.5908 30.87 31.0359 30.6857 31.5 30.6857ZM21 0.00233316C28.3943 0.00233316 32.5873 4.89533 33.1963 10.8057H33.383C34.513 10.8038 35.6322 11.0246 36.6768 11.4554C37.7214 11.8862 38.671 12.5185 39.4712 13.3163C40.2714 14.1142 40.9065 15.0618 41.3405 16.1051C41.7744 17.1485 41.9985 18.267 42 19.397C41.9988 20.5272 41.7749 21.646 41.3411 22.6896C40.9074 23.7332 40.2722 24.6811 39.472 25.4792C38.6718 26.2772 37.7221 26.9098 36.6774 27.3407C35.6326 27.7717 34.5132 27.9925 33.383 27.9907H8.617C7.48685 27.9925 6.3674 27.7717 5.32263 27.3407C4.27786 26.9098 3.32823 26.2772 2.52801 25.4792C1.72778 24.6811 1.09265 23.7332 0.658881 22.6896C0.225116 21.646 0.0012246 20.5272 0 19.397C0.00153105 18.2672 0.225571 17.1488 0.659327 16.1057C1.09308 15.0625 1.72806 14.115 2.52801 13.3172C3.32795 12.5194 4.2772 11.887 5.32155 11.4561C6.3659 11.0251 7.4849 10.8041 8.61467 10.8057H8.80133C9.41733 4.85333 13.608 0 21 0V0.00233316ZM21 3.49533C16.1677 3.49533 11.9537 7.308 11.9537 12.572C11.9537 13.405 11.2093 14.0583 10.3577 14.0583H8.74767C5.80533 14.0583 3.41833 16.3963 3.41833 19.278C3.41833 22.1597 5.80533 24.4953 8.74767 24.4953H33.2547C36.1947 24.4953 38.5817 22.1597 38.5817 19.278C38.5817 16.3963 36.1947 14.0583 33.2523 14.0583H31.6423C30.7907 14.0583 30.0463 13.405 30.0463 12.572C30.0463 7.24033 25.8323 3.49533 21 3.49533Z" fill="black"/>
</svg>
