<svg viewBox="0 0 47 38" fill="none" xmlns="http://www.w3.org/2000/svg">
<path d="M39.7101 13.9997C41.5207 14.0161 43.2545 14.7331 44.5478 16.0003C45.841 17.2675 46.5932 18.9865 46.6463 20.7963C46.6994 22.6062 46.0495 24.3662 44.8328 25.7072C43.6161 27.0481 41.9273 27.8656 40.1208 27.9881L39.6378 27.9998L39.3998 28.0161H36.6815C37.1248 28.8864 37.3768 29.8711 37.3768 30.9141C37.3768 34.4841 34.6865 37.3471 31.1351 37.3471C27.6235 37.3471 25.5001 35.2891 24.9285 32.4401C24.8525 31.9915 24.9543 31.5311 25.2121 31.1562C25.4699 30.7814 25.8636 30.5217 26.3096 30.4322C26.7556 30.3427 27.219 30.4304 27.6015 30.6767C27.9839 30.9231 28.2555 31.3086 28.3585 31.7518C28.6245 33.0701 29.4248 33.8471 31.1351 33.8471C32.7031 33.8471 33.8768 32.5988 33.8768 30.9164C33.8768 29.3088 32.5515 27.9998 30.9065 27.9998L1.7678 28.0161C1.32125 28.0206 0.889866 27.8543 0.561971 27.5511C0.234077 27.248 0.034485 26.8309 0.00406721 26.3854C-0.0263506 25.9398 0.114707 25.4995 0.398355 25.1546C0.682003 24.8097 1.08678 24.5863 1.5298 24.5301L1.7678 24.5161H30.6708L30.9065 24.4998C31.0581 24.4998 31.2051 24.5044 31.3521 24.5138L39.4535 24.5184L39.5795 24.5044L40.0461 24.4834C40.6977 24.4194 41.3182 24.1738 41.8372 23.7747C42.3562 23.3756 42.7529 22.8389 42.9821 22.2257C43.2114 21.6124 43.264 20.9472 43.134 20.3055C43.0041 19.6638 42.6967 19.0714 42.2469 18.5957C41.7972 18.1199 41.2229 17.7799 40.5896 17.6142C39.9562 17.4485 39.289 17.4637 38.6639 17.6582C38.0387 17.8527 37.4806 18.2187 37.0531 18.7145C36.6255 19.2103 36.3456 19.8161 36.2451 20.4631L36.1821 21.0208C36.1036 21.4638 35.8575 21.8596 35.4949 22.1259C35.1322 22.3922 34.681 22.5087 34.2347 22.451C33.7885 22.3933 33.3816 22.166 33.0986 21.8163C32.8156 21.4665 32.6781 21.0212 32.7148 20.5728C32.8242 18.7922 33.609 17.1206 34.909 15.899C36.209 14.6775 37.9263 13.9982 39.7101 13.9997ZM23.3815 18.6664H1.81213C1.36874 18.6663 0.941937 18.4978 0.617952 18.1951C0.293967 17.8924 0.0969599 17.4781 0.0667386 17.0357C0.0365173 16.5933 0.175335 16.156 0.455141 15.8121C0.734948 15.4681 1.13488 15.2432 1.57413 15.1827L1.81213 15.1664H23.3815C24.5352 15.1664 25.663 14.8243 26.6223 14.1833C27.5816 13.5423 28.3293 12.6313 28.7708 11.5654C29.2123 10.4995 29.3278 9.32661 29.1027 8.19506C28.8776 7.0635 28.3221 6.0241 27.5063 5.20829C26.6904 4.39249 25.651 3.83691 24.5195 3.61183C23.3879 3.38675 22.215 3.50227 21.1491 3.94378C20.0832 4.3853 19.1722 5.13297 18.5312 6.09226C17.8902 7.05154 17.5481 8.17936 17.5481 9.33308C17.5481 9.79721 17.3638 10.2423 17.0356 10.5705C16.7074 10.8987 16.2623 11.0831 15.7981 11.0831C15.334 11.0831 14.8889 10.8987 14.5607 10.5705C14.2325 10.2423 14.0481 9.79721 14.0481 9.33308C14.0482 7.5091 14.5827 5.7251 15.5856 4.20158C16.5884 2.67805 18.0158 1.48176 19.6911 0.760568C21.3665 0.039374 23.2164 -0.17512 25.0123 0.143595C26.8083 0.46231 28.4714 1.30026 29.7963 2.5539C31.1212 3.80753 32.0497 5.4219 32.4671 7.19748C32.8845 8.97306 32.7725 10.832 32.1449 12.5447C31.5174 14.2573 30.4017 15.7485 28.9359 16.834C27.4701 17.9194 25.7183 18.5516 23.8971 18.6524L23.3838 18.6664H1.8098H23.3815Z" fill="black"/>
</svg>
