<svg  viewBox="0 0 47 47" fill="none" xmlns="http://www.w3.org/2000/svg">
<path d="M23.3333 0C23.7975 0 24.2426 0.184374 24.5708 0.512563C24.899 0.840752 25.0833 1.28587 25.0833 1.75V5.25C25.0833 5.71413 24.899 6.15925 24.5708 6.48744C24.2426 6.81563 23.7975 7 23.3333 7C22.8692 7 22.4241 6.81563 22.0959 6.48744C21.7677 6.15925 21.5833 5.71413 21.5833 5.25V1.75C21.5833 1.28587 21.7677 0.840752 22.0959 0.512563C22.4241 0.184374 22.8692 0 23.3333 0ZM23.3333 35C26.4275 35 29.395 33.7708 31.5829 31.5829C33.7708 29.395 35 26.4275 35 23.3333C35 20.2391 33.7708 17.2717 31.5829 15.0838C29.395 12.8958 26.4275 11.6667 23.3333 11.6667C20.2391 11.6667 17.2717 12.8958 15.0838 15.0838C12.8958 17.2717 11.6667 20.2391 11.6667 23.3333C11.6667 26.4275 12.8958 29.395 15.0838 31.5829C17.2717 33.7708 20.2391 35 23.3333 35ZM23.3333 31.5C22.2609 31.5 21.1989 31.2888 20.2081 30.8784C19.2173 30.4679 18.317 29.8664 17.5586 29.108C16.8003 28.3497 16.1987 27.4494 15.7883 26.4586C15.3779 25.4678 15.1667 24.4058 15.1667 23.3333C15.1667 22.2609 15.3779 21.1989 15.7883 20.2081C16.1987 19.2173 16.8003 18.317 17.5586 17.5586C18.317 16.8003 19.2173 16.1987 20.2081 15.7883C21.1989 15.3779 22.2609 15.1667 23.3333 15.1667C25.4993 15.1667 27.5765 16.0271 29.108 17.5586C30.6396 19.0902 31.5 21.1674 31.5 23.3333C31.5 25.4993 30.6396 27.5765 29.108 29.108C27.5765 30.6396 25.4993 31.5 23.3333 31.5ZM44.9167 25.0833C45.3808 25.0833 45.8259 24.899 46.1541 24.5708C46.4823 24.2426 46.6667 23.7975 46.6667 23.3333C46.6667 22.8692 46.4823 22.4241 46.1541 22.0959C45.8259 21.7677 45.3808 21.5833 44.9167 21.5833H41.4167C40.9525 21.5833 40.5074 21.7677 40.1792 22.0959C39.851 22.4241 39.6667 22.8692 39.6667 23.3333C39.6667 23.7975 39.851 24.2426 40.1792 24.5708C40.5074 24.899 40.9525 25.0833 41.4167 25.0833H44.9167ZM23.3333 39.6667C23.7975 39.6667 24.2426 39.851 24.5708 40.1792C24.899 40.5074 25.0833 40.9525 25.0833 41.4167V44.9167C25.0833 45.3808 24.899 45.8259 24.5708 46.1541C24.2426 46.4823 23.7975 46.6667 23.3333 46.6667C22.8692 46.6667 22.4241 46.4823 22.0959 46.1541C21.7677 45.8259 21.5833 45.3808 21.5833 44.9167V41.4167C21.5833 40.9525 21.7677 40.5074 22.0959 40.1792C22.4241 39.851 22.8692 39.6667 23.3333 39.6667ZM5.25 25.0833C5.71413 25.0833 6.15925 24.899 6.48744 24.5708C6.81563 24.2426 7 23.7975 7 23.3333C7 22.8692 6.81563 22.4241 6.48744 22.0959C6.15925 21.7677 5.71413 21.5833 5.25 21.5833H1.75C1.28587 21.5833 0.840752 21.7677 0.512563 22.0959C0.184374 22.4241 0 22.8692 0 23.3333C0 23.7975 0.184374 24.2426 0.512563 24.5708C0.840752 24.899 1.28587 25.0833 1.75 25.0833H5.25ZM5.18 5.18C5.50813 4.85228 5.95292 4.66821 6.41667 4.66821C6.88042 4.66821 7.32521 4.85228 7.65333 5.18L11.1533 8.68C11.4625 9.01174 11.6307 9.45052 11.6227 9.90389C11.6147 10.3573 11.4311 10.7898 11.1105 11.1105C10.7898 11.4311 10.3573 11.6147 9.90389 11.6227C9.45052 11.6307 9.01174 11.4625 8.68 11.1533L5.18 7.65333C4.85228 7.32521 4.66821 6.88042 4.66821 6.41667C4.66821 5.95292 4.85228 5.50813 5.18 5.18ZM7.65333 41.4867C7.49312 41.6586 7.29992 41.7965 7.08526 41.8922C6.87059 41.9878 6.63886 42.0392 6.40389 42.0434C6.16891 42.0475 5.93551 42.0043 5.71761 41.9163C5.4997 41.8283 5.30175 41.6973 5.13558 41.5311C4.9694 41.3649 4.8384 41.167 4.75038 40.9491C4.66236 40.7312 4.61914 40.4978 4.62329 40.2628C4.62743 40.0278 4.67886 39.7961 4.77451 39.5814C4.87016 39.3667 5.00806 39.1735 5.18 39.0133L8.68 35.5133C8.84021 35.3414 9.03341 35.2035 9.24808 35.1078C9.46274 35.0122 9.69447 34.9608 9.92945 34.9566C10.1644 34.9525 10.3978 34.9957 10.6157 35.0837C10.8336 35.1717 11.0316 35.3027 11.1978 35.4689C11.3639 35.6351 11.4949 35.833 11.583 36.0509C11.671 36.2688 11.7142 36.5022 11.71 36.7372C11.7059 36.9722 11.6545 37.2039 11.5588 37.4186C11.4632 37.6333 11.3253 37.8265 11.1533 37.9867L7.65333 41.4867ZM41.4867 5.18C41.1585 4.85228 40.7138 4.66821 40.25 4.66821C39.7863 4.66821 39.3415 4.85228 39.0133 5.18L35.5133 8.68C35.2042 9.01174 35.0359 9.45052 35.0439 9.90389C35.0519 10.3573 35.2356 10.7898 35.5562 11.1105C35.8769 11.4311 36.3094 11.6147 36.7628 11.6227C37.2162 11.6307 37.6549 11.4625 37.9867 11.1533L41.4867 7.65333C41.8144 7.32521 41.9985 6.88042 41.9985 6.41667C41.9985 5.95292 41.8144 5.50813 41.4867 5.18ZM39.0133 41.4867C39.1735 41.6586 39.3667 41.7965 39.5814 41.8922C39.7961 41.9878 40.0278 42.0392 40.2628 42.0434C40.4978 42.0475 40.7312 42.0043 40.9491 41.9163C41.167 41.8283 41.3649 41.6973 41.5311 41.5311C41.6973 41.3649 41.8283 41.167 41.9163 40.9491C42.0043 40.7312 42.0475 40.4978 42.0434 40.2628C42.0392 40.0278 41.9878 39.7961 41.8922 39.5814C41.7965 39.3667 41.6586 39.1735 41.4867 39.0133L37.9867 35.5133C37.8265 35.3414 37.6333 35.2035 37.4186 35.1078C37.2039 35.0122 36.9722 34.9608 36.7372 34.9566C36.5022 34.9525 36.2688 34.9957 36.0509 35.0837C35.833 35.1717 35.6351 35.3027 35.4689 35.4689C35.3027 35.6351 35.1717 35.833 35.0837 36.0509C34.9957 36.2688 34.9525 36.5022 34.9566 36.7372C34.9608 36.9722 35.0122 37.2039 35.1078 37.4186C35.2035 37.6333 35.3414 37.8265 35.5133 37.9867L39.0133 41.4867Z" fill="black"/>
</svg>
