<svg width="24" height="24" viewBox="0 0 24 24" fill="none" xmlns="http://www.w3.org/2000/svg">
<path d="M8.98463 24.0009C9.18734 24.0042 9.38626 23.9458 9.55503 23.8335C9.7238 23.7212 9.85444 23.5602 9.92963 23.3719L13.7706 13.7709L23.3726 9.9299C23.5583 9.8557 23.7176 9.72752 23.8297 9.56192C23.9418 9.39631 24.0017 9.20089 24.0016 9.0009L24.0016 8.9849C23.9984 8.78237 23.9338 8.58558 23.8163 8.42058C23.6988 8.25558 23.534 8.13015 23.3436 8.0609L1.34363 0.0609006C1.16465 -0.00458733 0.97069 -0.0175675 0.784584 0.0234861C0.598479 0.0645398 0.427981 0.157919 0.293168 0.292626C0.158356 0.427334 0.0648435 0.597759 0.0236448 0.783832C-0.017554 0.969905 -0.00472345 1.16388 0.060625 1.3429L8.06063 23.3429C8.13006 23.5333 8.25567 23.6982 8.42084 23.8157C8.58601 23.9332 8.78295 23.9978 8.98563 24.0009L8.98463 24.0009Z" fill="#8B6BC8"/>
</svg>
